<svg fill="#000000" xmlns="http://www.w3.org/2000/svg"  viewBox="0 0 50 50" width="50px" height="50px">
<g>
	<polygon points="34.7,26.9 32.5,24.7 29.7,27.5 27.3,25 30.1,22.2 27.8,20 25,22.8 22.6,20.3 25.4,17.6 23.1,15.3 20.3,18.1 
		16.8,14.5 14.5,16.8 18.1,20.3 15.3,23.1 17.6,25.4 20.3,22.6 22.8,25 20,27.8 22.2,30.1 25,27.3 27.5,29.7 24.7,32.5 26.9,34.7 
		29.7,32 33.3,35.5 35.5,33.3 32,29.7 	"/>
	<path d="M41.3,22.4c3.1-1.6,5.2-4.8,5.2-8.4c0-5.2-4.3-9.5-9.5-9.5c-3.5,0-6.6,1.9-8.2,4.8c-2.7-1.3-5.4-2.2-8-2.6
		c-5-0.8-9.5-0.3-12,2.1c-2.5,2.5-3,7-2.2,12s3.2,10.6,7.7,15.1c4.4,4.4,10,6.8,15,7.6s9.5,0.4,12.1-2.1v0h0
		c1.2-1.3,1.9-3.1,2.2-5.1c0.2-1,0.2-2.1,0.2-3.3s-0.1-2.4-0.3-3.6C43.1,27,42.3,24.7,41.3,22.4z M37,7.2c3.7,0,6.7,3,6.7,6.7
		s-3,6.7-6.7,6.7s-6.7-3-6.7-6.7S33.3,7.2,37,7.2z M40.4,35.6c-0.3,1.6-0.8,2.8-1.3,3.4c0,0,0,0,0,0c-1.2,1.1-4.9,2-9.3,1.3
		c-4.4-0.7-9.4-2.9-13.3-6.7c-4-4-6.1-9-6.8-13.4S9.9,12.1,11,11c1.1-1.1,4.9-2,9.3-1.3c2.4,0.4,5,1.2,7.4,2.5
		c-0.1,0.6-0.2,1.1-0.2,1.7c0,5.2,4.3,9.5,9.5,9.5c0.4,0,0.9,0,1.3-0.1c1,2.2,1.7,4.4,2.1,6.5c0.2,1.1,0.2,2.1,0.2,3.1
		S40.5,34.8,40.4,35.6z"/>
</g>
<path d="M39.2,10.4L39.2,10.4l-0.2,0h-0.4h-3.4v1.8h2.3c0.1,0,0.1,0.1,0.1,0.2l-2.3,5h2l2.6-5.6C40.2,11.2,39.9,10.6,39.2,10.4z"/>
</svg>
