<svg fill="#000000" xmlns="http://www.w3.org/2000/svg"  viewBox="0 0 32 32" width="50px" height="50px"><path d="M 14.78125 4 C 12.859375 4 11.28125 5.578125 11.28125 7.5 C 11.28125 9.421875 12.859375 11 14.78125 11 C 16.703125 11 18.28125 9.421875 18.28125 7.5 C 18.28125 5.578125 16.703125 4 14.78125 4 Z M 14.78125 6 C 15.621094 6 16.28125 6.660156 16.28125 7.5 C 16.28125 8.339844 15.621094 9 14.78125 9 C 13.941406 9 13.28125 8.339844 13.28125 7.5 C 13.28125 6.660156 13.941406 6 14.78125 6 Z M 24.53125 10.375 L 21.21875 12.125 L 18.5 10.65625 L 18.125 10.46875 L 17.71875 10.59375 L 14 11.71875 L 13.65625 11.84375 L 13.46875 12.15625 L 12.3125 13.96875 L 9.375 12.09375 L 8.28125 13.78125 L 11.25 15.65625 C 12.179688 16.246094 13.449219 15.964844 14.03125 15.03125 L 14.3125 14.5625 L 15.15625 16.96875 L 14.4375 18.3125 C 14.097656 18.964844 14.144531 19.769531 14.5625 20.375 L 15.6875 22 C 12.90625 22.035156 10.417969 22.53125 8.53125 23.3125 C 8.152344 23.46875 7.800781 23.632813 7.46875 23.8125 L 9.75 15.90625 L 8.46875 15.09375 L 5.34375 25.71875 C 5.128906 26.109375 5 26.542969 5 27 L 7 27 C 7 26.859375 7.09375 26.601563 7.46875 26.25 C 7.84375 25.898438 8.460938 25.496094 9.28125 25.15625 C 10.925781 24.476563 13.324219 24 16 24 C 18.671875 24 21.074219 24.503906 22.71875 25.1875 C 23.542969 25.53125 24.15625 25.898438 24.53125 26.25 C 24.90625 26.601563 25 26.871094 25 27 L 27 27 C 27 26.625 26.898438 26.292969 26.75 25.96875 L 24.71875 13.75 L 23.3125 14.53125 L 24.90625 24.0625 C 24.753906 23.96875 24.605469 23.871094 24.4375 23.78125 L 21.65625 19.5 L 19.625 13.53125 L 20.28125 13.875 C 20.863281 14.1875 21.566406 14.214844 22.15625 13.90625 L 25.46875 12.15625 Z M 17.25 12.8125 L 19.78125 20.25 L 19.8125 20.375 L 19.90625 20.5 L 21.3125 22.65625 C 20.351563 22.410156 19.335938 22.199219 18.21875 22.09375 L 16.21875 19.21875 L 17.125 17.5 L 17.3125 17.125 L 17.15625 16.71875 L 15.9375 13.21875 Z"/></svg>