<?xml version="1.0" encoding="utf-8"?>
<!-- Generator: Adobe Illustrator 23.0.1, SVG Export Plug-In . SVG Version: 6.00 Build 0)  -->
<svg version="1.1" id="Calque_1" xmlns="http://www.w3.org/2000/svg" xmlns:xlink="http://www.w3.org/1999/xlink" x="0px" y="0px"
	 viewBox="0 0 31.9 7.9" style="enable-background:new 0 0 31.9 7.9;" xml:space="preserve">
<style type="text/css">
	.st0{fill:#FFFFFF;}
</style>
<g id="Groupe_2539" transform="translate(3.898 1)">
	<path id="Rectangle_65" class="st0" d="M0.1-1L0.1-1C2.2-1,4,0.8,4,2.9l0,0c0,2.2-1.8,3.9-3.9,3.9l0,0c-2.2,0-3.9-1.8-3.9-3.9l0,0
		C-3.9,0.8-2.1-1,0.1-1z"/>
	<path id="Rectangle_66" class="st0" d="M24-1L24-1C26.2-1,28,0.8,28,2.9l0,0c0,2.2-1.8,3.9-3.9,3.9l0,0c-2.2,0-3.9-1.8-3.9-3.9l0,0
		C20.1,0.8,21.9-1,24-1z"/>
	<path id="Rectangle_67" class="st0" d="M12-1L12-1C14.2-1,16,0.8,16,2.9l0,0c0,2.2-1.8,3.9-3.9,3.9l0,0c-2.2,0-3.9-1.8-3.9-3.9l0,0
		C8.1,0.8,9.9-1,12-1z"/>
</g>
</svg>
