<svg xmlns="http://www.w3.org/2000/svg" width="24.04" height="22.195" viewBox="0 0 24.04 22.195"><defs><style>.a,.b{fill:#fff;}.a{opacity:0.5;}.b{opacity:0.516;}</style></defs><path class="a" d="M108.305,712.42a7.914,7.914,0,0,1-6.681-3.881L97.339,701.5a8,8,0,0,1,1.438-9.69,5.731,5.731,0,0,1,7.89-.03l.488.492a1.619,1.619,0,0,0,2.27.025l.471-.457a5.866,5.866,0,0,1,7.859-.079l.1.086a7.84,7.84,0,0,1,1.254,9.969l-4.314,6.97a7.653,7.653,0,0,1-5.64,3.58A7.112,7.112,0,0,1,108.305,712.42Zm-5.436-19.2a3.2,3.2,0,0,0-2.066.806,4.948,4.948,0,0,0-.874,5.969l4.257,6.987a4.845,4.845,0,0,0,4.615,2.412,4.667,4.667,0,0,0,3.442-2.182l4.314-6.969a4.889,4.889,0,0,0-.672-6.127l-.091-.08a2.85,2.85,0,0,0-3.81-.036l-.472.457a4.628,4.628,0,0,1-6.487-.066l-.488-.492A2.3,2.3,0,0,0,102.869,693.217Z" transform="translate(-96.302 -690.225)"/><circle class="b" cx="2" cy="2" r="2" transform="translate(15.437 6.654)"/></svg>