<svg xmlns="http://www.w3.org/2000/svg" width="8.617" height="12.074" viewBox="0 0 8.617 12.074">
  <path id="Tracé_32390" data-name="Tracé 32390" d="M8.549,6.8a10.543,10.543,0,0,0-1.783-5A10.932,10.932,0,0,1,6,4.5l-.2.349S4.9,2.738,4.619,1.794,4.148,0,4.148,0,1.155,2.992.25,5.828s.731,6,3.463,6.227A4.494,4.494,0,0,0,8.6,7.991,4.593,4.593,0,0,0,8.549,6.8m-4.4,4.374A1.29,1.29,0,0,1,3.022,9.764,7.529,7.529,0,0,1,4.148,7.275,7.529,7.529,0,0,1,5.274,9.764a1.29,1.29,0,0,1-1.126,1.407" transform="translate(0.001)" fill="#f9793a"/>
</svg>
