<?xml version="1.0" encoding="utf-8"?>
<!-- Generator: Adobe Illustrator 25.4.1, SVG Export Plug-In . SVG Version: 6.00 Build 0)  -->
<svg version="1.1" id="Layer_1" xmlns="http://www.w3.org/2000/svg" xmlns:xlink="http://www.w3.org/1999/xlink" x="0px" y="0px"
	 viewBox="0 0 19.5 26.6" style="enable-background:new 0 0 19.5 26.6;" xml:space="preserve">
<style type="text/css">
	.st0{fill:none;stroke:#FFFFFF;stroke-width:3;}
	.st1{fill:none;stroke:#FFFFFF;stroke-width:3;stroke-miterlimit:10;}
</style>
<path class="st0" d="M9.7,3.4c0,0-5.7,6.1-7.2,11.3s2.1,8.7,4.2,9.6c2.7,1.2,9.6,0.9,10.5-6.4c0.5-3.9-0.8-5.2-1.6-7.1
	s-1.3-2.9-1.3-2.9s-1.1,1.6-1.4,3.6C12.8,11.5,10.2,6.2,9.7,3.4z"/>
<path class="st1" d="M12.6,22c0,1.5-1.2,2.8-2.8,2.8S7,23.6,7,22c0-1.4,2.2-5.2,2.7-6c0-0.1,0.1-0.1,0.2,0
	C10.4,16.9,12.6,20.7,12.6,22z"/>
</svg>
