<svg xmlns="http://www.w3.org/2000/svg" width="21.896" height="20.238" viewBox="0 0 21.896 20.238">
  <path id="icons8-aed" d="M8.426,4A5.426,5.426,0,0,0,3,9.426c0,5.217,6.051,10.2,8.878,12.421l.008.006.065.052h0a1.651,1.651,0,0,0,1.99,0h0l.019-.015.015-.011L14,21.864c2.818-2.212,8.9-7.21,8.9-12.439A5.426,5.426,0,0,0,17.471,4a5.912,5.912,0,0,0-4.522,2.487A5.912,5.912,0,0,0,8.426,4Zm4.613,7.121a.427.427,0,0,1,.147,0,.415.415,0,0,1,.335.408l.208,1.487h1.244a.416.416,0,0,1,.385.568L13.73,16.53a.416.416,0,0,1-.385.261.444.444,0,0,1-.079-.008.413.413,0,0,1-.335-.406l-.029-1.7H11.657a.416.416,0,0,1-.385-.568l1.45-2.73.015-.034Z" transform="translate(-2 -3)" fill="none" stroke="#000001" stroke-width="2"/>
</svg>
