<svg xmlns="http://www.w3.org/2000/svg" width="21.014" height="21.038" viewBox="0 0 21.014 21.038">
  <g id="icons8-pullups-50" transform="translate(-2 -2)" fill="none">
    <path d="M12.507,2a2.021,2.021,0,1,0,2.021,2.021A2.021,2.021,0,0,0,12.507,2ZM6.054,6.032a.808.808,0,0,0-.826.818H2v.808H5.542l1.392,2.786a.808.808,0,0,0,.9.426l0,0a.809.809,0,0,0,.079-.022l2.166-.6v3.238l-.755,4.362-.03.122a.808.808,0,0,0,.092.611l2.425,4.041a.808.808,0,1,0,1.386-.83l-.043-.071-1.725-3.37,1.075-2.892,1.075,2.892-.21.41.988,1.929,1.264-2.109a.806.806,0,0,0,.092-.611l-.785-4.483V10.248l2.164.6a.811.811,0,0,0,.983-.4l1.392-2.786h3.542V6.849H19.781a.808.808,0,0,0-1.531-.361l-.182.361H6.946l-.182-.361a.808.808,0,0,0-.71-.456Zm1.3,1.626h2.732a.808.808,0,0,0-.448.136L7.972,8.9Zm7.582,0h2.732L17.042,8.9,15.38,7.793a.808.808,0,0,0-.448-.136Z" stroke="none"/>
    <path d="M 12.08222389221191 8.849332809448242 L 12.08222389221191 10.85963344573975 L 12.5068941116333 9.717203140258789 L 12.93156433105469 10.85963344573975 L 12.93156433105469 8.849332809448242 L 12.08222389221191 8.849332809448242 M 12.5068941116333 2.000003814697266 C 13.6228141784668 2.000003814697266 14.5274543762207 2.904634475708008 14.5274543762207 4.020553588867188 C 14.5274543762207 5.136472702026367 13.6228141784668 6.041112899780273 12.5068941116333 6.041112899780273 C 11.3909740447998 6.041112899780273 10.4863338470459 5.136472702026367 10.4863338470459 4.020553588867188 C 10.4863338470459 2.904634475708008 11.3909740447998 2.000003814697266 12.5068941116333 2.000003814697266 Z M 6.036378860473633 6.031457901000977 C 6.042154312133789 6.031457901000977 6.047956466674805 6.031518936157227 6.053743362426758 6.031642913818359 C 6.357433319091797 6.038152694702148 6.631843566894531 6.214384078979492 6.764093399047852 6.487844467163086 L 6.945623397827148 6.849332809448242 L 18.06815338134766 6.849332809448242 L 18.24969482421875 6.487844467163086 C 18.41739463806152 6.152654647827148 18.79352378845215 5.976709365844727 19.15848350524902 6.062873840332031 C 19.52324295043945 6.149072647094727 19.7808952331543 6.474714279174805 19.7808952331543 6.849332809448242 L 23.01378440856934 6.849332809448242 L 23.01378440856934 7.657552719116211 L 19.47149467468262 7.657552719116211 L 18.07920455932617 10.44371318817139 C 17.91290473937988 10.7748851776123 17.54271697998047 10.95055484771729 17.18100357055664 10.86992359161377 C 17.15218353271484 10.86359310150146 17.12372398376465 10.85569381713867 17.09576416015625 10.8462438583374 L 14.93156433105469 10.24797344207764 L 14.93156433105469 13.48560333251953 L 15.71610450744629 17.96871376037598 C 15.7678337097168 18.17642402648926 15.73527431488037 18.39533424377441 15.62454414367676 18.57961273193359 L 14.3601245880127 20.68856430053711 L 13.37194442749023 18.75956344604492 L 13.58189392089844 18.34914398193359 L 12.5068941116333 15.45722389221191 L 11.43189430236816 18.34914398193359 L 13.15726375579834 21.71936416625977 L 13.19988441467285 21.79040336608887 C 13.36025428771973 22.03844451904297 13.3725643157959 22.35421371459961 13.23197364807129 22.61398315429688 C 13.09139442443848 22.87375259399414 12.82030391693115 23.03616333007812 12.52493381500244 23.03756332397461 C 12.2295446395874 23.03895950317383 11.95695400238037 22.87914276123047 11.81390380859375 22.62072372436523 L 9.38923454284668 18.57961273193359 C 9.279044151306152 18.39613342285156 9.246113777160645 18.17643356323242 9.297683715820312 17.96871376037598 L 9.32767391204834 17.84716415405273 L 10.08222389221191 13.48560333251953 L 10.08222389221191 10.24797344207764 L 7.916444778442383 10.8462438583374 C 7.890523910522461 10.85494327545166 7.86418342590332 10.86231327056885 7.837514877319336 10.86834335327148 C 7.835933685302734 10.86887359619141 7.834354400634766 10.86940383911133 7.832773208618164 10.86992359161377 C 7.47108268737793 10.9505558013916 7.100873947143555 10.77488327026367 6.934574127197266 10.44371318817139 L 5.54228401184082 7.657552719116211 L 2.000003814697266 7.657552719116211 L 2.000003814697266 6.849332809448242 L 5.228153228759766 6.849332809448242 C 5.225553512573242 6.630304336547852 5.31196403503418 6.41960334777832 5.467594146728516 6.265462875366211 C 5.619112014770508 6.115396499633789 5.823583602905273 6.031452178955078 6.036378860473633 6.031457901000977 Z M 7.349733352661133 7.657552719116211 L 7.971683502197266 8.901464462280273 L 9.633964538574219 7.793283462524414 C 9.766724586486816 7.704784393310547 9.922723770141602 7.657552719116211 10.08222389221191 7.657552719116211 L 7.349733352661133 7.657552719116211 Z M 14.93156433105469 7.657552719116211 C 15.09112453460693 7.657573699951172 15.24711418151855 7.704803466796875 15.37987422943115 7.793313980102539 L 17.04209518432617 8.901464462280273 L 17.66404342651367 7.657552719116211 L 14.93156433105469 7.657552719116211 Z" stroke="none" fill="#000"/>
  </g>
</svg>
