<svg xmlns="http://www.w3.org/2000/svg" width="15.551" height="21.59" viewBox="0 0 15.551 21.59">
  <g id="icons8-squats-50" transform="translate(-7 -2)" fill="none">
    <path d="M13.48,2a2.16,2.16,0,1,0,2.16,2.16A2.16,2.16,0,0,0,13.48,2ZM11.752,8.048A2.16,2.16,0,0,0,9.762,9.367l-2.553,5.1,0,0A2.155,2.155,0,0,0,9.16,17.551h3.812L11.4,22.37a.864.864,0,0,0,1.556.751l3.456-6.912a.864.864,0,0,0-.734-1.249l-.008,0-3.628-.548,1.566-3.1a2.16,2.16,0,0,0,.14-.278l.273-.542,7.62-.712h.046a.864.864,0,1,0,0-1.728Z" stroke="none"/>
    <path d="M 13.47964096069336 4.000003814697266 C 13.39148139953613 4.000003814697266 13.31976127624512 4.071723937988281 13.31976127624512 4.159883499145508 C 13.31976127624512 4.248043060302734 13.39148139953613 4.31976318359375 13.47964096069336 4.31976318359375 C 13.56780052185059 4.31976318359375 13.6395206451416 4.248043060302734 13.6395206451416 4.159883499145508 C 13.6395206451416 4.071723937988281 13.56780052185059 4.000003814697266 13.47964096069336 4.000003814697266 M 12.00308799743652 10.04766082763672 L 11.75174140930176 10.04766368865967 C 11.68749046325684 10.04766368865967 11.62977027893066 10.08600330352783 11.60471153259277 10.1453332901001 L 11.57957077026367 10.20483303070068 L 9.01561164855957 15.32859325408936 C 9.005878448486328 15.34896087646484 9.000513076782227 15.3715705871582 9.000026702880859 15.3941593170166 C 9.001579284667969 15.48098659515381 9.072689056396484 15.55113315582275 9.159881591796875 15.55113315582275 L 9.226352691650391 15.55113315582275 L 11.85433006286621 10.34332370758057 L 11.89073181152344 10.28236389160156 C 11.89465141296387 10.27578353881836 11.89813041687012 10.26887321472168 11.90107154846191 10.26180362701416 L 11.92930030822754 10.19388389587402 L 12.00308799743652 10.04766082763672 M 13.47964096069336 2.000003814697266 C 14.67251110076904 2.000003814697266 15.6395206451416 2.967014312744141 15.6395206451416 4.159883499145508 C 15.6395206451416 5.352752685546875 14.67251110076904 6.31976318359375 13.47964096069336 6.31976318359375 C 12.28677177429199 6.31976318359375 11.31976127624512 5.352752685546875 11.31976127624512 4.159883499145508 C 11.31976127624512 2.967014312744141 12.28677177429199 2.000003814697266 13.47964096069336 2.000003814697266 Z M 21.68718147277832 8.047573089599609 C 22.16438102722168 8.047573089599609 22.55121994018555 8.434423446655273 22.55121994018555 8.911613464355469 C 22.55121994018555 9.388784408569336 22.16450691223145 9.77556324005127 21.68734741210938 9.77556324005127 C 21.68731880187988 9.77556324005127 21.68721008300781 9.77556324005127 21.68718147277832 9.77556324005127 L 21.64163208007812 9.77556324005127 L 14.02130126953125 10.4876537322998 L 13.74794101715088 11.02931308746338 C 13.70802116394043 11.12537384033203 13.66121101379395 11.21842384338379 13.60788059234619 11.3077335357666 L 12.04197120666504 14.41087341308594 L 15.66989135742188 14.95928382873535 C 15.67271137237549 14.9598331451416 15.67552089691162 14.96039390563965 15.67833137512207 14.96096324920654 C 15.97034072875977 14.9742431640625 16.23583984375 15.13425350189209 16.38397216796875 15.38625335693359 C 16.53210067749023 15.63824367523193 16.54278182983398 15.94805335998535 16.41234970092773 16.20964431762695 L 12.95654106140137 23.12126350402832 C 12.74201011657715 23.53769302368164 12.2347354888916 23.70732307434082 11.81285095214844 23.50371360778809 C 11.39098167419434 23.30009269714355 11.20819091796875 22.79740333557129 11.40076065063477 22.3703727722168 L 12.97173118591309 17.55113220214844 L 9.159881591796875 17.55113220214844 C 7.967010498046875 17.55113220214844 7 16.5841236114502 7 15.39125347137451 C 7.000930786132812 15.07120323181152 7.072971343994141 14.75535297393799 7.210920333862305 14.46655368804932 L 7.20924186706543 14.46487331390381 L 9.762380599975586 9.366983413696289 C 10.10021018981934 8.567354202270508 10.88393020629883 8.047662734985352 11.75174140930176 8.047662734985352 L 21.68718147277832 8.047573089599609 Z" stroke="none" fill="#000"/>
  </g>
</svg>
