<?xml version="1.0" encoding="utf-8"?>
<!-- Generator: Adobe Illustrator 25.4.1, SVG Export Plug-In . SVG Version: 6.00 Build 0)  -->
<svg version="1.1" id="Layer_1" xmlns="http://www.w3.org/2000/svg" xmlns:xlink="http://www.w3.org/1999/xlink" x="0px" y="0px"
	 viewBox="0 0 25.1 24" style="enable-background:new 0 0 25.1 24;" xml:space="preserve">
<style type="text/css">
	.st0{fill:none;stroke:#FFFFFF;stroke-width:3;stroke-miterlimit:10;}
</style>
<path class="st0" d="M1.6,4.4c0-1.5,1.2-2.8,2.8-2.8s2.8,1.2,2.8,2.8c0,1.4-2.2,5.2-2.7,6c0,0.1-0.1,0.1-0.2,0
	C3.8,9.5,1.6,5.7,1.6,4.4z"/>
<path class="st0" d="M17.9,15.6c0-1.5,1.2-2.8,2.8-2.8s2.8,1.2,2.8,2.8c0,1.4-2.2,5.2-2.7,6c0,0.1-0.1,0.1-0.2,0
	C20.1,20.8,17.9,17,17.9,15.6z"/>
<circle class="st0" cx="4.7" cy="15" r="0.2"/>
<circle class="st0" cx="9.2" cy="15" r="0.2"/>
<circle class="st0" cx="13.7" cy="15" r="0.2"/>
</svg>
