<svg xmlns="http://www.w3.org/2000/svg" width="17.823" height="16.458" viewBox="0 0 17.823 16.458">
  <g id="icons8-exercise-50" transform="translate(-3 -3)" fill="none">
    <path d="M17.522,3a1.936,1.936,0,1,0,1.936,1.936A1.936,1.936,0,0,0,17.522,3Zm-7.735.849L5.471,6.006l.866,1.732,3.43-1.715,2,1.042-2.2,2.1a2.417,2.417,0,0,0-.62,2.532L3,18.089l1.369,1.369,6.138-6.138,1.917,1.191L9.1,17.8l1.361,1.377,4.6-4.549-2.341-2.952,1.868-1.745,1.522,3.044,4.714-2.116-.794-1.768-3.02,1.358L15.1,6.623Z" stroke="none"/>
    <path d="M 13.58663940429688 8.09092903137207 L 11.60103893280029 9.98457145690918 L 13.60467529296875 8.112756729125977 L 13.59628009796143 8.095965385437012 L 13.58663940429688 8.09092903137207 M 17.52177238464355 3.000003814697266 C 18.59112358093262 3.000003814697266 19.45800399780273 3.86688232421875 19.45800399780273 4.936233520507812 C 19.45800399780273 6.005592346191406 18.59112358093262 6.872472763061523 17.52177238464355 6.872472763061523 C 16.45241355895996 6.872472763061523 15.58553314208984 6.005592346191406 15.58553314208984 4.936233520507812 C 15.58553314208984 3.86688232421875 16.45241355895996 3.000003814697266 17.52177238464355 3.000003814697266 Z M 9.786282539367676 3.848993301391602 L 15.09580326080322 6.622882843017578 L 17.00935363769531 10.44997310638428 L 20.02904319763184 9.09233283996582 L 20.82320404052734 10.86028289794922 L 16.10930252075195 12.97615337371826 L 14.58716297149658 9.931873321533203 L 12.71899318695068 11.67713260650635 L 15.0598726272583 14.62876319885254 L 10.45753288269043 19.17816352844238 L 9.096113204956055 17.80162239074707 L 12.42402267456055 14.51152229309082 L 10.50669288635254 13.32029342651367 L 4.368982315063477 19.45800399780273 L 3.000003814697266 18.08902359008789 L 8.939172744750977 11.6998233795166 C 8.651163101196289 10.84728336334229 8.841333389282227 9.852632522583008 9.559372901916504 9.167972564697266 L 11.7641134262085 7.065342903137207 L 9.767373085021973 6.023483276367188 L 6.337362289428711 7.738483428955078 L 5.471353530883789 6.006462097167969 L 9.786282539367676 3.848993301391602 Z" stroke="none" fill="#000"/>
  </g>
</svg>
