<svg xmlns="http://www.w3.org/2000/svg" width="28.401" height="28.401" viewBox="0 0 28.401 28.401"><defs><style>.a{fill:none;stroke:#fff;stroke-linecap:round;stroke-linejoin:round;stroke-width:3px;}</style></defs><g transform="translate(1.5 1.5)"><path class="a" d="M20.428,16.964A3.464,3.464,0,1,1,16.964,13.5,3.464,3.464,0,0,1,20.428,16.964Z" transform="translate(-4.263 -4.263)"/><path class="a" d="M22.745,17.664a1.905,1.905,0,0,0,.381,2.1l.069.069A2.31,2.31,0,1,1,19.927,23.1l-.069-.069A1.921,1.921,0,0,0,16.6,24.4v.2a2.309,2.309,0,1,1-4.618,0v-.1a1.905,1.905,0,0,0-1.247-1.743,1.905,1.905,0,0,0-2.1.381l-.069.069A2.31,2.31,0,1,1,5.3,19.927l.069-.069A1.921,1.921,0,0,0,4.005,16.6h-.2a2.309,2.309,0,1,1,0-4.618h.1a1.905,1.905,0,0,0,1.743-1.247,1.905,1.905,0,0,0-.381-2.1l-.069-.069A2.31,2.31,0,1,1,8.474,5.3l.069.069a1.905,1.905,0,0,0,2.1.381h.092a1.905,1.905,0,0,0,1.155-1.743v-.2a2.309,2.309,0,1,1,4.618,0v.1a1.921,1.921,0,0,0,3.256,1.362l.069-.069A2.31,2.31,0,1,1,23.1,8.474l-.069.069a1.905,1.905,0,0,0-.381,2.1v.092A1.905,1.905,0,0,0,24.4,11.891h.2a2.309,2.309,0,0,1,0,4.618h-.1a1.905,1.905,0,0,0-1.743,1.155Z" transform="translate(-1.5 -1.5)"/></g></svg>