<svg xmlns="http://www.w3.org/2000/svg" width="18.684" height="11.344" viewBox="0 0 18.684 11.344">
  <g id="icons8-pushups-50" transform="translate(-1 -7)" fill="none">
    <path d="M2.668,7A1.668,1.668,0,1,0,4.336,8.668,1.668,1.668,0,0,0,2.668,7Zm4,2A1.665,1.665,0,0,0,5.11,11.254h0l.97,2.8-1.529,1.8-.018.018a.667.667,0,0,0,.354,1.139H1.667a.667.667,0,1,0,0,1.335H19.016a.667.667,0,1,0,0-1.335.668.668,0,0,0,.392-1.205l0-.005-5.758-3.24a2.26,2.26,0,0,0-1.225-1.422c-.9-.368-5.157-2.023-5.157-2.023h0A1.668,1.668,0,0,0,6.672,9Zm1,3.567,4.19,1.6,6.673,2.689.193.091a.668.668,0,0,0,.258.064H5.105a.667.667,0,0,0,.37-.2l.013-.013.008.005.1-.111,1.883-1.883a.667.667,0,0,0,.2-.472Z" stroke="none"/>
    <path d="M 19.01363945007324 17.83139610290527 L 18.98883247375488 19.00867080688477 C 18.99793815612793 19.00885581970215 19.00704574584961 19.00894927978516 19.01619529724121 19.00894927978516 L 19.01363945007324 17.83139610290527 M 2.668134689331055 6.999998092651367 C 3.589433670043945 6.999998092651367 4.3363037109375 7.746868133544922 4.3363037109375 8.668169021606445 C 4.3363037109375 9.589478492736816 3.589445114135742 10.33633804321289 2.668134689331055 10.33633804321289 C 1.746833801269531 10.33633804321289 0.9999637603759766 9.589478492736816 0.9999637603759766 8.668169021606445 C 0.9999637603759766 7.746868133544922 1.746833801269531 6.999998092651367 2.668134689331055 6.999998092651367 Z M 6.671744346618652 9.001808166503906 C 6.87684440612793 9.002418518066406 7.080074310302734 9.040857315063477 7.271245002746582 9.115188598632812 L 7.272544860839844 9.113887786865234 C 7.272544860839844 9.113887786865234 11.53072452545166 10.76887798309326 12.42953491210938 11.1365385055542 C 13.39240455627441 11.53022861480713 13.65459442138672 12.55839824676514 13.65459442138672 12.55839824676514 L 19.41238403320312 15.79828834533691 L 19.40847396850586 15.80349826812744 C 19.64057540893555 15.97400856018066 19.73714447021484 16.27414703369141 19.64802551269531 16.54800796508789 C 19.55890464782715 16.82186889648438 19.30418395996094 17.00769805908203 19.01619529724121 17.00894927978516 C 19.3847541809082 17.00894927978516 19.68352508544922 17.3077278137207 19.68352508544922 17.67627716064453 C 19.68352508544922 18.04482650756836 19.38485336303711 18.34354782104492 19.01632308959961 18.34354782104492 C 19.01630210876465 18.34354782104492 19.01621627807617 18.34354782104492 19.01619529724121 18.34354782104492 L 1.667234420776367 18.34361839294434 C 1.298673629760742 18.34361839294434 0.9999046325683594 18.04484939575195 0.9999046325683594 17.67627716064453 C 0.9999046325683594 17.3077507019043 1.298576354980469 17.00901794433594 1.667104721069336 17.00901794433594 C 1.66712760925293 17.00901794433594 1.667211532592773 17.00901794433594 1.667234420776367 17.00901794433594 L 4.886284828186035 17.00901794433594 C 4.637205123901367 16.96796798706055 4.432615280151367 16.78989791870117 4.357595443725586 16.54886817932129 C 4.282585144042969 16.30782699584961 4.349994659423828 16.04510879516602 4.531795501708984 15.86996841430664 L 4.55003547668457 15.85172843933105 L 6.078764915466309 14.0558385848999 L 5.109134674072266 11.2551383972168 L 5.110445022583008 11.25383853912354 C 5.040205001831055 11.06716823577881 5.00400447845459 10.86941814422607 5.003574371337891 10.66997814178467 C 5.003574371337891 9.748668670654297 5.750434875488281 9.001808166503906 6.671744346618652 9.001808166503906 Z M 18.98882484436035 17.00901794433594 C 18.89940452575684 17.0052490234375 18.8116455078125 16.98352813720703 18.73077392578125 16.94515800476074 L 18.53789520263672 16.85392761230469 L 11.86522483825684 14.16530799865723 L 7.675254821777344 12.56881809234619 L 7.67264461517334 14.3399486541748 C 7.672614097595215 14.5168981552124 7.602294921875 14.68660831451416 7.477154731750488 14.81172847747803 L 5.593944549560547 16.69492721557617 L 5.496204376220703 16.80570793151855 L 5.488384246826172 16.80049896240234 L 5.475354194641113 16.81352806091309 C 5.376134872436523 16.91669845581055 5.246374130249023 16.9852294921875 5.105224609375 17.00901794433594 L 18.98882484436035 17.00901794433594 Z" stroke="none" fill="#000"/>
  </g>
</svg>
