<?xml version="1.0" encoding="utf-8"?>
<!-- Generator: Adobe Illustrator 25.4.1, SVG Export Plug-In . SVG Version: 6.00 Build 0)  -->
<svg version="1.1" id="Layer_1" xmlns="http://www.w3.org/2000/svg" xmlns:xlink="http://www.w3.org/1999/xlink" x="0px" y="0px"
	 viewBox="0 0 19.7 25.3" style="enable-background:new 0 0 19.7 25.3;" xml:space="preserve">
<style type="text/css">
	.st0{fill:none;stroke:#000000;stroke-width:3;}
</style>
<path class="st0" d="M9.6,1.5C5,1.8,1.4,5.6,1.5,10.2v11.5c0,0.4,0.3,0.7,0.7,0.7c0.2,0,0.4-0.1,0.5-0.2l1.1-0.8
	c0.3-0.2,0.7-0.2,0.9,0.1l1.9,2.1c0.3,0.3,0.7,0.3,1,0l1.8-2c0.3-0.3,0.7-0.3,1-0.1c0,0,0,0,0.1,0.1l1.8,2c0.3,0.3,0.7,0.3,1,0
	l1.9-2.1c0.2-0.3,0.6-0.3,0.9-0.1l1.1,0.8c0.3,0.3,0.7,0.3,1,0c0.1-0.1,0.2-0.3,0.2-0.5V9.9c0-4.6-3.7-8.4-8.3-8.4
	C9.8,1.5,9.7,1.5,9.6,1.5z M7.1,11.2c-0.8,0-1.4-0.6-1.4-1.4s0.6-1.4,1.4-1.4s1.4,0.6,1.4,1.4S7.8,11.2,7.1,11.2L7.1,11.2z
	 M12.6,11.2c-0.8,0-1.4-0.6-1.4-1.4c0-0.8,0.6-1.4,1.4-1.4c0.8,0,1.4,0.6,1.4,1.4S13.4,11.2,12.6,11.2L12.6,11.2z"/>
</svg>
