<svg xmlns="http://www.w3.org/2000/svg" width="26.638" height="24.906" viewBox="0 0 26.638 24.906"><defs><style>.a{fill:#fff;stroke:#fff;opacity:0.5;}</style></defs><path class="a" d="M87.113,702.07l-3.64-5.97-1.07-1.76a8.089,8.089,0,0,0-11.09-2.7,8.147,8.147,0,0,0-2.67,2.65l-1.16,1.87-3.6,5.83a8.075,8.075,0,0,0,2.61,11.11,7.987,7.987,0,0,0,4.22,1.21l9.48.04h.03a8.077,8.077,0,0,0,6.89-12.28Zm-15.91-6.2a4.912,4.912,0,0,1,1.67-1.66,5.065,5.065,0,0,1,6.97,1.69l.56.92c-.44,1.37-2.54,2.48-4.92,2.48-2.33,0-4.42-1.08-4.9-2.42Zm9.02,15.48H80.2l-9.47-.04a5.011,5.011,0,0,1-2.66-.76,5.073,5.073,0,0,1-1.64-6.98l2.41-3.88.01-.03a8.3,8.3,0,0,0,4.23,2.37,10.8,10.8,0,0,0,4.8,0,8.3,8.3,0,0,0,4.24-2.38l.02.02,2.41,3.96a5.08,5.08,0,0,1-4.33,7.72Z" transform="translate(-62.155 -689.944)"/></svg>