<svg fill="#000000" xmlns="http://www.w3.org/2000/svg"  viewBox="0 0 30 30" width="50px" height="50px"><path d="M 8.9804688 3.0117188 A 2.5 2.5 0 1 0 8.9804688 8.0117188 A 2.5 2.5 0 1 0 8.9804688 3.0117188 z M 22 7 C 20.904872 7 20.03596 7.3026779 19.349609 7.6777344 C 18.663259 8.0527908 18.146134 8.456555 17.523438 8.78125 A 1.0002691 1.0002691 0 1 0 18.449219 10.554688 C 19.249522 10.137382 19.808194 9.7070373 20.308594 9.4335938 C 20.808993 9.1601501 21.237128 9 22 9 C 22.570191 9 23.126734 9.3340442 23.900391 9.8378906 C 24.674047 10.341737 25.666667 11 27 11 A 1.0001 1.0001 0 1 0 27 9 C 26.333333 9 25.75403 8.6582629 24.992188 8.1621094 C 24.230344 7.6659558 23.287809 7 22 7 z M 5.9804688 8.0117188 A 2.5 2.5 0 0 0 3.546875 9.9453125 L 2.1015625 14.787109 L 2.1054688 14.789062 A 2.5 2.5 0 0 0 2.671875 17.205078 L 2.6679688 17.207031 L 2.7753906 17.308594 A 2.5 2.5 0 0 0 2.8300781 17.359375 L 5.84375 20.199219 L 3.2128906 24.384766 A 1 1 0 0 0 4 26 A 1 1 0 0 0 4.8769531 25.476562 L 8.6289062 20.486328 A 1.5 1.5 0 0 0 8.7246094 18.634766 L 8.7246094 18.630859 L 6.96875 15.972656 L 8.0957031 12.119141 L 11.0625 12.949219 A 1.0001 1.0001 0 0 0 11.710938 12.962891 L 14.839844 11.962891 A 1.0001 1.0001 0 1 0 14.232422 10.058594 L 11.533203 10.919922 L 7.4023438 8.4453125 A 1.0001 1.0001 0 0 0 7.3027344 8.3925781 A 2.5 2.5 0 0 0 5.9804688 8.0117188 z M 9.8378906 13.931641 L 9.21875 14.039062 L 8.6796875 15.607422 L 11.591797 16.912109 C 11.724797 16.972109 11.863 17 12 17 C 12.382 17 12.748063 16.779203 12.914062 16.408203 C 13.138063 15.903203 12.912203 15.312891 12.408203 15.087891 L 9.8378906 13.931641 z M 16 15 A 1.0001 1.0001 0 1 0 16 17 C 17.666667 17 18.957068 17.839567 20.601562 18.851562 C 22.246057 19.863559 24.233333 21 27 21 A 1.0001 1.0001 0 1 0 27 19 C 24.766667 19 23.253943 18.136441 21.648438 17.148438 C 20.042932 16.160433 18.333333 15 16 15 z M 9.4023438 22.005859 L 7.7226562 24.167969 L 8.015625 25.173828 A 1 1 0 0 0 9 26 A 1 1 0 0 0 9.9746094 24.769531 L 9.4023438 22.005859 z"/></svg>