<?xml version="1.0"?><svg fill="#000000" xmlns="http://www.w3.org/2000/svg"  viewBox="0 0 30 30" width="50px" height="50px">    <path d="M 6 5 C 4.343 5 3 6.343 3 8 C 3 9.656 4.343 11 6 11 C 6.8359674 11 7.5907755 10.657117 8.1347656 10.105469 L 10 10.726562 L 7.5078125 12.398438 L 7.5039062 12.414062 C 6.6087705 12.932924 6 13.889982 6 15 C 6 15.544816 6.1560716 16.049708 6.4101562 16.490234 L 6.40625 16.507812 L 10.337891 23.382812 L 10.353516 23.384766 C 10.855048 24.340799 11.845349 25 13 25 C 13.885905 25 14.673518 24.608681 15.222656 23.998047 L 15.236328 24 L 19.169922 19.224609 L 24.175781 24.568359 L 24.177734 24.570312 A 1.0006883 1.0006883 0 0 0 25.035156 25 A 1.0006883 1.0006883 0 0 0 25.822266 23.429688 L 20.570312 15.861328 C 19.959189 14.981507 18.751423 14.807272 17.894531 15.341797 L 17.888672 15.333984 L 17.822266 15.382812 C 17.771685 15.417534 17.723346 15.454133 17.675781 15.494141 L 14.335938 18 L 11.644531 13.585938 L 13.746094 10.667969 L 13.78125 10.625 A 1.0001 1.0001 0 0 0 13.857422 10.513672 A 1.0001 1.0001 0 0 0 13.859375 10.511719 A 1.0001 1.0001 0 0 0 13.242188 9.0292969 L 8.9960938 7.96875 C 8.9788769 6.3265449 7.6462832 5 6 5 z M 25.035156 25 L 13 25 L 4 25 A 1.0001 1.0001 0 1 0 4 27 L 26 27 A 1.0001 1.0001 0 1 0 26 25 L 25.035156 25 z"/></svg>