<svg fill="#000000" xmlns="http://www.w3.org/2000/svg"  viewBox="0 0 30 30" width="50px" height="50px"><path d="M 8.5 2 A 2.5 2.5 0 0 0 6 4.5 A 2.5 2.5 0 0 0 8.5 7 A 2.5 2.5 0 0 0 11 4.5 A 2.5 2.5 0 0 0 8.5 2 z M 16.984375 7.9863281 A 1.0001 1.0001 0 0 0 16 9 L 16 10.716797 A 1.0001 1.0001 0 0 0 14.490234 10.140625 L 14.335938 10.232422 L 11.873047 11.359375 L 8.3925781 8.5644531 A 2 2 0 0 0 7 8 A 2 2 0 0 0 5 10 L 5 16 A 2 2 0 0 0 7 18 L 10.84375 18 L 12.615234 20.462891 L 12.882812 21 L 12 21 A 1.0001 1.0001 0 1 0 12 23 L 15.837891 23 L 19.001953 24.056641 A 3 3 0 0 0 19.175781 25 L 7 25 L 6 25 A 1.0001 1.0001 0 1 0 6 27 L 22 27 A 1.0001 1.0001 0 0 0 22.115234 26.994141 A 3 3 0 0 0 25 24 A 3 3 0 0 0 22 21 A 3 3 0 0 0 21.943359 21.003906 L 19.935547 15.648438 A 1.0001 1.0001 0 0 0 19.832031 15.445312 L 18 12.697266 L 18 9 A 1.0001 1.0001 0 0 0 16.984375 7.9863281 z M 7 25 C 7.552 25 8 24.553 8 24 L 8.15625 20 L 7 20 C 6.594 20 6.2098437 19.921594 5.8398438 19.808594 L 6 24 C 6 24.553 6.448 25 7 25 z M 16 11.244141 L 16 13 A 1.0001 1.0001 0 0 0 16.167969 13.554688 L 18.103516 16.458984 L 20.070312 21.701172 A 3 3 0 0 0 19.634766 22.158203 L 16.162109 21 L 15 21 A 1.0001163 1.0001163 0 0 0 14.894531 20.552734 L 12.894531 16.552734 A 1.0001 1.0001 0 0 0 12.205078 16.021484 L 9 15 L 9 12.535156 L 11 13.779297 A 1.0001 1.0001 0 0 0 12.136719 13.859375 L 15.509766 11.859375 A 1.0001 1.0001 0 0 0 16 11.244141 z"/></svg>