<?xml version="1.0"?><svg fill="#000000" xmlns="http://www.w3.org/2000/svg"  viewBox="0 0 30 30" width="50px" height="50px">    <path d="M 15.5 3 A 2.5 2.5 0 0 0 13 5.5 A 2.5 2.5 0 0 0 15.5 8 A 2.5 2.5 0 0 0 18 5.5 A 2.5 2.5 0 0 0 15.5 3 z M 21.908203 6.6992188 L 18.878906 9.7304688 L 20.847656 11.699219 L 23.876953 8.6679688 L 21.908203 6.6992188 z M 14.5 10 A 2.5 2.5 0 0 0 12.564453 10.919922 L 8.8496094 14.625 A 2.5 2.5 0 0 0 8.5878906 14.888672 L 7.7421875 15.730469 L 3.3203125 17.050781 C 3.3176854 17.051445 3.3151221 17.052058 3.3125 17.052734 L 3.1523438 17.101562 L 3.15625 17.113281 C 2.342679 17.414183 1.8153517 18.316723 2.0664062 19.199219 A 1.0001 1.0001 0 0 0 2.0664062 19.201172 L 3.8027344 25.275391 A 1.0001 1.0001 0 0 0 5.7539062 24.832031 L 5.7636719 24.863281 L 4.9648438 19 L 10 19 L 10.5 19 A 2.5 2.5 0 0 0 12.162109 18.365234 L 12.169922 18.361328 L 16.076172 14.796875 L 20.140625 16.501953 L 20.148438 16.492188 A 1.0001 1.0001 0 0 0 21.384766 16.351562 L 24.919922 12.816406 A 1.0001 1.0001 0 1 0 23.525391 11.382812 L 23.523438 11.384766 L 20.576172 13.833984 L 16.441406 10.833984 L 16.101562 10.552734 A 1.0001 1.0001 0 0 0 15.833984 10.390625 A 2.5 2.5 0 0 0 15.802734 10.371094 L 15.78125 10.355469 L 15.779297 10.355469 A 2.5 2.5 0 0 0 14.5 10 z M 27.509766 12.339844 L 24.480469 15.371094 L 26.449219 17.339844 L 29.480469 14.310547 L 27.509766 12.339844 z M 16.783203 17.134766 L 12.138672 21 L 7 21 L 7.3769531 23 L 12.5 23 C 12.733 23 12.960625 22.918531 13.140625 22.769531 L 18.869141 18 L 16.783203 17.134766 z"/></svg>