<svg fill="#000000" xmlns="http://www.w3.org/2000/svg"  viewBox="0 0 30 30" width="50px" height="50px"><path d="M 15 2 C 13.343 2 12 3.343 12 5 C 12 6.657 13.343 8 15 8 C 16.657 8 18 6.657 18 5 C 18 3.343 16.657 2 15 2 z M 15 10 C 12.790829 10 10.918963 11.674694 10.675781 13.871094 L 10.216797 18 L 7 18 L 7 15 C 7 14.448 6.552 14 6 14 C 5.448 14 5 14.448 5 15 L 4 15 C 3.448 15 3 15.448 3 16 L 3 18 L 2 18 A 1.0001 1.0001 0 1 0 2 20 L 3 20 L 3 22 C 3 22.552 3.448 23 4 23 L 5 23 C 5 23.552 5.448 24 6 24 C 6.552 24 7 23.552 7 23 L 7 20 L 10 20 A 1.0003551 1.0003551 0 0 0 11.763672 20.644531 L 11 25.966797 C 11 26.536797 11.463203 27 12.033203 27 C 12.577203 27 13.028453 26.578156 13.064453 26.035156 L 14.501953 20.464844 C 14.519953 20.203844 14.737 20 15 20 C 15.263 20 15.480047 20.204797 15.498047 20.466797 L 16.935547 26.035156 C 16.971547 26.577156 17.422797 27 17.966797 27 C 18.536797 27 19 26.536797 19 25.966797 L 18.236328 20.644531 A 1.0003551 1.0003551 0 0 0 20 20 L 23 20 L 23 23 C 23 23.552 23.448 24 24 24 C 24.552 24 25 23.552 25 23 L 26 23 C 26.552 23 27 22.552 27 22 L 27 20 L 28 20 A 1.0001 1.0001 0 1 0 28 18 L 27 18 L 27 16 C 27 15.448 26.552 15 26 15 L 25 15 C 25 14.448 24.552 14 24 14 C 23.448 14 23 14.448 23 15 L 23 18 L 19.783203 18 L 19.324219 13.871094 C 19.081037 11.674694 17.209171 10 15 10 z"/></svg>