<?xml version="1.0"?><svg fill="#000000" xmlns="http://www.w3.org/2000/svg"  viewBox="0 0 30 30" width="50px" height="50px">    <path d="M 14.5 2 A 2.5 2.5 0 0 0 12 4.5 A 2.5 2.5 0 0 0 14.5 7 A 2.5 2.5 0 0 0 17 4.5 A 2.5 2.5 0 0 0 14.5 2 z M 8.828125 8 A 1.0001 1.0001 0 0 0 8.2519531 8.1835938 L 5.421875 10.183594 A 1.0003736 1.0003736 0 1 0 6.578125 11.816406 L 9.1464844 10 L 10.451172 10 L 9.1582031 13.226562 A 2 2 0 0 0 9 14 A 2 2 0 0 0 9.9453125 15.697266 L 9.9453125 15.699219 L 13.087891 17.705078 L 11.910156 22.025391 L 11.865234 22.144531 A 1.0001 1.0001 0 1 0 13.734375 22.855469 L 15.634766 17.855469 A 1.0001 1.0001 0 0 0 15.394531 16.78125 L 13.177734 13.927734 L 14.386719 11.679688 L 15.25 12.660156 A 1.0001 1.0001 0 0 0 16 13 L 19 13 A 1.0001 1.0001 0 1 0 19 11 L 16.451172 11 L 14.789062 9.1132812 A 2 2 0 0 0 13.050781 8.0019531 A 1.0001 1.0001 0 0 0 13 8 L 8.828125 8 z M 25.966797 9 A 1.0001 1.0001 0 0 0 25.292969 9.2929688 L 22.292969 12.292969 A 1.0001 1.0001 0 1 0 23.707031 13.707031 L 24.371094 13.042969 L 22.369141 23.058594 L 5 24 A 2 2 0 0 0 3 26 A 2 2 0 0 0 5 28 L 23.5 28 A 2.5 2.5 0 0 0 26 25.5 A 2.5 2.5 0 0 0 24.386719 23.164062 L 26.980469 10.195312 A 1.0001 1.0001 0 0 0 25.966797 9 z M 8.1992188 16.896484 L 7.90625 17.689453 L 4 18 C 3.448 18 3 18.448 3 19 C 3 19.552 3.448 20 4 20 L 8.7929688 20 C 9.1619687 20 9.4430781 19.789563 9.7050781 19.476562 L 10.591797 18.423828 L 8.1992188 16.896484 z"/></svg>