<?xml version="1.0"?><svg fill="#000000" xmlns="http://www.w3.org/2000/svg"  viewBox="0 0 30 30" width="50px" height="50px">    <path d="M 13.5 3 A 2.5 2.5 0 0 0 11 5.5 A 2.5 2.5 0 0 0 13.5 8 A 2.5 2.5 0 0 0 16 5.5 A 2.5 2.5 0 0 0 13.5 3 z M 13.5 10 A 2.5 2.5 0 0 0 11 12.5 L 11 18.5 A 2.5 2.5 0 0 0 13.5 21 A 2.5 2.5 0 0 0 14.642578 20.724609 L 18.097656 19.707031 L 20.072266 23.371094 A 1.0001 1.0001 0 1 0 21.927734 22.628906 L 19.927734 17.628906 A 1.0001 1.0001 0 0 0 18.990234 17 L 16 17.001953 L 16 13 L 23.087891 11.996094 A 1.0001 1.0001 0 0 0 23 10 L 13.5 10 z M 10.580078 21.896484 L 10.394531 22.707031 L 6.3984375 25.226562 C 6.0344375 25.510562 5.8915625 26.003547 6.1015625 26.435547 C 6.2735625 26.792547 6.6309531 27 7.0019531 27 C 7.1479531 27 7.2965 26.967437 7.4375 26.898438 L 12.4375 24.470703 C 12.6405 24.372703 12.804344 24.208859 12.902344 24.005859 L 13.390625 22.988281 C 12.314625 22.963281 11.342078 22.552484 10.580078 21.896484 z M 22 24 C 20.343 24 19 25.343 19 27 L 25 27 C 25 25.343 23.657 24 22 24 z"/></svg>