<svg xmlns="http://www.w3.org/2000/svg" width="11.013" height="10.18" viewBox="0 0 11.013 10.18">
  <path id="Tracé_32387" data-name="Tracé 32387" d="M10.542,5.308,8.3,1.638A3.307,3.307,0,0,0,5.7,0,3.22,3.22,0,0,0,2.784,1.517L.536,5.148a3.325,3.325,0,0,0,0,3.613,3.215,3.215,0,0,0,2.643,1.4l4.62.017a3.2,3.2,0,0,0,2.747-4.872m-3.186.353a1.221,1.221,0,0,1-1.227.015,1.248,1.248,0,0,0-1.148-.027l-.116.058a1.213,1.213,0,0,1-1.078.011,1.371,1.371,0,0,1-.454-.377,1.187,1.187,0,0,1,0-1.417L4.321,2.5a1.5,1.5,0,0,1,2.428.047l.985,1.439a1.172,1.172,0,0,1-.378,1.675" transform="translate(0 0)" fill="#3e73e8"/>
</svg>
