<?xml version="1.0" encoding="utf-8"?>
<!-- Generator: Adobe Illustrator 23.0.1, SVG Export Plug-In . SVG Version: 6.00 Build 0)  -->
<svg version="1.1" id="Calque_1" xmlns="http://www.w3.org/2000/svg" xmlns:xlink="http://www.w3.org/1999/xlink" x="0px" y="0px"
	 viewBox="0 0 37.7 60.1" style="enable-background:new 0 0 37.7 60.1;" xml:space="preserve">
<style type="text/css">
	.st0{fill:#FFFFFF;}
</style>
<path id="Tracé_32398" class="st0" d="M0,42v-1.6c0-0.1,0-0.2,0.1-0.3c0.1-0.6,0.1-1.2,0.2-1.8c0.6-3.6,2.2-6.9,4.6-9.7
	c2.6-3.1,6.2-5.2,10.2-5.9c0.4-0.1,0.8-0.1,1.3-0.2v-7.4c-0.1,0.1-0.2,0.1-0.3,0.1l-5.7,3.3c-0.4,0.2-0.4,0.2-0.7-0.2
	C9,17.4,8.5,16.6,8,15.7c-0.2-0.4-0.5-0.9-0.7-1.3c-0.1-0.2-0.1-0.4,0.2-0.6c1.6-0.9,3.3-1.9,4.9-2.8c0.3-0.2,0.6-0.3,0.9-0.5
	c-0.2-0.1-0.3-0.2-0.5-0.3C11,9.1,9.2,8,7.4,7C7.2,6.9,7.1,6.7,7.3,6.5C8,5.3,8.7,4.1,9.4,2.8c0.1-0.2,0.3-0.4,0.4-0.6l6.4,3.7V0
	h5.1v5.9l6.5-3.7l2.8,4.7l-6.2,3.6l6.2,3.6l-2.7,4.7L21.4,15v7.4l1,0.2c3.3,0.6,6.4,2.2,9,4.4c3.6,3.2,5.9,7.8,6.2,12.6
	c0.3,2.6-0.1,5.2-0.9,7.7c-1.2,3.4-3.3,6.4-6.1,8.6c-2.5,2.1-5.5,3.4-8.8,3.9c-0.6,0.1-1.2,0.2-1.8,0.2h-2.1
	c-0.6-0.1-1.1-0.1-1.7-0.2c-3.5-0.5-6.7-1.9-9.4-4.2c-3.7-3-6.1-7.3-6.6-12C0.1,43.2,0.1,42.6,0,42 M18.8,27.6
	c-7.5,0-13.7,6.1-13.7,13.6c0,7.5,6.1,13.7,13.6,13.7c7.5,0,13.7-6.1,13.7-13.6c0-0.2,0-0.3,0-0.5C32.2,33.4,26.2,27.5,18.8,27.6"/>
</svg>
