<svg xmlns="http://www.w3.org/2000/svg" width="37.665" height="60.13" viewBox="0 0 37.665 60.13">
  <path id="Tracé_32398" data-name="Tracé 32398" d="M0,42.038V40.394c.017-.105.039-.21.052-.315.067-.612.1-1.23.2-1.836a19.29,19.29,0,0,1,4.562-9.661,17.177,17.177,0,0,1,10.169-5.9c.419-.074.843-.122,1.255-.181V15.058c-.1.054-.18.092-.253.134l-5.739,3.314c-.41.237-.424.248-.677-.171-.536-.887-1.059-1.782-1.579-2.678-.245-.423-.469-.857-.7-1.288-.13-.241-.112-.4.167-.56,1.631-.928,3.25-1.878,4.872-2.823.283-.165.56-.341.887-.541-.195-.122-.338-.218-.486-.305C10.956,9.092,9.182,8.039,7.4,7c-.248-.144-.266-.268-.127-.5C8,5.28,8.709,4.054,9.428,2.831c.122-.209.256-.41.4-.641l6.4,3.655V0h5.109V5.865l6.473-3.688,2.762,4.684L24.36,10.448l6.158,3.609-2.665,4.709-6.494-3.735v7.419l1.022.206a18.331,18.331,0,0,1,8.953,4.433,18.941,18.941,0,0,1,6.247,12.6,18.138,18.138,0,0,1-.923,7.72A18.731,18.731,0,0,1,30.549,56a18.1,18.1,0,0,1-8.759,3.9c-.608.093-1.221.153-1.831.228H17.9c-.561-.064-1.125-.111-1.684-.2a19,19,0,0,1-9.444-4.181,18.136,18.136,0,0,1-6.6-12.03C.1,43.163.057,42.6,0,42.038m18.805-14.48a13.652,13.652,0,1,0,13.6,13.207,13.512,13.512,0,0,0-13.6-13.207"/>
</svg>
