<svg xmlns="http://www.w3.org/2000/svg" width="28.697" height="17.615" viewBox="0 0 28.697 17.615"><defs><style>.a{fill:#fff;stroke:#fff;stroke-width:0.5px;opacity:0.5;}</style></defs><path class="a" d="M30.1,16.131a3.772,3.772,0,0,0-.981-3.771c-1.348-1.348-3.163-1.481-4.806-1.808a7.847,7.847,0,0,1-4.181-1.787L15.635,4.273a2.781,2.781,0,0,0-1.059-.644,2.639,2.639,0,0,0-2.535.644A2.77,2.77,0,0,0,11.4,5.33a2.664,2.664,0,0,0,.41,2.093c-.158.032-.252.163-.432.172a6.353,6.353,0,0,1-2.19-.372,13.345,13.345,0,0,1-2.15-1.013A1.712,1.712,0,0,0,4.7,6.865c-.949,1.706-2.341,4.425-2.5,6A15.1,15.1,0,0,0,2.2,16.218a3.878,3.878,0,0,0,.981,2.565c1.7,1.7,4.094,1.855,5.936,1.713a12.476,12.476,0,0,0,2.989-.574c4.038-.161,6.816.489,9.41.655a9.156,9.156,0,0,0,7.595-2.824A4.381,4.381,0,0,0,30.1,16.131ZM21.68,18.04a65.976,65.976,0,0,0-9.69-.658l-.18.005-.17.057a12.741,12.741,0,0,1-2.711.519,5.185,5.185,0,0,1-3.945-.977c.159.158-.161-.343-.255-1.089a12.749,12.749,0,0,1,0-2.776A10.692,10.692,0,0,1,6.11,8.8a.243.243,0,0,1,.336-.075,7.7,7.7,0,0,0,1.936.911,8.6,8.6,0,0,0,3.117.5,4.86,4.86,0,0,0,3.238-1.367l.9-.9,1.8,1.8-.9.9a1.268,1.268,0,0,0,0,1.8h0a1.272,1.272,0,0,0,1.8,0l.989-.989a7.864,7.864,0,0,0,1.134.663l-.327.327a1.268,1.268,0,1,0,1.793,1.793L23.179,12.9c.21.046.431.1.632.14,1.727.346,3.058.663,3.506,1.113.6.6.484.818.367,1.17a1.978,1.978,0,0,1-.367.627A6.05,6.05,0,0,1,21.68,18.04Z" transform="translate(-1.856 -3.235)"/></svg>