<?xml version="1.0" encoding="utf-8"?>
<!-- Generator: Adobe Illustrator 25.4.1, SVG Export Plug-In . SVG Version: 6.00 Build 0)  -->
<svg version="1.1" id="Layer_1" xmlns="http://www.w3.org/2000/svg" xmlns:xlink="http://www.w3.org/1999/xlink" x="0px" y="0px"
	 viewBox="0 0 25.4 22.9" style="enable-background:new 0 0 25.4 22.9;" xml:space="preserve">
<style type="text/css">
	.st0{fill:none;stroke:#000000;stroke-width:2.9504;}
	.st1{fill:none;stroke:#000000;stroke-width:1.4022;}
</style>
<g>
	<path d="M15.6,2.7c0.7,0,1.3,0.6,1.3,1.3v0.7c0,0.8,0.6,1.4,1.4,1.4h3c0.7,0,1.2,0.5,1.2,1.2v11.7c0,0.7-0.5,1.2-1.2,1.2H4.2
		c-0.7,0-1.2-0.5-1.2-1.2V7.4c0-0.7,0.5-1.2,1.2-1.2h2.7c0.8,0,1.4-0.6,1.4-1.4V4c0-0.7,0.6-1.3,1.3-1.3H15.6 M15.6,0.1h-6
		c-2,0-3.7,1.5-3.9,3.5H4.2c-2.1,0-3.8,1.7-3.8,3.8v11.7c0,2.1,1.7,3.8,3.8,3.8h17.2c2.1,0,3.8-1.7,3.8-3.8V7.4
		c0-2.1-1.7-3.8-3.8-3.8h-1.8C19.3,1.6,17.6,0.1,15.6,0.1L15.6,0.1z"/>
</g>
<circle class="st0" cx="12.7" cy="13" r="4"/>
<circle class="st1" cx="20" cy="8.8" r="0.6"/>
</svg>
