<svg xmlns="http://www.w3.org/2000/svg" width="30" height="27" viewBox="0 0 30 27">
  <path id="Icon_material-monochrome-photos" data-name="Icon material-monochrome-photos" d="M30,7.5H25.2l-2.7-3h-9l-2.7,3H6a3.009,3.009,0,0,0-3,3v18a3.009,3.009,0,0,0,3,3H30a3.009,3.009,0,0,0,3-3v-18A3.009,3.009,0,0,0,30,7.5Zm0,21H18V27a7.5,7.5,0,0,1,0-15V10.5H30Zm-4.5-9A7.427,7.427,0,0,0,18,12v2.7a4.8,4.8,0,0,1,0,9.6V27A7.427,7.427,0,0,0,25.5,19.5Zm-12.3,0A4.739,4.739,0,0,0,18,24.3V14.7A4.739,4.739,0,0,0,13.2,19.5Z" transform="translate(-3 -4.5)" fill="#2a2a2c"/>
</svg>
