<svg xmlns="http://www.w3.org/2000/svg" width="22.507" height="32.746" viewBox="0 0 22.507 32.746"><path d="M13.083,0A12.392,12.392,0,0,0,2.076,5.822a1.537,1.537,0,0,0,.331,2.1l2.759,2.092a1.535,1.535,0,0,0,2.127-.265c1.6-2.007,2.79-3.163,5.293-3.163,1.968,0,4.4,1.266,4.4,3.174,0,1.442-1.191,2.183-3.133,3.272-2.266,1.27-5.264,2.851-5.264,6.805v.626A1.535,1.535,0,0,0,10.125,22H14.76a1.535,1.535,0,0,0,1.535-1.535V20.1c0-2.741,8.012-2.855,8.012-10.273C24.307,4.238,18.512,0,13.083,0Zm-.641,23.885a4.43,4.43,0,1,0,4.43,4.43A4.435,4.435,0,0,0,12.442,23.885Z" transform="translate(-1.8)"/></svg>