<?xml version="1.0" encoding="utf-8"?>
<!-- Generator: Adobe Illustrator 25.4.1, SVG Export Plug-In . SVG Version: 6.00 Build 0)  -->
<svg version="1.1" id="Layer_1" xmlns="http://www.w3.org/2000/svg" xmlns:xlink="http://www.w3.org/1999/xlink" x="0px" y="0px"
	 viewBox="0 0 28.4 28.4" style="enable-background:new 0 0 28.4 28.4;" xml:space="preserve">
<style type="text/css">
	.st0{fill:none;stroke:#000000;stroke-width:3;stroke-linecap:round;stroke-linejoin:round;}
</style>
<g transform="translate(1.5 1.5)">
	<path class="st0" d="M16.2,12.7c0,1.9-1.6,3.5-3.5,3.5s-3.5-1.6-3.5-3.5s1.6-3.5,3.5-3.5l0,0C14.6,9.2,16.2,10.8,16.2,12.7z"/>
	<path class="st0" d="M21.2,16.2c-0.3,0.7-0.2,1.5,0.4,2.1l0.1,0.1c0.9,0.9,0.9,2.4,0,3.3c-0.9,0.9-2.4,0.9-3.3,0l-0.1-0.1
		c-0.8-0.7-2-0.7-2.7,0c-0.3,0.4-0.5,0.8-0.5,1.3v0.2c0,1.3-1,2.3-2.3,2.3s-2.3-1-2.3-2.3l0,0V23c0-0.8-0.5-1.5-1.2-1.7
		c-0.7-0.3-1.5-0.2-2.1,0.4l-0.1,0.1c-0.9,0.9-2.4,0.9-3.3,0c-0.9-0.9-0.9-2.4,0-3.3l0.1-0.1c0.7-0.8,0.7-2,0-2.7
		c-0.4-0.3-0.8-0.5-1.3-0.5H2.3c-1.3,0-2.3-1-2.3-2.3s1-2.3,2.3-2.3h0.1c0.8,0,1.5-0.5,1.7-1.2c0.3-0.7,0.2-1.5-0.4-2.1L3.7,7.1
		c-0.9-0.9-0.9-2.4,0-3.3s2.4-0.9,3.3,0L7,3.9c0.6,0.5,1.4,0.7,2.1,0.4h0.1c0.7-0.3,1.2-1,1.2-1.7V2.3c0-1.3,1-2.3,2.3-2.3
		S15,1,15,2.3v0.1c0,1.1,0.9,1.9,1.9,1.9c0.5,0,1-0.2,1.3-0.5l0.1-0.1c0.9-0.9,2.4-0.9,3.3,0s0.9,2.4,0,3.3l0,0L21.5,7
		c-0.5,0.6-0.7,1.4-0.4,2.1v0.1c0.3,0.7,1,1.2,1.8,1.2h0.2c1.3,0,2.3,1,2.3,2.3c0,1.3-1,2.3-2.3,2.3H23C22.2,15,21.6,15.5,21.2,16.2
		L21.2,16.2z"/>
</g>
</svg>
