<svg xmlns="http://www.w3.org/2000/svg" width="14.619" height="24.145" viewBox="0 0 14.619 24.145"><defs><style>.a{fill:#19191c;}</style></defs><path class="a" d="M6693.639,10462.311h-.9a5.885,5.885,0,0,0,1.306-3.787c0-1.385-1.353-4.236-3.232-5.986h0a15.627,15.627,0,0,0-1.46,1.559,20.269,20.269,0,0,0-2.581-2.889c-2.553,2.369-4.364,5.457-4.364,7.316a5.885,5.885,0,0,0,1.306,3.787h-1.064a1.814,1.814,0,0,0-1.812,1.813V10466a1.816,1.816,0,0,0,1.813,1.813h.453a3.307,3.307,0,0,0,.344,2.729l1.949,3.2a3.332,3.332,0,0,0,2.853,1.607h.012a3.328,3.328,0,0,0,2.851-1.588l1.972-3.186a3.308,3.308,0,0,0,.352-2.764h.207a1.816,1.816,0,0,0,1.813-1.812v-1.879A1.815,1.815,0,0,0,6693.639,10462.311Zm-6.85-6.945c.18.207,2.568,3.256,2.568,3.256l1.522-1.738c.108.18.206.352.293.52a3.1,3.1,0,0,1-.869,3.984,3.494,3.494,0,0,1-2.006.629,3.2,3.2,0,0,1-3.394-2.992q-.008-.132-.006-.264C6684.9,10457.758,6685.529,10456.875,6686.789,10455.365Zm-3.626,9.275h9.959v.844h-2.483a3.375,3.375,0,0,0-.4-.025l-3.921-.014a3.632,3.632,0,0,0-.528.039h-2.627Zm7.961,3.676a1,1,0,0,1-.025,1.035l-1.972,3.186a1.018,1.018,0,0,1-.875.486,1,1,0,0,1-.871-.492l-1.949-3.2a1,1,0,0,1-.018-1.035,1.015,1.015,0,0,1,.6-.482h4.447A1.014,1.014,0,0,1,6691.124,10468.316Z" transform="translate(-6680.833 -10451.207)"/></svg>