<svg xmlns="http://www.w3.org/2000/svg" width="15.267" height="16.655" viewBox="0 0 15.267 16.655">
  <g id="icons8-guru-50" transform="translate(-4 -3)" fill="none">
    <path d="M11.633,3a2.082,2.082,0,1,0,2.082,2.082A2.082,2.082,0,0,0,11.633,3Zm0,5.552q-.035,0-.069,0h0a5.072,5.072,0,0,0-.764.068A3.6,3.6,0,0,0,8.09,10.808L6.929,13.6,4.383,14.87A.694.694,0,0,0,5,16.112L7.78,14.724a.694.694,0,0,0,.331-.354l.747-1.795v3.018L6.663,17.149a1.384,1.384,0,0,0-.493,1.613,1.446,1.446,0,0,0,1.373.893H8.992a1.861,1.861,0,0,1,.416-2.007,2.05,2.05,0,0,1,1.685-.764,1.7,1.7,0,0,1,.542.11c.124.042,2.3.731,2.3.731l-3.043.546a.694.694,0,0,0,.052,1.385h4.866a1.31,1.31,0,0,0,1.175-.889.694.694,0,0,0,.2-.491,1.386,1.386,0,0,0-.58-1.126h0l-2.193-1.555V12.576l.747,1.795a.694.694,0,0,0,.331.354l2.776,1.388a.694.694,0,0,0,.621-1.242L16.338,13.6l-1.162-2.789a3.6,3.6,0,0,0-2.705-2.186h0a5.054,5.054,0,0,0-.773-.068l-.064,0Z" stroke="none"/>
    <path d="M 11.65723037719727 10.55400371551514 L 11.65332508087158 10.55435180664062 L 11.57627964019775 10.55436229705811 C 11.41819095611572 10.55736827850342 11.26755905151367 10.57078838348389 11.12615489959717 10.59464263916016 C 10.60907459259033 10.68125247955322 10.15319442749023 11.05804252624512 9.936744689941406 11.57720184326172 L 9.623576164245605 12.32924556732178 L 10.85758495330811 12.57577228546143 L 10.85758495330811 14.88258934020996 C 10.97045803070068 14.87884521484375 11.08638381958008 14.88003444671631 11.19625473022461 14.8858528137207 C 11.67409515380859 14.91065216064453 11.9959545135498 15.00244235992432 12.24778461456299 15.0889720916748 L 12.27021980285645 15.09658813476562 C 12.29042339324951 15.10324096679688 12.3388090133667 15.11880588531494 12.40922451019287 15.14133453369141 L 12.40922451019287 12.57577228546143 L 13.64322853088379 12.32924556732178 L 13.33017444610596 11.57748222351074 C 13.11748600006104 11.0669412612915 12.67338752746582 10.69436073303223 12.1667652130127 10.59929180145264 L 12.13646507263184 10.59417247772217 C 11.99224472045898 10.56980228424072 11.83557510375977 10.55634212493896 11.67079448699951 10.5541820526123 L 11.65723037719727 10.55400371551514 M 11.63340473175049 3.000001907348633 C 12.78318500518799 3.000001907348633 13.71527481079102 3.932083129882812 13.71527481079102 5.08186149597168 C 13.71527481079102 6.231651306152344 12.78318500518799 7.163732528686523 11.63340473175049 7.163732528686523 C 10.48362445831299 7.163732528686523 9.551534652709961 6.231651306152344 9.551534652709961 5.08186149597168 C 9.551534652709961 3.932083129882812 10.48362445831299 3.000001907348633 11.63340473175049 3.000001907348633 Z M 11.62594032287598 8.551601409912109 C 11.62919425964355 8.551601409912109 11.63244724273682 8.551637649536133 11.63570594787598 8.551638603210449 C 11.6561975479126 8.551638603210449 11.67669010162354 8.552539825439453 11.69710445404053 8.554351806640625 C 11.96845436096191 8.55792236328125 12.22820472717285 8.58132266998291 12.46967506408691 8.622121810913086 L 12.47103500366211 8.622121810913086 C 13.70088481903076 8.828432083129883 14.70619487762451 9.679741859436035 15.1763744354248 10.80835247039795 L 16.33793449401855 13.59772205352783 L 18.88333511352539 14.87043190002441 C 19.22617530822754 15.04185199737549 19.36514472961426 15.45873260498047 19.1937141418457 15.80157279968262 C 19.02230453491211 16.14441299438477 18.60541534423828 16.28337097167969 18.26257514953613 16.11196136474609 L 15.48675537109375 14.72404289245605 C 15.33761405944824 14.64966201782227 15.22022438049316 14.52409172058105 15.15604496002197 14.37029266357422 L 14.40922451019287 12.57577228546143 L 14.40922451019287 15.59420204162598 L 16.60223388671875 17.14882278442383 C 16.60313415527344 17.14882278442383 16.60403442382812 17.14882278442383 16.60494422912598 17.14882278442383 C 16.96683502197266 17.40672302246094 17.18504524230957 17.82755279541016 17.18504524230957 18.27514266967773 C 17.18465423583984 18.45937156677246 17.11102485656738 18.63589286804199 16.98038482666016 18.76579284667969 C 16.76801490783691 19.25796127319336 16.36943435668945 19.65492248535156 15.80526542663574 19.65492248535156 L 10.93944454193115 19.65492248535156 C 10.57027435302734 19.64936256408691 10.27007484436035 19.35572242736816 10.25635433197021 18.98676300048828 C 10.24263477325439 18.61780166625977 10.52020454406738 18.30268287658691 10.8879451751709 18.26972198486328 L 13.9307746887207 17.72350311279297 C 13.9307746887207 17.72350311279297 11.75828456878662 17.03459167480469 11.63475513458252 16.99295234680176 C 11.52789497375488 16.95756149291992 11.38684463500977 16.8984317779541 11.092604637146 16.8831615447998 C 10.43818759918213 16.84847259521484 9.825623512268066 17.1437931060791 9.407864570617676 17.64760208129883 C 8.739584922790527 18.45259284973145 8.789824485778809 19.08865165710449 8.991765022277832 19.65492248535156 L 7.542864799499512 19.65492248535156 C 6.948835372924805 19.65492248535156 6.375965118408203 19.31828308105469 6.169864654541016 18.76173210144043 C 5.944324493408203 18.15313148498535 6.168434143066406 17.50066184997559 6.663225173950195 17.14882278442383 L 8.857584953308105 15.59420204162598 L 8.857584953308105 12.57577228546143 L 8.110764503479004 14.37029266357422 C 8.046574592590332 14.52409172058105 7.929194450378418 14.64966201782227 7.780055046081543 14.72404289245605 L 5.004234313964844 16.11196136474609 C 4.661394119262695 16.28337097167969 4.244503021240234 16.14441299438477 4.073083877563477 15.80157279968262 C 3.901664733886719 15.45873260498047 4.040634155273438 15.04185199737549 4.383474349975586 14.87043190002441 L 6.928874969482422 13.59772205352783 L 8.090435028076172 10.80835247039795 C 8.560914993286133 9.679892539978027 9.565664291381836 8.828152656555176 10.79577445983887 8.622121810913086 C 11.03503513336182 8.581751823425293 11.29200458526611 8.558392524719238 11.56021499633789 8.554351806640625 C 11.56130695343018 8.554336547851562 11.56234264373779 8.554357528686523 11.56340885162354 8.554357528686523 C 11.56369495391846 8.554357528686523 11.56398296356201 8.554356575012207 11.56427478790283 8.554351806640625 C 11.58478546142578 8.552523612976074 11.60535907745361 8.551601409912109 11.62594032287598 8.551601409912109 Z" stroke="none" fill="#000"/>
  </g>
</svg>
