<?xml version="1.0" encoding="utf-8"?>
<!-- Generator: Adobe Illustrator 25.4.1, SVG Export Plug-In . SVG Version: 6.00 Build 0)  -->
<svg version="1.1" id="Layer_1" xmlns="http://www.w3.org/2000/svg" xmlns:xlink="http://www.w3.org/1999/xlink" x="0px" y="0px"
	 viewBox="0 0 28.7 17.6" style="enable-background:new 0 0 28.7 17.6;" xml:space="preserve">
<style type="text/css">
	.st0{fill:none;stroke:#000000;stroke-width:2;}
	.st1{fill:none;stroke:#000000;stroke-width:2;stroke-linecap:round;}
</style>
<path class="st0" d="M2.9,5.7c0.4-1,1.6-1.4,2.5-0.9c0.8,0.4,1.8,0.8,3.2,0.8c1.6,0,2.8-0.8,3.6-1.7c0.7-0.8,2-0.7,2.7,0
	c1,1.1,2.5,2.4,3.9,3.2c2.7,1.5,7.4,0.7,8.3,3.5c0.8,2.7-2.1,4.7-5.6,5.4c-2.7,0.5-7.9-0.2-10.1-0.5c-0.6-0.1-1.3,0-1.9,0.1
	c-1,0.3-2.8,0.5-5.2-0.2C3,15,2,13.9,1.8,12.5C1.5,11,1.6,8.6,2.9,5.7z"/>
<line class="st1" x1="15" y1="8.7" x2="17.2" y2="6.4"/>
<line class="st1" x1="19.2" y1="10" x2="21.1" y2="8.1"/>
<line class="st1" x1="14.9" y1="4" x2="12.7" y2="1.7"/>
</svg>
