<svg xmlns="http://www.w3.org/2000/svg" width="17.431" height="19.736" viewBox="0 0 17.431 19.736"><defs><style>.a{fill:#19191c;}</style></defs><path class="a" d="M6923.951,10467.366a2.362,2.362,0,0,0-.365.027,2.168,2.168,0,0,0-.624-1.283,2.2,2.2,0,0,0-1.548-.646l-7.65-.025a2.193,2.193,0,0,0-2.192,1.955,2.281,2.281,0,0,0-.367-.028,2.344,2.344,0,0,0-2.342,2.342v3.831a2.344,2.344,0,0,0,3.045,2.234,6.026,6.026,0,0,0,4.679,3.856v.862h-3.033a2.342,2.342,0,0,0,0,4.684h8.047a2.342,2.342,0,0,0,0-4.684h-3.032v-.866a6.026,6.026,0,0,0,4.655-3.861,2.34,2.34,0,0,0,3.068-2.226v-3.831A2.344,2.344,0,0,0,6923.951,10467.366Zm-1.991,15.468a.357.357,0,0,1-.358.357h-8.047a.358.358,0,1,1,0-.716h8.047A.359.359,0,0,1,6921.96,10482.834Zm-10.756-8.935a.361.361,0,0,1-.359-.36v-3.831a.359.359,0,0,1,.711-.064l0,3.976A.361.361,0,0,1,6911.2,10473.9Zm6.361,3.827h-.016a4.022,4.022,0,0,1-4.013-3.754v-.229c.006-.067.01-.135.01-.2v-3.831c0-.055,0-.109-.005-.164v-1.917a.192.192,0,0,1,.061-.143.214.214,0,0,1,.152-.063h0l7.651.027a.215.215,0,0,1,.154.063.2.2,0,0,1,.06.143l-.029,6.347A4.021,4.021,0,0,1,6917.565,10477.727Zm6.745-4.187a.358.358,0,1,1-.716,0v-3.831a.358.358,0,1,1,.716,0Z" transform="translate(-6908.862 -10465.439)"/></svg>