<svg xmlns="http://www.w3.org/2000/svg" width="17.242" height="10.033" viewBox="0 0 17.242 10.033">
  <g id="Groupe_4055" data-name="Groupe 4055" transform="translate(-6800.364 2118.15)">
    <path id="Tracé_32388" data-name="Tracé 32388" d="M16.393,2.361,13.024.416a3.066,3.066,0,0,0-4.6,2.656v3.89a3.066,3.066,0,0,0,4.6,2.656l3.37-1.946a3.067,3.067,0,0,0,0-5.311" transform="translate(6799.68 -2118.15)" fill="#8d64fc"/>
    <path id="Tracé_32389" data-name="Tracé 32389" d="M7.969,2.361,4.6.416A3.066,3.066,0,0,0,0,3.072v3.89A3.066,3.066,0,0,0,4.6,9.618l3.37-1.946a3.067,3.067,0,0,0,0-5.311" transform="translate(6800.364 -2118.15)" fill="#8d64fc"/>
  </g>
</svg>
