<svg xmlns="http://www.w3.org/2000/svg" width="25.824" height="21.542" viewBox="0 0 25.824 21.542"><defs><style>.a{fill:#fff;stroke:#fff;stroke-width:0.6px;opacity:0.5;}</style></defs><path class="a" d="M14.056,2.012a12.595,12.595,0,0,0-9.29,20.46,1.256,1.256,0,0,0,1.866.1l.017-.017a1.235,1.235,0,0,0,.091-1.649,10.082,10.082,0,1,1,15.717.01,1.231,1.231,0,0,0,.1,1.642l.015.015a1.255,1.255,0,0,0,1.861-.091A12.6,12.6,0,0,0,17,2.221,13.046,13.046,0,0,0,14.056,2.012Zm4.684,7.131a1.255,1.255,0,0,0-.874.318l-4.785,4.256a1.258,1.258,0,0,0-.054,1.831l.63.63a1.261,1.261,0,0,0,1.834-.054l4.253-4.783a1.263,1.263,0,0,0-.049-1.73l-.1-.1A1.259,1.259,0,0,0,18.741,9.143Z" transform="translate(-1.7 -1.7)"/></svg>