<svg fill="#000000" xmlns="http://www.w3.org/2000/svg"  viewBox="0 0 32 32" width="50px" height="50px"><path d="M 16.5 5 C 15.671875 5 15 5.671875 15 6.5 C 15 7.328125 15.671875 8 16.5 8 C 17.328125 8 18 7.328125 18 6.5 C 18 5.671875 17.328125 5 16.5 5 Z M 25 6 C 22.890625 6 21.265625 6.976563 20.3125 8.34375 C 19.753906 9.144531 19.417969 10.0625 19.21875 11 L 18.59375 11 C 18.464844 10.734375 18.421875 10.589844 18.1875 10.1875 C 17.984375 9.835938 17.761719 9.507813 17.5 9.1875 C 17.371094 9.027344 17.25 8.863281 17.0625 8.71875 C 16.875 8.574219 16.609375 8.40625 16.1875 8.40625 C 15.78125 8.40625 15.351563 8.578125 15.0625 8.84375 C 14.773438 9.109375 14.621094 9.421875 14.53125 9.71875 C 14.371094 10.253906 14.078125 11.476563 13.90625 12.15625 C 13.382813 12.070313 12.828125 12 12.21875 12 C 11.183594 12 10.242188 12.371094 9.5 12.96875 C 9.359375 12.980469 9.148438 13 8.78125 13 C 7.101563 13 5.972656 14.121094 5.5 15.21875 C 5.027344 16.316406 5 17.414063 5 18 L 7 18 C 7 17.539063 7.066406 16.640625 7.34375 16 C 7.535156 15.554688 7.726563 15.242188 8.125 15.09375 C 8.050781 15.398438 8 15.703125 8 16.03125 C 8 17.144531 8.375 17.976563 8.6875 18.5 C 9 19.023438 9.09375 19.195313 9.09375 19.15625 C 9.09375 19.085938 8.992188 19.359375 8.625 19.78125 C 8.257813 20.203125 7.707031 20.730469 7.1875 21.4375 L 7 21.71875 L 7 27 L 9 27 L 9 22.40625 C 9.367188 21.945313 9.777344 21.527344 10.15625 21.09375 C 10.597656 20.589844 11.09375 20.035156 11.09375 19.15625 C 11.09375 18.304688 10.632813 17.847656 10.40625 17.46875 C 10.179688 17.089844 10 16.753906 10 16.03125 C 10 14.816406 10.859375 14 12.21875 14 C 13.601563 14 14.878906 14.429688 15.09375 14.5 L 16 15.03125 L 16 18 L 18 18 L 18 13.90625 L 17.53125 13.59375 L 15.84375 12.59375 C 15.980469 12.050781 16.121094 11.523438 16.28125 10.90625 C 16.347656 11.011719 16.40625 11.074219 16.46875 11.1875 C 16.8125 11.785156 17.09375 12.40625 17.09375 12.40625 L 17.34375 13 L 21 13 C 21 11.695313 21.304688 10.375 21.9375 9.46875 C 22.402344 8.804688 23.105469 8.429688 24 8.21875 L 24 9.15625 L 24.84375 9.28125 C 25.308594 9.359375 25.324219 9.488281 25.40625 9.6875 C 25.488281 9.886719 25.5 10.0625 25.5 10.0625 L 25.46875 10.5625 L 25.84375 10.90625 L 26.6875 11.5625 C 26.539063 11.519531 26.375 11.488281 26.3125 11.46875 L 25.96875 11.34375 L 25.625 11.5 C 25.652344 11.488281 25.160156 11.589844 24.84375 11.53125 C 24.527344 11.472656 24.363281 11.414063 24.1875 10.9375 L 22.3125 11.625 C 22.421875 11.917969 22.578125 12.179688 22.75 12.40625 C 22.496094 12.875 22.363281 13.390625 22.25 13.90625 C 22.046875 14.851563 22 15.824219 22 16.625 C 22 17.925781 20.71875 18.59375 20.71875 18.59375 L 20.28125 18.8125 L 20.1875 19.28125 C 19.652344 21.75 19.03125 24.90625 19.03125 24.90625 L 18.90625 25.5 L 19.40625 25.875 C 19.40625 25.875 20 26.433594 20 27 L 22 27 C 22 25.835938 21.476563 25.164063 21.0625 24.75 C 21.125 24.445313 21.453125 22.949219 21.71875 21.71875 C 22.0625 22.683594 22.457031 23.386719 22.65625 23.71875 L 22.15625 24.90625 L 24 25.6875 L 24.6875 24.0625 L 24.90625 23.59375 L 24.59375 23.15625 C 24.59375 23.15625 23.4375 21.28125 23.15625 19.125 C 23.609375 18.566406 24 17.757813 24 16.625 C 24 15.914063 24.0625 15.0625 24.21875 14.34375 C 24.292969 14.003906 24.394531 13.722656 24.5 13.5 C 25.023438 13.59375 25.378906 13.484375 25.75 13.40625 C 26.238281 13.5625 27.34375 13.84375 27.34375 13.84375 L 27.875 14 L 28.3125 13.59375 C 28.773438 13.152344 28.972656 12.609375 29 12.0625 C 29.027344 11.515625 28.898438 10.929688 28.46875 10.46875 L 28.40625 10.4375 L 28.375 10.375 L 27.375 9.5625 C 27.351563 9.332031 27.386719 9.261719 27.25 8.9375 C 27.0625 8.488281 26.597656 8.019531 26 7.6875 L 26 6 Z M 12.40625 18 L 12.4375 19.03125 C 12.4375 19.03125 12.484375 20.472656 11.3125 21.625 L 10.75 22.15625 L 11.125 22.8125 L 13 26.15625 L 13 27 L 15 27 L 15 25.625 L 14.875 25.40625 L 13.1875 22.375 C 13.742188 21.628906 14.097656 20.90625 14.25 20.28125 C 15.097656 20.605469 16.363281 21 18 21 L 18.625 21 L 19 19 L 18 19 C 16.195313 19 14.125 18.09375 14.125 18.09375 L 13.9375 18 Z"/></svg>