<svg fill="#000000" xmlns="http://www.w3.org/2000/svg"  viewBox="0 0 32 32" width="50px" height="50px"><path d="M 13.5 3 C 11.578125 3 10 4.578125 10 6.5 C 10 8.332031 11.449219 9.832031 13.25 9.96875 L 11.53125 10.28125 L 11.46875 10.28125 L 8.34375 11.09375 L 5.71875 6.84375 L 4 7.90625 L 6.625 12.125 C 7.082031 12.859375 8.003906 13.246094 8.84375 13.03125 L 11.09375 12.46875 L 11.9375 19.1875 L 10.09375 28.125 L 12.0625 28.53125 L 13.78125 20.09375 L 19.40625 19.6875 L 21.8125 25.3125 L 23.65625 24.53125 L 21.25 18.875 C 20.921875 18.109375 20.140625 17.648438 19.3125 17.6875 L 19.96875 17.5 L 20 17.46875 L 20.03125 17.46875 L 20.71875 17.1875 L 20.78125 17.15625 L 20.8125 17.125 L 21.25 16.90625 L 20.3125 15.15625 L 19.96875 15.34375 L 19.875 15.375 L 19.375 15.59375 L 19.3125 15.625 L 19.28125 15.625 L 18.65625 15.8125 L 19.25 17.6875 L 18.09375 17.78125 L 18 16.9375 L 18 10.8125 L 20.4375 9 C 20.699219 8.804688 20.921875 8.542969 21.0625 8.25 L 22.90625 4.4375 L 21.09375 3.5625 L 19.25 7.40625 L 16.53125 9.40625 L 14.90625 9.6875 C 16.125 9.136719 17 7.914063 17 6.5 C 17 4.578125 15.421875 3 13.5 3 Z M 27 3.96875 L 25 4.03125 C 25.007813 4.355469 25.003906 4.683594 25 5 L 27 5 C 27.003906 4.660156 27.011719 4.324219 27 3.96875 Z M 13.5 5 C 14.339844 5 15 5.660156 15 6.5 C 15 7.339844 14.339844 8 13.5 8 C 12.660156 8 12 7.339844 12 6.5 C 12 5.660156 12.660156 5 13.5 5 Z M 24.96875 5.9375 L 24.90625 6.59375 L 24.9375 6.59375 L 24.78125 7.65625 L 24.78125 7.75 L 26.71875 8.125 L 26.75 7.96875 L 26.78125 7.9375 L 26.78125 7.90625 L 26.90625 6.78125 L 26.90625 6.71875 L 26.96875 6.0625 Z M 24.59375 8.65625 L 24.375 9.5 L 24.375 9.5625 L 24.09375 10.375 L 24.09375 10.40625 L 24.0625 10.4375 L 24.59375 10.59375 L 25.9375 11.15625 L 25.9375 11.125 L 25.96875 11.09375 L 25.96875 11.0625 L 26.28125 10.125 L 26.28125 10.09375 L 26.3125 10.0625 L 26.53125 9.15625 Z M 23.75 11.25 L 23.40625 11.90625 L 23.375 11.96875 L 23.03125 12.5625 L 23 12.5625 L 22.84375 12.8125 L 24.46875 13.96875 L 24.625 13.75 L 24.6875 13.6875 L 25.125 12.9375 L 25.15625 12.90625 L 25.15625 12.875 L 25.53125 12.15625 Z M 16 11.5625 L 16 17.9375 L 13.8125 18.125 L 13.0625 12.0625 Z M 22.28125 13.5 L 22.09375 13.75 L 22.03125 13.8125 L 21.59375 14.21875 L 21.53125 14.28125 L 21.09375 14.65625 L 21.0625 14.65625 L 21 14.71875 L 21.53125 15.40625 L 21.625 15.5 L 22.15625 16.34375 L 22.25 16.25 L 22.84375 15.78125 L 22.90625 15.75 L 23.5625 15.09375 L 23.8125 14.8125 Z"/></svg>