<svg fill="#000000" xmlns="http://www.w3.org/2000/svg"  viewBox="0 0 32 32" width="50px" height="50px"><path d="M 14.5 4 C 12.578125 4 11 5.578125 11 7.5 C 11 8.375 11.335938 9.164063 11.875 9.78125 L 6.125 13.71875 C 5.34375 14.253906 5.035156 15.28125 5.40625 16.15625 L 6.34375 18.40625 L 8.1875 17.59375 L 7.25 15.375 L 13.75 10.90625 C 13.996094 10.960938 14.234375 11 14.5 11 C 16.421875 11 18 9.421875 18 7.5 C 18 5.578125 16.421875 4 14.5 4 Z M 9.5625 5.4375 C 9.5625 5.4375 6.128906 6.9375 5.25 12.65625 L 8.125 10.71875 C 7.441406 7.277344 9.5625 5.4375 9.5625 5.4375 Z M 19.59375 5.4375 L 17.78125 6.25 L 19.40625 10.09375 L 16.625 10.625 C 16.039063 10.738281 15.535156 11.101563 15.25 11.625 C 14.964844 12.148438 14.9375 12.789063 15.15625 13.34375 L 17 18.0625 L 17 21.96875 L 13.75 28 L 16.03125 28 L 18.75 22.9375 C 18.90625 22.648438 19 22.296875 19 21.96875 L 19 17.6875 L 17 12.59375 L 19.8125 12.0625 C 20.410156 11.945313 20.90625 11.566406 21.1875 11.03125 C 21.46875 10.496094 21.488281 9.867188 21.25 9.3125 Z M 14.5 6 C 15.339844 6 16 6.660156 16 7.5 C 16 8.339844 15.339844 9 14.5 9 C 13.660156 9 13 8.339844 13 7.5 C 13 6.660156 13.660156 6 14.5 6 Z M 20.96875 13.65625 L 19 14.0625 L 20.46875 18.9375 L 24.28125 28 L 26.4375 28 L 22.34375 18.3125 Z"/></svg>