<svg fill="#000000" xmlns="http://www.w3.org/2000/svg"  viewBox="0 0 32 32" width="50px" height="50px"><path d="M 16 4 C 14.355469 4 13 5.355469 13 7 C 13 8.644531 14.355469 10 16 10 C 17.644531 10 19 8.644531 19 7 C 19 5.355469 17.644531 4 16 4 Z M 16 6 C 16.5625 6 17 6.4375 17 7 C 17 7.5625 16.5625 8 16 8 C 15.4375 8 15 7.5625 15 7 C 15 6.4375 15.4375 6 16 6 Z M 6 11 L 6 13 L 13 13 L 13 28 L 15 28 L 15 20.71875 L 18 19.71875 L 19.53125 20.96875 L 16 22.1875 L 16 24.3125 L 20.9375 22.59375 C 21.46875 22.410156 21.871094 21.960938 21.96875 21.40625 C 22.066406 20.851563 21.84375 20.292969 21.40625 19.9375 L 19 18 L 19 13 L 26 13 L 26 11 Z M 15 13 L 17 13 L 17 17.9375 L 15 18.625 Z"/></svg>