<svg fill="#000000" xmlns="http://www.w3.org/2000/svg"  viewBox="0 0 32 32" width="50px" height="50px"><path d="M 16 3 C 13.800781 3 12 4.800781 12 7 C 12 9.199219 13.800781 11 16 11 C 18.199219 11 20 9.199219 20 7 C 20 4.800781 18.199219 3 16 3 Z M 16 5 C 17.117188 5 18 5.882813 18 7 C 18 8.117188 17.117188 9 16 9 C 14.882813 9 14 8.117188 14 7 C 14 5.882813 14.882813 5 16 5 Z M 14.625 12 C 12.628906 12 10.820313 13.195313 10.03125 15.03125 L 8.28125 19.125 L 3.8125 20.03125 L 4.1875 21.96875 L 9.1875 20.96875 L 9.71875 20.875 L 9.90625 20.40625 L 11.875 15.8125 C 12.347656 14.707031 13.421875 14 14.625 14 L 17.375 14 C 18.578125 14 19.652344 14.707031 20.125 15.8125 L 22.09375 20.40625 L 22.28125 20.875 L 22.8125 20.96875 L 27.8125 21.96875 L 28.1875 20.03125 L 23.71875 19.125 L 21.96875 15.03125 C 21.183594 13.195313 19.375 12 17.375 12 Z M 13 16.65625 L 11 21.3125 L 7.75 22.625 C 6.691406 23.046875 6 24.082031 6 25.21875 C 6 26.746094 7.253906 28 8.78125 28 L 23.21875 28 C 24.746094 28 26 26.746094 26 25.21875 C 26 24.082031 25.308594 23.046875 24.25 22.625 L 21 21.3125 L 19 16.65625 L 19 22.6875 L 19.625 22.9375 L 23.5 24.46875 C 23.804688 24.589844 24 24.894531 24 25.21875 C 24 25.667969 23.667969 26 23.21875 26 L 18.9375 26 C 18.972656 25.835938 19 25.671875 19 25.5 C 19 24.121094 17.878906 23 16.5 23 L 11 25 L 16.5 25 C 16.773438 25 17 25.222656 17 25.5 C 17 25.777344 16.773438 26 16.5 26 L 8.78125 26 C 8.332031 26 8 25.667969 8 25.21875 C 8 24.894531 8.195313 24.589844 8.5 24.46875 L 8.53125 24.46875 L 12.375 22.9375 L 13 22.6875 Z"/></svg>