<svg fill="#000000" xmlns="http://www.w3.org/2000/svg"  viewBox="0 0 32 32" width="50px" height="50px"><path d="M 20.5 2.125 C 18.578125 2.125 17 3.703125 17 5.625 C 17 7.546875 18.578125 9.125 20.5 9.125 C 22.421875 9.125 24 7.546875 24 5.625 C 24 3.703125 22.421875 2.125 20.5 2.125 Z M 20.5 4.125 C 21.339844 4.125 22 4.785156 22 5.625 C 22 6.464844 21.339844 7.125 20.5 7.125 C 19.660156 7.125 19 6.464844 19 5.625 C 19 4.785156 19.660156 4.125 20.5 4.125 Z M 9 5 C 7.355469 5 6 6.355469 6 8 C 6 9.234375 6.769531 10.292969 7.84375 10.75 L 11.03125 12.59375 C 11.613281 12.925781 12.339844 12.957031 12.9375 12.65625 L 14.90625 11.6875 L 10.9375 22.15625 L 12.8125 22.84375 L 14.28125 18.96875 L 16.59375 19.78125 L 13.5 28 L 15.625 28 L 21.21875 13.15625 L 23 15.34375 L 23 19 L 25 19 L 25 15.34375 C 25 14.886719 24.847656 14.449219 24.5625 14.09375 L 21.90625 10.8125 C 21.628906 10.464844 21.246094 10.226563 20.8125 10.125 L 16.59375 9.125 C 16.136719 9.015625 15.636719 9.070313 15.21875 9.28125 L 12.03125 10.875 L 10.96875 10.25 C 11.597656 9.699219 12 8.894531 12 8 C 12 6.355469 10.644531 5 9 5 Z M 9 7 C 9.5625 7 10 7.4375 10 8 C 10 8.5625 9.5625 9 9 9 C 8.4375 9 8 8.5625 8 8 C 8 7.4375 8.4375 7 9 7 Z M 17.15625 11.3125 L 19.5625 11.875 L 17.28125 17.9375 L 14.96875 17.09375 Z"/></svg>