<svg xmlns="http://www.w3.org/2000/svg" width="25.887" height="25.887" viewBox="0 0 25.887 25.887"><defs><style>.a{fill:none;stroke:#000;stroke-linecap:round;stroke-linejoin:round;stroke-width:3px;}</style></defs><g transform="translate(1.5 1.5)"><path class="a" d="M19.742,16.621A3.121,3.121,0,1,1,16.621,13.5,3.121,3.121,0,0,1,19.742,16.621Z" transform="translate(-5.177 -5.177)"/><path class="a" d="M20.642,16.065a1.717,1.717,0,0,0,.343,1.893l.062.062A2.082,2.082,0,1,1,18.1,20.965l-.062-.062a1.731,1.731,0,0,0-2.934,1.228v.177a2.081,2.081,0,0,1-4.161,0v-.094a1.717,1.717,0,0,0-1.124-1.571,1.717,1.717,0,0,0-1.893.343l-.062.062A2.082,2.082,0,1,1,4.923,18.1l.062-.062a1.73,1.73,0,0,0-1.228-2.934H3.581a2.081,2.081,0,0,1,0-4.161h.094A1.717,1.717,0,0,0,5.245,9.823,1.717,1.717,0,0,0,4.9,7.929l-.062-.062A2.082,2.082,0,1,1,7.784,4.923l.062.062a1.717,1.717,0,0,0,1.893.343h.083a1.717,1.717,0,0,0,1.04-1.571V3.581a2.081,2.081,0,1,1,4.161,0v.094A1.731,1.731,0,0,0,17.958,4.9l.062-.062a2.082,2.082,0,1,1,2.944,2.944l-.062.062a1.717,1.717,0,0,0-.343,1.893v.083a1.717,1.717,0,0,0,1.571,1.04h.177a2.081,2.081,0,0,1,0,4.161h-.094a1.717,1.717,0,0,0-1.571,1.04Z" transform="translate(-1.5 -1.5)"/></g></svg>