<svg xmlns="http://www.w3.org/2000/svg" width="21.726" height="23.807" viewBox="0 0 21.726 23.807"><defs><style>.a{fill:none;stroke:#000;stroke-linecap:round;stroke-linejoin:round;stroke-width:3px;}</style></defs><g transform="translate(1.5 1.5)"><path class="a" d="M28.742,6.121A3.121,3.121,0,1,1,25.621,3a3.121,3.121,0,0,1,3.121,3.121Z" transform="translate(-10.016 -3)"/><path class="a" d="M10.742,16.621A3.121,3.121,0,1,1,7.621,13.5,3.121,3.121,0,0,1,10.742,16.621Z" transform="translate(-4.5 -6.218)"/><path class="a" d="M28.742,27.121A3.121,3.121,0,1,1,25.621,24,3.121,3.121,0,0,1,28.742,27.121Z" transform="translate(-10.016 -9.435)"/><path class="a" d="M12.885,20.265l7.106,4.141" transform="translate(-7.07 -8.291)"/><path class="a" d="M19.98,9.765l-7.1,4.141" transform="translate(-7.07 -5.073)"/></g></svg>