<svg xmlns="http://www.w3.org/2000/svg" width="27" height="25" viewBox="0 0 27 25">
  <path id="icons8-aed" d="M9.545,4A6.544,6.544,0,0,0,3,10.545c0,6.292,7.3,12.3,10.709,14.982l.01.008.078.063h0a1.991,1.991,0,0,0,2.4,0h0l.023-.018.018-.014.02-.018c3.4-2.668,10.736-8.7,10.736-15A6.544,6.544,0,0,0,20.455,4,7.131,7.131,0,0,0,15,7,7.131,7.131,0,0,0,9.545,4Zm5.565,8.59a.516.516,0,0,1,.178,0,.5.5,0,0,1,.4.492l.251,1.793h1.5a.5.5,0,0,1,.465.686l-1.965,3.552a.5.5,0,0,1-.465.314.536.536,0,0,1-.1-.01.5.5,0,0,1-.4-.49l-.035-2.052h-1.5a.5.5,0,0,1-.465-.686L14.727,12.9l.018-.041Z" transform="translate(-1.5 -2.5)" fill="none" stroke="#000001" stroke-width="3"/>
</svg>
