<svg xmlns="http://www.w3.org/2000/svg" width="27.287" height="27.318" viewBox="0 0 27.287 27.318">
  <g id="icons8-pullups-50" transform="translate(-2 -2)" fill="none">
    <path d="M15.644,2a2.624,2.624,0,1,0,2.624,2.624A2.624,2.624,0,0,0,15.644,2ZM7.264,7.235A1.05,1.05,0,0,0,6.192,8.3H2v1.05H6.6l1.808,3.618a1.05,1.05,0,0,0,1.166.553l.006,0a1.05,1.05,0,0,0,.1-.029L12.5,12.71v4.2l-.98,5.664-.039.158a1.05,1.05,0,0,0,.119.793l3.149,5.248a1.05,1.05,0,1,0,1.8-1.078l-.055-.092-2.24-4.376,1.4-3.755,1.4,3.755-.273.533,1.283,2.5,1.642-2.739a1.046,1.046,0,0,0,.119-.793l-1.019-5.821v-4.2l2.81.777a1.054,1.054,0,0,0,1.277-.523l1.808-3.618h4.6V8.3h-4.2A1.05,1.05,0,0,0,23.1,7.828l-.236.469H8.422l-.236-.469a1.05,1.05,0,0,0-.922-.592ZM8.947,9.347H12.5a1.05,1.05,0,0,0-.582.176L9.754,10.962Zm9.845,0H22.34l-.808,1.615L19.374,9.523a1.05,1.05,0,0,0-.582-.176Z" stroke="none"/>
    <path d="M 15.6435546875 4.000003814697266 C 15.29961490631104 4.000003814697266 15.01979446411133 4.279823303222656 15.01979446411133 4.623764038085938 C 15.01979446411133 4.967702865600586 15.29961490631104 5.247524261474609 15.6435546875 5.247524261474609 C 15.98749446868896 5.247524261474609 16.26731491088867 4.967702865600586 16.26731491088867 4.623752593994141 C 16.26731491088867 4.279813766479492 15.98749446868896 4.000003814697266 15.6435546875 4.000003814697266 M 12.49504470825195 10.29702377319336 L 12.49504470825195 10.63536834716797 L 13.71987915039062 10.29702377319336 L 12.49504470825195 10.29702377319336 M 14.49504470825195 10.29702377319336 L 14.49504470825195 16.82429885864258 L 15.6435546875 13.7346134185791 L 16.79206466674805 16.82429885864258 L 16.79206466674805 10.29702377319336 L 14.49504470825195 10.29702377319336 M 17.56853866577148 10.29702377319336 L 18.79198265075684 10.63523483276367 L 18.7919921875 10.29702377319336 L 17.56853866577148 10.29702377319336 M 15.6435546875 2.000003814697266 C 17.09261512756348 2.000003814697266 18.26731491088867 3.174694061279297 18.26731491088867 4.623752593994141 C 18.26731491088867 6.072824478149414 17.09261512756348 7.247524261474609 15.6435546875 7.247524261474609 C 14.19448471069336 7.247524261474609 13.01979446411133 6.072824478149414 13.01979446411133 4.623764038085938 C 13.01979446411133 3.174694061279297 14.19449424743652 2.000003814697266 15.6435546875 2.000003814697266 Z M 7.241376876831055 7.234981536865234 C 7.248876571655273 7.234981536865234 7.256399154663086 7.235061645507812 7.263914108276367 7.235223770141602 C 7.658275604248047 7.243673324584961 8.014604568481445 7.472513198852539 8.186334609985352 7.827613830566406 L 8.422063827514648 8.297023773193359 L 22.86504364013672 8.297023773193359 L 23.10077476501465 7.827613830566406 C 23.31854438781738 7.392356872558594 23.80695343017578 7.16389274597168 24.28086471557617 7.275774002075195 C 24.75452423095703 7.387714385986328 25.0890941619873 7.810564041137695 25.0890941619873 8.297023773193359 L 29.28710556030273 8.297023773193359 L 29.28710556030273 9.346532821655273 L 24.68732452392578 9.346532821655273 L 22.87939453125 12.96445274353027 C 22.66344451904297 13.39448356628418 22.1827335357666 13.62259483337402 21.71304512023926 13.51789283752441 C 21.67561340332031 13.50967407226562 21.63866424560547 13.49941444396973 21.60235595703125 13.48715400695801 L 18.79206466674805 12.71027374267578 L 18.79206466674805 16.91443252563477 L 19.81082534790039 22.73590469360352 C 19.87799453735352 23.00562286376953 19.83571434020996 23.28989410400391 19.69193458557129 23.52918243408203 L 18.05003356933594 26.26773452758789 L 16.76685333251953 23.76286315917969 L 17.03947448730469 23.22991371154785 L 15.6435546875 19.47465324401855 L 14.24763488769531 23.22991371154785 L 16.48807525634766 27.60626411437988 L 16.54342460632324 27.6985034942627 C 16.75167465209961 28.02059364318848 16.76765441894531 28.43063354492188 16.5850944519043 28.76795387268066 C 16.40254592895508 29.10527420043945 16.05053329467773 29.31616401672363 15.66698455810547 29.31798362731934 C 15.28340911865234 29.31977844238281 14.92943382263184 29.11227416992188 14.74368476867676 28.77670288085938 L 11.59517478942871 23.52918243408203 C 11.45207405090332 23.29092407226562 11.40932464599609 23.00564384460449 11.47628402709961 22.73590469360352 L 11.51523399353027 22.57807350158691 L 12.49504470825195 16.91443252563477 L 12.49504470825195 12.71027374267578 L 9.682695388793945 13.48715400695801 C 9.649044036865234 13.49844360351562 9.614833831787109 13.50802421569824 9.580204010009766 13.51584434509277 C 9.578155517578125 13.51653289794922 9.576114654541016 13.5172233581543 9.574054718017578 13.51789283752441 C 9.104375839233398 13.62259292602539 8.623666763305664 13.39448547363281 8.40771484375 12.96445274353027 L 6.599775314331055 9.346532821655273 L 1.999994277954102 9.346532821655273 L 1.999994277954102 8.297023773193359 L 6.191864013671875 8.297023773193359 C 6.188495635986328 8.012613296508789 6.300704956054688 7.739004135131836 6.50279426574707 7.538843154907227 C 6.699533462524414 7.343982696533203 6.965063095092773 7.234977722167969 7.241376876831055 7.234981536865234 Z M 8.946815490722656 9.346532821655273 L 9.754444122314453 10.96177291870117 L 11.91295433044434 9.522773742675781 C 12.08535385131836 9.407854080200195 12.28792381286621 9.346532821655273 12.49504470825195 9.346532821655273 L 8.946815490722656 9.346532821655273 Z M 18.79206466674805 9.346532821655273 C 18.99926376342773 9.34654426574707 19.20181465148926 9.407882690429688 19.37421417236328 9.52281379699707 L 21.53266525268555 10.96177291870117 L 22.34029388427734 9.346532821655273 L 18.79206466674805 9.346532821655273 Z" stroke="none" fill="#000"/>
  </g>
</svg>
