<svg xmlns="http://www.w3.org/2000/svg" width="17.581" height="24.408" viewBox="0 0 17.581 24.408">
  <g id="icons8-squats-50" transform="translate(-7 -2)" fill="none">
    <path d="M14.326,2a2.442,2.442,0,1,0,2.442,2.442A2.442,2.442,0,0,0,14.326,2ZM12.372,8.837a2.442,2.442,0,0,0-2.249,1.492L7.237,16.092l0,0a2.436,2.436,0,0,0,2.2,3.487h4.309L11.975,25.03a.977.977,0,0,0,1.759.849l3.907-7.814a.977.977,0,0,0-.83-1.412l-.01,0-4.1-.62,1.77-3.508a2.442,2.442,0,0,0,.158-.315l.309-.612,8.615-.805H23.6a.977.977,0,1,0,0-1.954Z" stroke="none"/>
    <path d="M 14.32549858093262 3.999994277954102 C 14.08186912536621 3.999994277954102 13.88366889953613 4.198204040527344 13.88366889953613 4.441835403442383 C 13.88366889953613 4.685464859008789 14.08186912536621 4.883665084838867 14.32549858093262 4.883665084838867 C 14.56912994384766 4.883665084838867 14.76733016967773 4.685464859008789 14.76733016967773 4.441835403442383 C 14.76733016967773 4.198204040527344 14.56912994384766 3.999994277954102 14.32549858093262 3.999994277954102 M 13.08041000366211 10.83712768554688 L 12.37203025817871 10.83713531494141 C 12.19422912597656 10.83713531494141 12.03458023071289 10.94307518005371 11.96531867980957 11.10702514648438 L 11.9401798248291 11.16652488708496 L 9.04313850402832 16.95600509643555 C 9.015525817871094 17.01381301879883 9.000637054443359 17.07812881469727 9.000007629394531 17.1422004699707 C 9.001548767089844 17.38452339172363 9.199151992797852 17.58120346069336 9.441829681396484 17.58120346069336 L 9.677677154541016 17.58120346069336 L 12.71692848205566 11.55838394165039 L 12.75331878662109 11.49743461608887 C 12.76416969299316 11.4792652130127 12.7738094329834 11.4600944519043 12.78196907043457 11.44046401977539 L 12.81019020080566 11.37255477905273 L 13.08041000366211 10.83712768554688 M 14.32549858093262 1.999994277954102 C 15.6740894317627 1.999994277954102 16.76733016967773 3.093244552612305 16.76733016967773 4.441835403442383 C 16.76733016967773 5.790424346923828 15.6740894317627 6.883665084838867 14.32549858093262 6.883665084838867 C 12.97690963745117 6.883665084838867 11.88366889953613 5.790424346923828 11.88366889953613 4.441835403442383 C 11.88366889953613 3.093244552612305 12.97690963745117 1.999994277954102 14.32549858093262 1.999994277954102 Z M 23.60446929931641 8.837034225463867 C 24.14395904541016 8.837034225463867 24.581298828125 9.274374008178711 24.581298828125 9.813863754272461 C 24.581298828125 10.35335350036621 24.1440258026123 10.79157066345215 23.60446929931641 10.79060363769531 L 23.55295944213867 10.79060363769531 L 14.93787002563477 11.59564399719238 L 14.62881851196289 12.2080135345459 C 14.58368873596191 12.31660461425781 14.5307788848877 12.42180442810059 14.47048950195312 12.52277374267578 L 12.70015907287598 16.031005859375 L 16.80167007446289 16.65100479125977 C 16.80485916137695 16.65162467956543 16.80802917480469 16.65225410461426 16.81121063232422 16.65290451049805 C 17.14133834838867 16.66791534423828 17.44149971008301 16.84881591796875 17.60897064208984 17.13371467590332 C 17.77643966674805 17.41860580444336 17.78850936889648 17.76884460449219 17.64104843139648 18.06459426879883 L 13.7341194152832 25.87846374511719 C 13.49157905578613 26.3492546081543 12.91807746887207 26.54102516174316 12.44112968444824 26.31083488464355 C 11.96418952941895 26.08064460754395 11.75753974914551 25.51231384277344 11.97523880004883 25.02954483032227 L 13.75128936767578 19.58120346069336 L 9.441829681396484 19.58120346069336 C 8.093250274658203 19.58120346069336 7 18.48795318603516 7 17.13936424255371 C 7.001049041748047 16.77753448486328 7.082498550415039 16.42045402526855 7.238458633422852 16.09395408630371 L 7.236549377441406 16.09205436706543 L 10.12298965454102 10.32867431640625 C 10.50491905212402 9.424663543701172 11.39093971252441 8.837135314941406 12.37203025817871 8.837135314941406 L 23.60446929931641 8.837034225463867 Z" stroke="none" fill="#000"/>
  </g>
</svg>
