<svg xmlns="http://www.w3.org/2000/svg" width="23.24" height="21.46" viewBox="0 0 23.24 21.46">
  <g id="icons8-exercise-50" transform="translate(-3 -3)" fill="none">
    <path d="M21.935,3A2.525,2.525,0,1,0,24.46,5.525,2.525,2.525,0,0,0,21.935,3ZM11.849,4.107,6.222,6.92,7.352,9.179l4.472-2.236,2.6,1.358-2.875,2.742a3.151,3.151,0,0,0-.809,3.3L3,22.675,4.785,24.46l8-8,2.5,1.553L10.949,22.3l1.775,1.795,6-5.932-3.052-3.849,2.436-2.276,1.985,3.969,6.146-2.759L25.2,10.944l-3.937,1.77-2.5-4.99Z" stroke="none"/>
    <path d="M 21.93491744995117 4.999996185302734 C 21.64561653137207 4.999996185302734 21.41025543212891 5.235355377197266 21.41025543212891 5.524656295776367 C 21.41025543212891 5.813945770263672 21.64561653137207 6.049306869506836 21.93491744995117 6.049306869506836 C 22.22421646118164 6.049306869506836 22.45957565307617 5.813945770263672 22.45957565307617 5.524656295776367 C 22.45957565307617 5.235355377197266 22.22421646118164 4.999996185302734 21.93491744995117 4.999996185302734 M 16.6994743347168 8.897750854492188 L 12.93292617797852 12.48986625671387 C 12.54029655456543 12.86425590515137 12.52358627319336 13.36230564117432 12.63887596130371 13.70356559753418 L 12.7696475982666 14.09065437316895 L 13.11087989807129 14.30266094207764 L 12.95947647094727 14.11175632476807 L 17.57407379150391 9.800752639770508 L 17.27217292785645 9.196949005126953 L 16.6994743347168 8.897750854492188 M 21.93491744995117 2.999996185302734 C 23.32924652099609 2.999996185302734 24.45957565307617 4.130325317382812 24.45957565307617 5.524656295776367 C 24.45957565307617 6.918985366821289 23.32924652099609 8.049306869506836 21.93491744995117 8.049306869506836 C 20.54058647155762 8.049306869506836 19.41025543212891 6.918985366821289 19.41025543212891 5.524656295776367 C 19.41025543212891 4.130325317382812 20.54058647155762 2.999996185302734 21.93491744995117 2.999996185302734 Z M 11.8486156463623 4.107006072998047 L 18.77169609069824 7.723865509033203 L 21.26676559448242 12.71400547027588 L 25.20414733886719 10.94378662109375 L 26.23965644836426 13.24901580810547 L 20.09319686889648 16.00789642333984 L 18.10848617553711 12.03846549987793 L 15.67258644104004 14.31410598754883 L 18.72485733032227 18.1627254486084 L 12.7238655090332 24.09467697143555 L 10.94871711730957 22.29980659484863 L 15.28797626495361 18.00986480712891 L 12.78796577453613 16.45661544799805 L 4.785005569458008 24.45957565307617 L 2.999996185302734 22.6745662689209 L 10.74408721923828 14.34369564056396 C 10.3685359954834 13.2320556640625 10.61650657653809 11.93513584136963 11.55276679992676 11.04240608215332 L 14.42751598358154 8.300785064697266 L 11.82396697998047 6.942306518554688 L 7.35157585144043 9.178506851196289 L 6.222385406494141 6.920116424560547 L 11.8486156463623 4.107006072998047 Z" stroke="none" fill="#000"/>
  </g>
</svg>
