<svg xmlns="http://www.w3.org/2000/svg" width="27.963" height="16.978" viewBox="0 0 27.963 16.978">
  <g id="icons8-pushups-50" transform="translate(-1 -7)" fill="none">
    <path d="M3.5,7a2.5,2.5,0,1,0,2.5,2.5A2.5,2.5,0,0,0,3.5,7Zm5.992,3a2.492,2.492,0,0,0-2.337,3.371l0,0L8.6,17.56,6.313,20.248l-.027.027a1,1,0,0,0,.531,1.7H2a1,1,0,1,0,0,2H27.964a1,1,0,1,0,0-2,1,1,0,0,0,.587-1.8l.006-.008L19.94,15.319a3.382,3.382,0,0,0-1.833-2.128c-1.345-.55-7.718-3.027-7.718-3.027l0,0A2.5,2.5,0,0,0,9.489,10Zm1.5,5.339,6.271,2.389,9.987,4.024.289.137a1,1,0,0,0,.386.1H7.144a1,1,0,0,0,.554-.293l.02-.02.012.008.146-.166,2.819-2.819a1,1,0,0,0,.293-.706Z" stroke="none"/>
    <path d="M 3.496671676635742 9.000003814697266 C 3.222812652587891 9.000003814697266 3.000001907348633 9.222814559936523 3.000001907348633 9.496673583984375 C 3.000001907348633 9.770544052124023 3.222812652587891 9.993354797363281 3.496671676635742 9.993354797363281 C 3.770542144775391 9.993354797363281 3.993352890014648 9.770544052124023 3.993352890014648 9.496673583984375 C 3.993352890014648 9.222814559936523 3.770542144775391 9.000003814697266 3.496671676635742 9.000003814697266 M 9.4857177734375 11.99602317810059 C 9.231838226318359 11.99753570556641 9.022480010986328 12.19046974182129 8.995067596435547 12.43399429321289 L 18.01381301879883 15.87087440490723 L 18.00598907470703 15.83375644683838 C 17.97004699707031 15.73187923431396 17.7689380645752 15.21382141113281 17.34893226623535 15.04209423065186 C 16.39326667785645 14.65117645263672 12.79416847229004 13.24687194824219 10.87908363342285 12.50101280212402 L 10.87741279602051 12.50268363952637 L 9.661142349243164 12.02975463867188 C 9.604978561401367 12.00791549682617 9.545980453491211 11.9965763092041 9.4857177734375 11.99602317810059 M 27.96029663085938 22.21695709228516 L 27.92318153381348 23.9791374206543 C 27.93676376342773 23.97968673706055 27.95040893554688 23.97996520996094 27.9641227722168 23.97996520996094 L 27.96029663085938 22.21695709228516 M 3.496671676635742 7.000003814697266 C 4.875553131103516 7.000003814697266 5.993352890014648 8.117803573608398 5.993352890014648 9.496673583984375 C 5.993352890014648 10.87555503845215 4.875553131103516 11.99335479736328 3.496671676635742 11.99335479736328 C 2.117801666259766 11.99335479736328 1.000001907348633 10.87555503845215 1.000001907348633 9.496673583984375 C 1.000001907348633 8.117803573608398 2.117801666259766 7.000003814697266 3.496671676635742 7.000003814697266 Z M 9.488702774047852 9.996013641357422 C 9.795673370361328 9.996944427490234 10.0998420715332 10.05446434020996 10.38595199584961 10.16571426391602 L 10.38790321350098 10.16376495361328 C 10.38790321350098 10.16376495361328 16.76093292236328 12.64071464538574 18.10614395141602 13.19098472595215 C 19.54722213745117 13.78019332885742 19.93964385986328 15.31901454925537 19.93964385986328 15.31901454925537 L 28.55708312988281 20.16802406311035 L 28.55123329162598 20.17582321166992 C 28.89860153198242 20.43101501464844 29.04314231872559 20.88022422790527 28.90976333618164 21.29010391235352 C 28.7763729095459 21.69997406005859 28.3951530456543 21.97809410095215 27.9641227722168 21.97996520996094 C 28.51572227478027 21.97996520996094 28.96289253234863 22.4271354675293 28.96289253234863 22.97873497009277 C 28.96289253234863 23.53034400939941 28.51667213439941 23.97967910766602 27.9641227722168 23.97741317749023 L 1.998672485351562 23.97750473022461 C 1.447063446044922 23.97750473022461 0.9999027252197266 23.53034400939941 0.9999027252197266 22.97873497009277 C 0.9999027252197266 22.42716789245605 1.446924209594727 21.98006439208984 1.99848747253418 21.98006439208984 C 1.99852180480957 21.98006439208984 1.998638153076172 21.98006439208984 1.998672485351562 21.98006439208984 L 6.816482543945312 21.98006439208984 C 6.443702697753906 21.91863441467285 6.137493133544922 21.65211486816406 6.025222778320312 21.29138565063477 C 5.912961959838867 20.93063354492188 6.013853073120117 20.53742408752441 6.285932540893555 20.27530288696289 L 6.313241958618164 20.24799346923828 L 8.601213455200195 17.56016540527344 L 7.150022506713867 13.36848449707031 L 7.151971817016602 13.36653518676758 C 7.046852111816406 13.08715438842773 6.992671966552734 12.79119491577148 6.992023468017578 12.49269485473633 C 6.992023468017578 11.11381340026855 8.109832763671875 9.996013641357422 9.488702774047852 9.996013641357422 Z M 27.92316246032715 21.98006439208984 C 27.78932189941406 21.97442436218262 27.65798187255859 21.94191360473633 27.53695297241211 21.88449478149414 L 27.24827194213867 21.74795532226562 L 17.26156234741211 17.72401428222656 L 10.9906120300293 15.33461380004883 L 10.98671340942383 17.98538398742676 C 10.98666191101074 18.25022506713867 10.88142204284668 18.50421524047852 10.69413185119629 18.69147491455078 L 7.875621795654297 21.50998306274414 L 7.729331970214844 21.67578506469727 L 7.717622756958008 21.66798400878906 L 7.698122024536133 21.68748474121094 C 7.54962158203125 21.84190368652344 7.355413436889648 21.94447326660156 7.144172668457031 21.98006439208984 L 27.92316246032715 21.98006439208984 Z" stroke="none" fill="#000"/>
  </g>
</svg>
