<svg xmlns="http://www.w3.org/2000/svg" width="20.1" height="21.926" viewBox="0 0 20.1 21.926">
  <g id="icons8-guru-50" transform="translate(-4 -3)" fill="none">
    <path d="M14.05,3A2.741,2.741,0,1,0,16.79,5.741,2.741,2.741,0,0,0,14.05,3Zm0,7.309q-.046,0-.091,0h-.005a6.677,6.677,0,0,0-1.006.089A4.738,4.738,0,0,0,9.385,13.28L7.856,16.952,4.5,18.628a.914.914,0,0,0,.817,1.634l3.654-1.827a.914.914,0,0,0,.435-.466l.983-2.363V19.58L7.506,21.627a1.822,1.822,0,0,0-.65,2.123,1.9,1.9,0,0,0,1.808,1.176h1.907a2.45,2.45,0,0,1,.548-2.643,2.7,2.7,0,0,1,2.218-1.006,2.235,2.235,0,0,1,.714.145c.163.055,3.023.962,3.023.962l-4.006.719a.914.914,0,0,0,.068,1.824h6.406a1.725,1.725,0,0,0,1.547-1.171.914.914,0,0,0,.269-.646,1.825,1.825,0,0,0-.764-1.483h0L17.7,19.58V15.607l.983,2.363a.914.914,0,0,0,.435.466l3.654,1.827a.914.914,0,0,0,.817-1.634l-3.351-1.676L18.714,13.28A4.738,4.738,0,0,0,15.152,10.4h0a6.654,6.654,0,0,0-1.017-.089q-.042,0-.084,0Z" stroke="none"/>
    <path d="M 14.04957485198975 4.999994277954102 C 13.64109516143799 4.999994277954102 13.30877494812012 5.332324981689453 13.30877494812012 5.740804672241211 C 13.30877494812012 6.149284362792969 13.64109516143799 6.481603622436523 14.04957485198975 6.481603622436523 C 14.4580545425415 6.481603622436523 14.79037475585938 6.149284362792969 14.79037475585938 5.740804672241211 C 14.79037475585938 5.332324981689453 14.4580545425415 4.999994277954102 14.04957485198975 4.999994277954102 M 14.0566349029541 12.3115348815918 L 14.04717445373535 12.31237411499023 L 13.96935272216797 12.31237411499023 C 13.72749328613281 12.31665515899658 13.49545574188232 12.33729457855225 13.27719497680664 12.37411403656006 C 12.3836145401001 12.52378463745117 11.59963417053223 13.1657247543335 11.23152542114258 14.04863452911377 L 10.72194480895996 15.27234077453613 L 12.39517498016357 15.606614112854 L 12.39517498016357 19.34542083740234 C 12.65959930419922 19.29804420471191 12.92923450469971 19.27373886108398 13.20147514343262 19.27373504638672 C 13.28180503845215 19.27373504638672 13.36329460144043 19.27590560913086 13.44124507904053 19.28004455566406 C 14.06631469726562 19.31247329711914 14.46234512329102 19.44854354858398 14.65267467498779 19.51393508911133 L 14.68689441680908 19.52556419372559 C 14.75543022155762 19.54829406738281 15.17068672180176 19.68068313598633 15.70397472381592 19.85026550292969 L 15.70397472381592 15.606614112854 L 17.37720680236816 15.27234077453613 L 16.86774444580078 14.04891395568848 C 16.50541305541992 13.17920112609863 15.7393627166748 12.54353427886963 14.8619441986084 12.38117980957031 L 14.81729507446289 12.37363433837891 C 14.59547519683838 12.33615398406982 14.35654449462891 12.31548404693604 14.10713481903076 12.31220436096191 L 14.0566349029541 12.3115348815918 M 17.58340454101562 21.94650268554688 L 17.5198860168457 22.92640495300293 L 18.96569061279297 22.92640495300293 L 17.58340454101562 21.94650268554688 M 14.04957485198975 2.999994277954102 C 15.56327438354492 2.999994277954102 16.79037475585938 4.227094650268555 16.79037475585938 5.740804672241211 C 16.79037475585938 7.254505157470703 15.56327438354492 8.481603622436523 14.04957485198975 8.481603622436523 C 12.53587532043457 8.481603622436523 11.30877494812012 7.254505157470703 11.30877494812012 5.740804672241211 C 11.30877494812012 4.227094650268555 12.53587532043457 2.999994277954102 14.04957485198975 2.999994277954102 Z M 14.03968143463135 10.30875015258789 C 14.04406452178955 10.30875015258789 14.0484447479248 10.30879974365234 14.05282974243164 10.30879783630371 C 14.07973289489746 10.30879783630371 14.10663795471191 10.30998992919922 14.13344478607178 10.31237411499023 C 14.4906644821167 10.31707382202148 14.83263492584229 10.34787368774414 15.15053462982178 10.4015941619873 L 15.15231513977051 10.4015941619873 C 16.77143478393555 10.67320442199707 18.09493446350098 11.79396438598633 18.71393585205078 13.27978420257568 L 20.24314498901367 16.95203399658203 L 23.59419441223145 18.6275634765625 C 24.04555511474609 18.85323333740234 24.22849464416504 19.40207481384277 24.0028247833252 19.85342407226562 C 23.77714538574219 20.30478477478027 23.22830581665039 20.48772430419922 22.77695465087891 20.26205444335938 L 19.12255477905273 18.43484497070312 C 18.92621612548828 18.3369255065918 18.77166366577148 18.17160415649414 18.68716430664062 17.96912384033203 L 17.70397567749023 15.606614112854 L 17.70397567749023 19.58041381835938 L 20.59109497070312 21.62709426879883 C 20.59228515625 21.62709426879883 20.59347534179688 21.62709426879883 20.59466552734375 21.62709426879883 C 21.07109451293945 21.96662521362305 21.35837554931641 22.52065467834473 21.35837554931641 23.10991477966309 C 21.35785484313965 23.35245513916016 21.26092529296875 23.58483505249023 21.08893585205078 23.75585556030273 C 20.80934524536133 24.40380477905273 20.28461456298828 24.92640495300293 19.54188537597656 24.92640495300293 L 13.1359748840332 24.92640495300293 C 12.64994525909424 24.9190845489502 12.25473499298096 24.53251457214355 12.23667526245117 24.0467643737793 C 12.21861457824707 23.5610237121582 12.58402442932129 23.14616394042969 13.06816482543945 23.10277557373047 L 17.07409477233887 22.38367462158203 C 17.07409477233887 22.38367462158203 14.21397495269775 21.47670364379883 14.05135440826416 21.42189407348633 C 13.91066455841064 21.37530517578125 13.72497463226318 21.29745483398438 13.33760452270508 21.2773551940918 C 12.4760913848877 21.2316780090332 11.66961479187012 21.62047576904297 11.1196346282959 22.28374481201172 C 10.23983573913574 23.34352493286133 10.30596542358398 24.1809139251709 10.57182502746582 24.92640495300293 L 8.664325714111328 24.92640495300293 C 7.882284164428711 24.92640495300293 7.128095626831055 24.48321533203125 6.856754302978516 23.75050354003906 C 6.559835433959961 22.94927406311035 6.854875564575195 22.09029388427734 7.506265640258789 21.62709426879883 L 10.39517402648926 19.58041381835938 L 10.39517402648926 15.606614112854 L 9.411985397338867 17.96912384033203 C 9.327474594116211 18.17160415649414 9.172935485839844 18.3369140625 8.976594924926758 18.43484497070312 L 5.322195053100586 20.26205444335938 C 4.870840072631836 20.48772621154785 4.322004318237305 20.30478286743164 4.096324920654297 19.85342407226562 C 3.870655059814453 19.40207481384277 4.053594589233398 18.85323333740234 4.504945755004883 18.6275634765625 L 7.85600471496582 16.95203399658203 L 9.385215759277344 13.27978420257568 C 10.00460433959961 11.79415512084961 11.32736396789551 10.6728343963623 12.94682502746582 10.4015941619873 C 13.26180458068848 10.34844398498535 13.6001148223877 10.31769371032715 13.95321464538574 10.31237411499023 C 13.95471668243408 10.31234741210938 13.95614624023438 10.31237983703613 13.95762157440186 10.31237983703613 C 13.95793724060059 10.31237983703613 13.95825481414795 10.3123779296875 13.95857524871826 10.31237411499023 C 13.98554229736328 10.30995941162109 14.01260185241699 10.30875015258789 14.03968143463135 10.30875015258789 Z" stroke="none" fill="#000"/>
  </g>
</svg>
