<svg fill="#000000" xmlns="http://www.w3.org/2000/svg"  viewBox="0 0 32 32" width="32px" height="32px">
<style type="text/css">
	.st0{fill:#3B94FF;}
	.st1{fill:#FFFFFF;}
</style>
<path d="M4.3,12.2c0,1.7,1,3.2,2.5,3.9l0.6,0.2l0.4-0.4l4.5-4.5l0.4-0.4l-0.2-0.6c-0.7-1.5-2.1-2.5-3.9-2.5
	C6.2,7.9,4.3,9.8,4.3,12.2z M10.5,10.7l-3.4,3.4C6.5,13.6,6,13,6,12.2c0-1.4,1.1-2.5,2.5-2.5C9.4,9.6,10,10.1,10.5,10.7z M12.1,12.7
	l3.4,1.4l-0.8,0.8l-2.8-2l-1.2,1.2l2.8,2l-1.1,1.1l-2-2.8l-1.2,1.2l2,2.8l-0.8,0.8L9,15.7L7.7,17L13,29.8l0.5,0.1c0,0,0.2,0,0.6,0
	c1,0,3.3-0.2,4.9-1.7c1.6-0.1,2.9-0.6,3.8-1.6c1.4-1.4,1.7-3.3,1.7-4c2-2.5,1.7-5.4,1.7-5.5l-0.1-0.5l-12.8-5.3L12.1,12.7z
	 M24.6,17.8c0,0.7-0.2,2-1.1,3.3l-7.4-5.2l1.1-1.1L24.6,17.8z M22.9,22.7c-0.1,1.1-0.7,3.6-3.8,3.8l-5.6-7.9l1.5-1.5L22.9,22.7z
	 M17.5,27.2c-1.1,0.8-2.6,1-3.3,1l-3-7.3l1.1-1.1L17.5,27.2z"/>
<path class="st0" d="M20,4.1L20,4.1c3.4,0,6.2,2.8,6.2,6.2l0,0c0,3.4-2.8,6.2-6.2,6.2l0,0c-3.4,0-6.2-2.8-6.2-6.2l0,0
	C13.8,6.9,16.6,4.1,20,4.1z"/>
<g>
	<path class="st1" d="M19.7,10.7c-0.1,0-0.2,0-0.4,0c-1,0-1.8,0.8-1.8,1.8s0.8,1.8,1.8,1.8s1.8-0.8,1.8-1.8v-1.8L19.7,10V10.7z"/>
	<polygon class="st1" points="24.2,10.6 21.1,9.1 21.1,8.4 22.3,8.8 22.8,7.5 19.7,6.4 19.7,8.4 16.6,6.9 16.4,7.7 19.7,9.4 
		24,11.5 	"/>
</g>
</svg>
