<svg fill="#000000" xmlns="http://www.w3.org/2000/svg"  viewBox="0 0 32 32" width="32px" height="32px">
<g>
	<path d="M18,9c1.6,0,3-1.4,3-3s-1.4-3-3-3s-3,1.4-3,3S16.4,9,18,9z M18,5c0.6,0,1,0.4,1,1s-0.4,1-1,1s-1-0.4-1-1S17.4,5,18,5z"/>
	<path d="M19.2,18h-1.9c-0.4-0.8-1-1.6-1.7-2.2l1.2-3.2c0.1-0.2,0.1-0.3,0.1-0.5l2.1,1.1l4.3-0.2l-0.1-2l-3.7,0.1L14,8.2
		c-0.7-0.3-1.5,0-1.8,0.6L10,14.1c-3.7,0.5-6.5,4-5.9,8c0.4,2.8,2.7,5.2,5.5,5.8C14,28.8,18,25.3,18,21c0-0.3,0-0.7-0.1-1h1.3
		l1.3,6.1l1.9-0.4l-1.3-6.1C21,18.6,20.1,18,19.2,18z M13.5,10.2l1.2,0.6c0.3,0.3,0.4,0.7,0.2,1l-1,2.8c-0.6-0.3-1.2-0.5-1.8-0.6
		L13.5,10.2z M11,26c-2.8,0-5-2.2-5-5s2.2-5,5-5s5,2.2,5,5S13.8,26,11,26z"/>
</g>
<path d="M25.7,10.2L25.7,10.2c-0.9,0-1.6-0.7-1.6-1.6l0,0c0-0.9,0.7-1.6,1.6-1.6l0,0c0.9,0,1.6,0.7,1.6,1.6l0,0
	C27.3,9.5,26.6,10.2,25.7,10.2z"/>
</svg>
