<svg fill="#000000" xmlns="http://www.w3.org/2000/svg"  viewBox="0 0 32 32" width="32px" height="32px"><path d="M 19.5 3.125 C 17.578125 3.125 16 4.703125 16 6.625 C 16 8.546875 17.578125 10.125 19.5 10.125 C 21.421875 10.125 23 8.546875 23 6.625 C 23 4.703125 21.421875 3.125 19.5 3.125 Z M 19.5 5.125 C 20.339844 5.125 21 5.785156 21 6.625 C 21 7.464844 20.339844 8.125 19.5 8.125 C 18.660156 8.125 18 7.464844 18 6.625 C 18 5.785156 18.660156 5.125 19.5 5.125 Z M 15.25 10.0625 C 14.898438 10.042969 14.53125 10.125 14.21875 10.28125 L 10.8125 11.96875 C 10.480469 12.132813 10.195313 12.40625 10 12.71875 L 7.90625 16.0625 L 9.625 17.125 L 11.6875 13.78125 L 13.90625 12.6875 L 10.28125 22.25 L 12.15625 22.96875 L 13.28125 19.96875 L 15.59375 20.78125 L 12.5 29 L 14.625 29 L 20.34375 13.8125 L 26.375 18.78125 L 27.625 17.21875 L 20.71875 11.53125 C 20.492188 11.34375 20.226563 11.230469 19.9375 11.15625 L 19.90625 11.15625 L 15.59375 10.125 C 15.480469 10.097656 15.367188 10.070313 15.25 10.0625 Z M 16.15625 12.3125 L 18.5625 12.875 L 16.28125 18.9375 L 13.96875 18.09375 Z M 8 23 C 6.355469 23 5 24.355469 5 26 C 5 27.644531 6.355469 29 8 29 C 9.644531 29 11 27.644531 11 26 C 11 24.355469 9.644531 23 8 23 Z M 8 25 C 8.5625 25 9 25.4375 9 26 C 9 26.5625 8.5625 27 8 27 C 7.4375 27 7 26.5625 7 26 C 7 25.4375 7.4375 25 8 25 Z"/></svg>