<svg fill="#000000" xmlns="http://www.w3.org/2000/svg"  viewBox="0 0 32 32" width="32px" height="32px">
<path d="M17.1,3c-1.6,0-3,1.4-3,3s1.4,3,3,3s3-1.4,3-3S18.8,3,17.1,3z M17.1,5c0.6,0,1,0.4,1,1s-0.4,1-1,1s-1-0.4-1-1S16.6,5,17.1,5
	z M11.7,7.8L8.1,8.2C7.5,8.3,7,8.6,6.6,9.1L4.1,13L5.8,14l2.5-3.8l2.3-0.2l-1.5,4.2c-3.4,0.5-6,3.4-6,6.9c0,3.9,3.1,7,7,7s7-3.1,7-7
	c0-0.3,0-0.7-0.1-1h1.3l1.3,6.1l1.9-0.4l-1.3-6.1c-0.2-0.9-1-1.6-2-1.6h-1.9c-0.4-0.8-1-1.6-1.7-2.2l1.2-3.2c0.5-1.4-0.1-3-1.4-3.7
	L12.9,8v0C12.5,7.8,12.1,7.7,11.7,7.8z M12.7,10.2l0.9,0.5c0.4,0.2,0.6,0.7,0.5,1.2l-1,2.8c-0.6-0.3-1.2-0.5-1.8-0.6L12.7,10.2z
	 M10.1,16c2.8,0,5,2.2,5,5s-2.2,5-5,5s-5-2.2-5-5S7.4,16,10.1,16z"/>
<g>
	<path d="M25.7,27.3c-1.7,0-3.2-1.4-3.2-3.2c0-1.7,1.4-3.2,3.2-3.2c1.7,0,3.2,1.4,3.2,3.2C28.9,25.9,27.4,27.3,25.7,27.3z M25.7,23
		c-0.6,0-1.2,0.5-1.2,1.2s0.5,1.2,1.2,1.2c0.6,0,1.2-0.5,1.2-1.2S26.3,23,25.7,23z"/>
</g>
</svg>
