<svg fill="#000000" xmlns="http://www.w3.org/2000/svg"  viewBox="0 0 32 32" width="32px" height="32px">
<style type="text/css">
	.st0{fill:#3B94FF;}
</style>
<path d="M28.7,12.7c-0.8-0.4-1.7-0.4-2.4-0.1c-0.7,0.3-1.2,0.8-1.6,1.5c-0.3,0.6-0.4,1.4-0.2,2.1c0.2,0.7,0.7,1.4,1.6,1.8
	s1.7,0.4,2.4,0.1c0.7-0.3,1.2-0.8,1.6-1.5c0.3-0.6,0.4-1.4,0.2-2.1C30,13.8,29.5,13.1,28.7,12.7z M27.9,14.2
	c0.4,0.2,0.6,0.5,0.7,0.8s0,0.6-0.1,0.9c-0.2,0.3-0.4,0.5-0.7,0.7s-0.6,0.1-1-0.1s-0.6-0.5-0.7-0.8s0-0.6,0.1-0.9
	c0.2-0.3,0.4-0.5,0.7-0.7S27.5,14,27.9,14.2z M14.4,6.2l-3.5,2.5l-0.1,0.1c-0.3,0.4-0.4,0.8-0.4,1.3l0,0l0.1,3.2l-8.8,3.1l0.7,1.9
	l8.8-3.1l1.2,3l-9.8,3.1l0.6,1.9l9.5-3v0.1l10.8-0.1v-2l-8.9,0.1L13,14.4l0,0c-0.1-0.2-0.3-0.3-0.4-0.4l-0.2-4l3.1-2.3L14.4,6.2z
	 M19.5,10.3c-1-0.5-2-0.5-2.8-0.2c-0.8,0.3-1.5,1-1.9,1.7c-0.4,0.8-0.5,1.7-0.3,2.5c0.2,0.9,0.9,1.7,1.8,2.2c1,0.5,2,0.5,2.8,0.2
	s1.5-1,1.9-1.7c0.4-0.8,0.5-1.7,0.3-2.5C21.1,11.6,20.4,10.8,19.5,10.3z M18.6,12.1c0.5,0.3,0.7,0.6,0.8,0.9c0.1,0.3,0,0.7-0.1,1.1
	s-0.5,0.6-0.8,0.8c-0.3,0.1-0.7,0.2-1.2-0.1s-0.7-0.6-0.8-0.9c-0.1-0.3,0-0.7,0.1-1.1c0.2-0.4,0.5-0.6,0.8-0.8
	C17.7,11.9,18.1,11.9,18.6,12.1z"/>
<path class="st0" d="M19.4,15.3L19.4,15.3c-0.6,0.2-1.2,0-1.5-0.6l-0.8-1.9c-0.2-0.6,0-1.2,0.6-1.5h0c0.6-0.2,1.2,0,1.5,0.6l0.8,1.9
	C20.2,14.4,19.9,15,19.4,15.3z"/>
</svg>
