<svg fill="#000000" xmlns="http://www.w3.org/2000/svg"  viewBox="0 0 50 50" width="50px" height="50px">
<style type="text/css">
	.st0{fill:#3B94FF;}
	.st1{fill:#FFFFFF;}
</style>
<path d="M24,6.6c-3,0.6-4.9,3.4-4.4,6.4c0.6,3,3.4,4.9,6.4,4.4c3-0.6,4.9-3.4,4.4-6.4S27,6,24,6.6z M24.6,9.6
	c1.3-0.2,2.5,0.6,2.7,1.9s-0.6,2.5-1.9,2.7s-2.5-0.6-2.7-1.9C22.5,11.1,23.3,9.9,24.6,9.6z M7.2,14.3c-2.5,0.5-4.2,3-3.7,5.5
	c0.4,1.9,1.8,3.3,3.6,3.7l5.4,1.9c1,0.3,2.1,0.2,2.9-0.5l2.7-2.1l-2.8,16.1l2.9,1.7l1.1-6.4l3.8,0.6L21,47.5l3.1,0.2l4.3-24.4
	l3.4,2.8l1.1,5.6l3.1-0.6l-1.1-5.6c-0.1-0.7-0.5-1.3-1-1.8l-5-4.3c-0.5-0.5-1.2-0.7-1.9-0.7l-6.8-0.3c-0.7,0-1.5,0.2-2.1,0.6
	l-4.4,3.4l-1.8-0.6c0.8-1,1.2-2.4,0.9-3.8C12.2,15.5,9.7,13.9,7.2,14.3z M7.8,17.4c0.9-0.2,1.7,0.4,1.8,1.2c0.2,0.9-0.4,1.7-1.2,1.8
	c-0.9,0.2-1.7-0.4-1.8-1.2C6.4,18.4,6.9,17.6,7.8,17.4z M21.6,21.6l3.9,0.2l-1.7,10L20,31.2L21.6,21.6z"/>
<circle class="st0" cx="37.5" cy="11.9" r="9.9"/>
<path class="st1" d="M37.3,12.7c-0.2,0-0.3,0-0.6,0c-1.5,0-2.8,1.2-2.8,2.8s1.2,2.8,2.8,2.8c1.5,0,2.8-1.2,2.8-2.8v-2.8l-2.1-1.1
	v1.1H37.3z"/>
<polygon class="st1" points="44.2,12.6 39.5,10.3 39.5,9.2 41.3,9.8 42.1,7.8 37.3,6.2 37.3,9.2 32.6,6.9 32.3,8.1 37.3,10.7 
	43.9,14 "/>
</svg>
