<svg fill="#000000" xmlns="http://www.w3.org/2000/svg"  viewBox="0 0 50 50" width="50px" height="50px">
<g>
	<path d="M44.3,29.7c-0.5-2.8-2.8-5-5.6-5.5c-1.7-0.3-3.4,0.1-4.7,0.9l-3.9-2.4l-1.3,2.1l3.2,2c-0.1,0.1-0.2,0.2-0.3,0.3l-2.9-0.7
		l-4.7,1.5l-2.2-2.1c-0.2-0.2-0.1-0.5,0.2-0.5l1.3-0.1l0,0l4-0.1l1.9-2.9l-2.1-1.4L26,22.7l-3,0.1l0,0l-2,0c-2.2,0.1-3,3-1.3,4.4
		l3.9,3.5l5.2-1.6l1.9,0.4c-0.1,0.5-0.2,0.9-0.2,1.4l-2-0.3l-6.6,2.9l-1-0.5l-1.2,2.2l2.1,1.1l7.2-3.1l2.1,0.4
		c1,2.6,3.5,4.5,6.5,4.5C41.7,38,45.1,34.1,44.3,29.7z M37.5,34.8c-0.7,0-1.4-0.2-1.9-0.5l0.1,0l0.3-2.5l-2.2-0.4c0-0.1,0-0.3,0-0.4
		c0-0.3,0-0.6,0.1-0.8l2.6,0.6l0.7-2.4L35.3,28c0.6-0.4,1.4-0.7,2.2-0.7c2.1,0,3.8,1.7,3.8,3.8S39.5,34.8,37.5,34.8z"/>
	<path d="M12.5,24.1c-3.8,0-6.9,3.1-6.9,6.9S8.7,38,12.5,38s6.9-3.1,6.9-6.9S16.4,24.1,12.5,24.1z M12.5,35c-2.2,0-4-1.8-4-4
		c0-2.2,1.8-4,4-4s4,1.8,4,4C16.5,33.2,14.7,35,12.5,35z"/>
	<path d="M15.7,23.6c3,0,5.5-2.5,5.5-5.5s-2.5-5.5-5.5-5.5s-5.5,2.5-5.5,5.5S12.7,23.6,15.7,23.6z M15.7,15.8c1.3,0,2.3,1,2.3,2.3
		s-1,2.3-2.3,2.3s-2.3-1-2.3-2.3S14.4,15.8,15.7,15.8z"/>
</g>
</svg>
