<svg fill="#000000" xmlns="http://www.w3.org/2000/svg"  viewBox="0 0 32 32" width="32px" height="32px">
<g>
	<path d="M17.6,9.9c1.6,0,3-1.4,3-3s-1.4-3-3-3c-1.6,0-3,1.4-3,3S16,9.9,17.6,9.9z M17.6,5.9c0.6,0,1,0.4,1,1s-0.4,1-1,1
		c-0.6,0-1-0.4-1-1S17,5.9,17.6,5.9z"/>
	<path d="M23.7,7.8c-1-0.2-1.9,0.5-2.1,1.5c-0.2,0.8,0.2,1.6,0.9,2l-0.1,0.5L19.1,12l-5.5-2.9c-0.7-0.3-1.5,0-1.8,0.6L9.6,15
		c-3.7,0.5-6.5,4-5.9,8c0.4,2.8,2.7,5.2,5.5,5.8c4.4,0.9,8.4-2.6,8.4-6.9c0-0.3,0-0.7-0.1-1h1.3l1.3,6.1l1.9-0.4l-1.3-6.1
		c-0.1-1-1-1.6-1.9-1.6h-1.9c-0.4-0.8-1-1.6-1.7-2.2l1.2-3.2c0.1-0.2,0.1-0.3,0.1-0.5l2.1,1.1l4.3-0.2l0-0.9l0.4-1.4
		c0.8,0,1.6-0.6,1.8-1.6C25.2,9,24.6,8,23.7,7.8z M13.1,11.1l1.2,0.6c0.3,0.3,0.4,0.7,0.2,1l-1,2.8c-0.6-0.3-1.2-0.5-1.8-0.6
		L13.1,11.1z M15.6,21.9c0,2.8-2.2,5-5,5s-5-2.2-5-5s2.2-5,5-5S15.6,19.1,15.6,21.9z"/>
	<circle cx="25.6" cy="6" r="0.6"/>
</g>
</svg>
