<svg fill="#000000" xmlns="http://www.w3.org/2000/svg"  viewBox="0 0 32 32" width="32px" height="32px">
<g>
	<g>
		<path d="M16.9,9c1.6,0,3-1.4,3-3s-1.4-3-3-3s-3,1.4-3,3S15.3,9,16.9,9z M16.9,5c0.6,0,1,0.4,1,1s-0.4,1-1,1s-1-0.4-1-1
			S16.3,5,16.9,5z"/>
	</g>
	<g>
		<path d="M18.1,18h-1.9c-0.4-0.8-1-1.6-1.7-2.2l1.2-3.2c0.1-0.2,0.1-0.3,0.1-0.5l2.1,1.1l4.3-0.2l-0.1-2l-3.7,0.1l-5.5-2.9
			c-0.7-0.3-1.5,0-1.8,0.6l-2.2,5.3c-3.7,0.5-6.5,4-5.9,8c0.4,2.8,2.7,5.2,5.5,5.8c4.4,0.9,8.4-2.6,8.4-6.9c0-0.3,0-0.7-0.1-1h1.3
			l1.3,6.1l1.9-0.4L20,19.6C19.9,18.6,19,18,18.1,18z M12.4,10.2l1.2,0.6c0.3,0.3,0.4,0.7,0.2,1l-1,2.8c-0.6-0.3-1.2-0.5-1.8-0.6
			L12.4,10.2z M9.9,26c-2.8,0-5-2.2-5-5s2.2-5,5-5s5,2.2,5,5S12.7,26,9.9,26z"/>
	</g>
</g>
<g>
	<path d="M24.3,10.4c-0.4,0-0.9,0-1.3-0.1c-0.7-0.1-1.2-0.8-1.2-1.5V8.6l0.1-0.2c0.2-0.7,0.9-2.4,2.4-3.2c1.5-0.9,3.1-0.6,3.9-0.5
		c0.8,0.1,1.2,0.8,1.2,1.5v0.2l-0.1,0.2c-0.2,0.7-0.9,2.4-2.4,3.2C26.2,10.2,25.3,10.4,24.3,10.4z M24.1,8.4c0.9,0,1.5-0.2,1.8-0.4
		c0.6-0.3,1-0.9,1.2-1.4c-0.6,0-1.3,0-1.8,0.4C24.7,7.3,24.3,7.9,24.1,8.4z"/>
</g>
</svg>
