<svg fill="#000000" xmlns="http://www.w3.org/2000/svg"  viewBox="0 0 50 50" width="50px" height="50px">
<g>
	<path d="M20.2,18.4c2,0,3.6-1.6,3.6-3.6c0-2-1.6-3.6-3.6-3.6c-2,0-3.6,1.6-3.6,3.6C16.6,16.7,18.2,18.4,20.2,18.4z M19,14.7
		c0-0.7,0.5-1.2,1.2-1.2c0.7,0,1.2,0.5,1.2,1.2c0,0.7-0.5,1.2-1.2,1.2C19.5,15.9,19,15.4,19,14.7z"/>
	<path d="M12.7,27.4c-2.8,0-5.2,2.3-5.2,5.2s2.3,5.2,5.2,5.2c2.9,0,5.2-2.3,5.2-5.2S15.6,27.4,12.7,27.4z M15.2,32.6
		c0,1.4-1.1,2.5-2.5,2.5s-2.5-1.1-2.5-2.5s1.1-2.5,2.5-2.5S15.2,31.2,15.2,32.6z"/>
	<path d="M36.5,27.4c-2.4,0-4.4,1.6-5,3.8h-9v2.7h9c0.6,2.2,2.6,3.8,5,3.8c2.8,0,5.2-2.3,5.2-5.2S39.3,27.4,36.5,27.4z M38.9,32.6
		c0,1.4-1.1,2.5-2.5,2.5S34,33.9,34,32.6s1.1-2.5,2.5-2.5S38.9,31.2,38.9,32.6z"/>
	<path d="M26.7,22.6h-3.4l-3.2-3.3c-0.5-0.4-1.1-0.6-1.8-0.5c-0.6,0.1-1.2,0.4-1.6,0.9l-2.6,3.1c-0.5,0.6-0.6,1.3-0.5,2.1
		c0.2,0.8,0.6,1.4,1.3,1.7l3.8,1.9l0.1,5.9l2.7,0.5l-0.1-7.9l-5-2.7l2.2-2.7L22,25l0.4,0.3h4.4V22.6z"/>
	<path d="M27.3,20c0.3,0.1,0.7,0.1,1,0.1c1.5,0,2.9-1,3.4-2.5c0.5-1.8-0.5-3.8-2.4-4.3v0c-0.9-0.3-1.8-0.2-2.7,0.3
		c-0.8,0.4-1.4,1.2-1.7,2.1c-0.3,0.9-0.2,1.8,0.3,2.7C25.7,19.2,26.4,19.8,27.3,20z M29.4,17c-0.2,0.6-0.8,0.9-1.4,0.8
		c-0.6-0.2-1-0.8-0.8-1.4c0.1-0.5,0.6-0.8,1.1-0.8c0.1,0,0.2,0,0.3,0C29.2,15.7,29.6,16.4,29.4,17z"/>
	<path d="M38,23.8l-5.4,0.8c0,0-0.1,0-0.4-0.4l-0.9-1l3.8,0l3.2-0.9c0.3,0.2,0.6,0.3,1,0.3c0,0,0.1,0,0.1,0c0.6,0,1.2-0.2,1.7-0.7
		c0.5-0.5,0.8-1.1,0.8-1.8c0.1-1.4-1-2.6-2.4-2.7c-1.4-0.1-2.6,1-2.7,2.4l-2.2,0.6l-4,0c-0.6-0.1-1.2,0-1.6,0.3
		c-1,0.7-1.3,1.9-0.8,3l1.9,2.2c0.3,0.4,1.2,1.4,2.7,1.3l5-0.7l5.8,1.6l0.7-2.6L38,23.8z M39.3,19.1C39.3,19.1,39.3,19.1,39.3,19.1
		c0.5,0,0.9,0.4,0.8,0.9c0,0.2-0.1,0.4-0.3,0.6c-0.2,0.1-0.4,0.2-0.6,0.2c-0.2,0-0.4-0.1-0.6-0.3c-0.1-0.2-0.2-0.4-0.2-0.6
		C38.5,19.4,38.9,19.1,39.3,19.1z"/>
</g>
</svg>
