<svg fill="#000000" xmlns="http://www.w3.org/2000/svg"  viewBox="0 0 32 32" width="32px" height="32px">
<g>
	<path d="M26.7,20.7c-0.3-0.5-0.9-0.8-1.6-0.8l-3.5,0.2c-0.3-0.7-0.8-1.4-1.3-2l0,0l-1.3-4.9l2.1-1.6c0.4-0.3,0.7-0.8,0.7-1.4
		l0.1-4.2l-1.8,0l-0.1,4.2l-1.6,1.2c-0.5-0.6-1.3-0.9-2-0.7L14.9,11c-0.6,0.1-1.1,0.5-1.4,1c-0.1,0.2-0.2,0.4-0.2,0.6l-1.8,0.6
		l-2.7-1.6L8,8.7C8.3,8.4,8.6,8,8.8,7.5C9.1,6.8,9.1,6,8.9,5.2c-0.2-0.8-0.6-1.5-1.2-2C7.1,2.7,6.3,2.5,5.6,2.6
		C4.9,2.8,4.3,3.4,4.1,4.2C3.8,4.8,3.8,5.7,4,6.5c0.2,0.8,0.6,1.5,1.2,2C5.6,8.8,6,9,6.5,9.1l0.7,2.9l-0.4,0.7l3.6,2.2
		c0.5,0.3,1,0.4,1.6,0.2l1.4-0.5l0.6,2c-2.8,0.7-4.9,3.3-4.9,6.3c0,3.6,2.9,6.5,6.5,6.5s6.5-2.9,6.5-6.5c0-0.2,0-0.5,0-0.7l2.6-0.2
		l-2.6,4.6l1.7,1l2.8-5.1C27,22,27,21.3,26.7,20.7z M5.4,6.1c-0.1-0.5-0.1-1,0-1.4C5.5,4.5,5.7,4.2,6,4.1c0,0,0.1,0,0.1,0
		c0.2,0,0.5,0.2,0.6,0.3C7,4.6,7.3,5.1,7.4,5.6c0.1,0.5,0.1,1,0,1.4C7.3,7.2,7.2,7.5,6.9,7.6C6.6,7.7,6.3,7.5,6.2,7.3
		C5.8,7.1,5.6,6.6,5.4,6.1z M15.1,13.1c0,0,0-0.1,0.1-0.1l1.3-0.3c0.1,0,0.2,0,0.2,0.1l1.1,3.8c-0.6-0.2-1.2-0.3-1.8-0.4l-0.9-3.1
		C15.1,13.1,15.1,13.1,15.1,13.1z M15.6,27.3c-2.5,0-4.5-2-4.5-4.5s2-4.5,4.5-4.5s4.5,2,4.5,4.5S18.1,27.3,15.6,27.3z"/>
	<path d="M15.1,10.6c1.5,0,2.8-1.2,2.8-2.8c0-1.5-1.2-2.8-2.8-2.8c-1.5,0-2.8,1.2-2.8,2.8C12.4,9.4,13.6,10.6,15.1,10.6z M15.1,6.9
		c0.5,0,0.9,0.4,0.9,0.9s-0.4,0.9-0.9,0.9c-0.5,0-0.9-0.4-0.9-0.9S14.6,6.9,15.1,6.9z"/>
	<path d="M22.1,4.8c0.5,0,0.9-0.4,0.9-0.9S22.6,3,22.1,3s-0.9,0.4-0.9,0.9S21.6,4.8,22.1,4.8z"/>
</g>
</svg>
