<svg fill="#000000" xmlns="http://www.w3.org/2000/svg"  viewBox="0 0 32 32" width="50px" height="50px"><path d="M 10.5 4 C 8.578125 4 7 5.578125 7 7.5 C 7 9.421875 8.578125 11 10.5 11 C 10.652344 11 10.789063 10.988281 10.9375 10.96875 L 8.34375 11.5625 C 7.660156 11.722656 7.023438 12.09375 6.53125 12.59375 L 4.46875 14.6875 C 3.933594 15.234375 3.839844 16.042969 4.25 16.6875 C 4.644531 17.304688 5.398438 17.582031 6.09375 17.375 L 7.25 17.15625 L 6.625 21.09375 L 4.53125 27 L 6.65625 27 L 8.53125 21.65625 L 9.65625 14.625 L 6.75 15.21875 L 7.96875 14 C 8.199219 13.769531 8.464844 13.605469 8.78125 13.53125 L 11.625 12.84375 L 10.53125 17.375 L 11 21.40625 L 11 27 L 13 27 L 13 21.375 L 12.5625 17.5 L 13.8125 12.34375 L 20.1875 10.84375 L 19.75 8.90625 L 11.5625 10.8125 C 12.960938 10.351563 14 9.042969 14 7.5 C 14 5.578125 12.421875 4 10.5 4 Z M 24.5 5 C 22.578125 5 21 6.578125 21 8.5 C 21 10.421875 22.578125 12 24.5 12 C 26.421875 12 28 10.421875 28 8.5 C 28 6.578125 26.421875 5 24.5 5 Z M 10.5 6 C 11.339844 6 12 6.660156 12 7.5 C 12 8.339844 11.339844 9 10.5 9 C 9.660156 9 9 8.339844 9 7.5 C 9 6.660156 9.660156 6 10.5 6 Z M 24.5 7 C 25.339844 7 26 7.660156 26 8.5 C 26 9.339844 25.339844 10 24.5 10 C 23.660156 10 23 9.339844 23 8.5 C 23 7.660156 23.660156 7 24.5 7 Z M 21.375 11.875 C 20.53125 11.945313 19.710938 12.234375 19 12.71875 L 17.6875 13.59375 L 14.875 12.78125 L 14.3125 14.71875 L 18.0625 15.78125 L 19.6875 14.65625 L 18.78125 17.28125 L 16.9375 20.5 C 16.832031 20.683594 16.773438 20.851563 16.75 21.0625 L 16.125 27 L 18.15625 27 L 18.71875 21.375 L 20.5625 18.1875 L 22.0625 13.90625 C 22.1875 13.917969 22.316406 13.910156 22.4375 13.9375 L 24.40625 14.40625 L 25.5625 16.53125 L 22.84375 15.3125 L 20.875 19.6875 L 22.90625 27 L 25 27 L 23 19.875 L 23.875 17.96875 L 25.46875 18.65625 C 26.128906 19.027344 26.929688 18.90625 27.46875 18.375 C 28.007813 17.84375 28.113281 17.039063 27.75 16.375 L 26.0625 13.25 C 25.859375 12.875 25.511719 12.597656 25.09375 12.5 L 22.90625 12 C 22.402344 11.882813 21.882813 11.832031 21.375 11.875 Z"/></svg>