<svg fill="#000000" xmlns="http://www.w3.org/2000/svg"  viewBox="0 0 32 32" width="50px" height="50px">
<style type="text/css">
	.st0{fill:none;stroke:#000000;stroke-width:3;stroke-miterlimit:10;}
</style>
<g>
	<path d="M27.7,12.6c-2-0.5-4.1,0.8-4.6,2.8c-0.5,2,0.8,4.1,2.8,4.6s4.1-0.8,4.6-2.8C31.1,15.2,29.8,13.1,27.7,12.6z M28.4,16.7
		c-0.2,0.9-1.1,1.4-2,1.2c-0.9-0.2-1.4-1.1-1.2-2c0.2-0.9,1.1-1.4,2-1.2C28.1,14.9,28.6,15.8,28.4,16.7z"/>
	<path class="st0" d="M21.3,27.4l5.5-0.3l3.5-6c0.7-1.1,2.1-1.4,3.3-0.8l7.6,4.1c0.8,0.4,1.2,1.3,1,2.2l-1.6,6.2l6.3,6.8"/>
	<polyline class="st0" points="27.6,31.5 30.6,28.2 30.6,24.2 	"/>
	<polyline class="st0" points="42.1,25.4 34.9,31.8 33.3,39.5 	"/>
	<line class="st0" x1="29" y1="23.4" x2="38.7" y2="28.4"/>
</g>
<g>
	<path d="M20.7,7.4c-2.1-0.5-4.4,0.8-4.9,3c-0.5,2.1,0.8,4.4,3,4.9c2.1,0.5,4.4-0.8,4.9-3C24.3,10.1,23,7.9,20.7,7.4z M21.5,11.7
		c-0.2,1-1.2,1.5-2.1,1.3c-1-0.2-1.5-1.2-1.3-2.1c0.2-1,1.2-1.5,2.1-1.3C21.2,9.8,21.7,10.8,21.5,11.7z"/>
	<path class="st0" d="M25.4,23.3h-5l-2.9-5.6c-0.2-0.5-0.7-1.1-1.1-1.3l0,0c-1.1-0.7-2.6-0.2-3.2,0.9l-4.5,8.5
		c-0.3,0.6-0.5,1.2-0.5,1.9l1,6l-6.2,4.8"/>
	<polyline class="st0" points="19.1,38.6 16.3,30.1 8.4,26.7 	"/>
	<line class="st0" x1="12.9" y1="28.7" x2="17.9" y2="18.4"/>
</g>
</svg>
