<svg fill="#000000" xmlns="http://www.w3.org/2000/svg"  viewBox="0 0 50 50" width="50px" height="50px">
<g>
	<path d="M43.4,23.5l-1.8-6.7l5.1-4.3l-2-2.4l-5.9,5c-0.7,0.6-0.9,1.6-0.7,2.4l1.1,3.2L38,20.2l-4.8-3.5l-2-6.4l-2.9,0.9l2,6.5
		c0.1,0.4,0.3,0.7,0.7,1l4.8,4L31,27.5l0,0l-3.8-3.9L25.6,22c-0.1-0.1-0.2-0.2-0.3-0.3l-3.4-2.4c-0.4-0.3-5.7-3.2-7.3-4.1
		c-1.7-0.9-3.8-0.2-4.7,1.6L6,24.2c-0.4,0.8-0.4,1.3-0.4,1.9l1,7.2L2,38.8l2.2,1.8l5.1-5.9c0.3-0.4,0.5-0.8,0.5-1.3L9,28.9l1.5,0.7
		L13,34l2,6.4l2.8-0.8l-2-6.3c0,0-0.3-1-0.4-1.2l-2.5-4.7l3.3-7l0.1-0.7l3.8,2.3l3.4,2.1l1.7,1.9l6.2,6.9c0.1,0.1,0.2,0.2,0.3,0.2
		l0,0c0.1,0.1,0.2,0.1,0.3,0.1l0,0c1.4,0.9,3.2,0.8,4.5-0.4l6.1-6.3c0.8-0.8,1.1-1.8,1-2.8v-0.1v-0.1C43.4,23.6,43.4,23.6,43.4,23.5
		z M10.7,26.2L9,25.6c-0.4-0.1-0.6-0.6-0.3-1.1l3.3-6.2c0.3-0.5,0.9-0.7,1.4-0.4l1,0.5L10.7,26.2z M40.7,24.6l-6,6.4
		c-0.2,0.2-0.5,0.2-0.8,0l-1.1-1.3l5.4-5.7h2.1C40.8,24,40.9,24.4,40.7,24.6z"/>
	<path d="M18.7,6c-2.3-0.6-4.7,0.9-5.2,3.2c-0.6,2.3,0.9,4.7,3.2,5.2s4.7-0.9,5.2-3.2C22.5,8.9,21.1,6.6,18.7,6z M19.5,10.7
		c-0.2,1-1.3,1.6-2.2,1.3c-1-0.2-1.6-1.3-1.3-2.2c0.2-1,1.3-1.6,2.2-1.3C19.2,8.6,19.8,9.6,19.5,10.7z"/>
	<path d="M26.5,30.2c-2.3-0.6-4.8,0.9-5.3,3.2c-0.6,2.3,0.9,4.8,3.2,5.3c2.3,0.6,4.8-0.9,5.3-3.2C30.3,33.2,28.8,30.8,26.5,30.2z
		 M27.2,34.9c-0.2,1.1-1.3,1.6-2.3,1.4C23.9,36,23.3,35,23.5,34c0.2-1.1,1.3-1.6,2.3-1.4C26.9,32.9,27.5,33.9,27.2,34.9z"/>
</g>
</svg>
