<svg fill="#000000" xmlns="http://www.w3.org/2000/svg"  viewBox="0 0 50 50" width="50px" height="50px">
<path d="M28.4,5.3c-0.8-0.9-2.1-1.5-3.5-1.5c-1.4,0-2.7,0.6-3.5,1.5c-0.8,0.9-1.2,2.1-1.2,3.2s0.4,2.3,1.2,3.2
	c0.8,0.9,2.1,1.5,3.5,1.5c1.4,0,2.7-0.6,3.5-1.5c0.8-0.9,1.2-2.1,1.2-3.2S29.2,6.2,28.4,5.3z M26.1,9.6c-0.2,0.3-0.5,0.5-1.2,0.5
	c-0.7,0-0.9-0.2-1.2-0.5c-0.2-0.3-0.4-0.7-0.4-1.1s0.2-0.8,0.4-1.1c0.2-0.3,0.5-0.5,1.2-0.5c0.7,0,0.9,0.2,1.2,0.5
	c0.2,0.3,0.4,0.7,0.4,1.1S26.3,9.3,26.1,9.6z"/>
<path d="M36.2,40.2c-0.1-0.8-0.2-1.5-0.3-2.3c-0.1-0.8-0.2-1.5-0.3-2.3c-0.1-0.7-0.2-1.4-0.2-2.2c-0.1-0.9-0.4-1.6-1.1-2.1
	c-1.9-1.5-3.8-3-5.8-4.5c-0.1-0.1-0.2-0.2-0.2-0.4c0-1.3,0-2.6,0-3.9c0-0.4,0-0.9,0-1.4c0.1,0.1,0.1,0.1,0.2,0.2
	c0.4,0.4,0.8,0.8,1.2,1.2c0.5,0.5,1.4,0.6,1.9,0c0.6-0.6,2.9-2.8,2.9-2.8l-1.9-2.3c0,0-1.6,1.5-1.8,1.6c-0.7-0.6-1.3-1.3-1.9-1.9
	c0.1,0,0.1,0,0.2,0c2.2,0,4.5,0,6.7,0c0.5,0,2.4-0.1,2.4-0.1l0.2-3c0,0-12.4,0-17.1,0c-0.1,0-0.2,0-0.3,0c-0.9,0.2-1.6,1.1-1.6,2.1
	c0,3.5,0,7.1,0,10.6c0,0.1,0,0.3,0,0.4c-0.2,1.1-0.4,2.3-0.6,3.4c-0.3,1.5-0.6,3.1-0.9,4.6c0,0.2-0.1,0.3-0.2,0.4
	c-1.6,1.7-4.8,5-4.8,5l2.5,2.3c0,0,3.3-3.4,5-5.1c0.4-0.4,0.7-0.9,0.8-1.5c0.2-1.1,0.4-2.1,0.6-3.2c0.2-0.8,0.3-1.7,0.5-2.5
	c0.1-0.5,0.2-0.9,0.3-1.4c0.8,0,3,0,3.8,0c0.1,0,0.3,0.1,0.4,0.1c1.8,1.4,3.5,2.7,5.3,4.1c0.1,0.1,0.2,0.2,0.2,0.3
	c0.1,0.2,0,0.4,0.1,0.6c0.1,0.8,0.2,1.6,0.3,2.3c0.1,0.6,0.1,1.2,0.2,1.8c0.1,0.6,0.1,1.2,0.2,1.8c0.1,0.7,0.2,2.4,0.2,2.4l3.4-0.1
	c0,0,0-0.6-0.1-0.9C36.3,41.4,36.3,40.8,36.2,40.2z M25.1,26.2h-2.6l0-8.8h2.6V26.2z"/>
</svg>
