<svg fill="#000000" xmlns="http://www.w3.org/2000/svg"  viewBox="0 0 32 32" width="50px" height="50px"><path d="M 10 4 C 9.0833335 4 8.268559 4.3797556 7.7519531 4.9609375 C 7.2353472 5.5421194 7 6.2777779 7 7 C 7 7.7222221 7.2353472 8.4578806 7.7519531 9.0390625 C 8.268559 9.6202444 9.0833335 10 10 10 C 10.916666 10 11.731441 9.6202444 12.248047 9.0390625 C 12.764653 8.4578806 13 7.7222221 13 7 C 13 6.2777779 12.764653 5.5421194 12.248047 4.9609375 C 11.731441 4.3797556 10.916666 4 10 4 z M 19.439453 5.171875 L 6.8671875 13.681641 L 6.8613281 13.685547 C 6.0491281 14.247534 5.7698815 15.340578 6.2128906 16.224609 L 7.8242188 19.447266 L 9.6132812 18.552734 L 8 15.330078 L 9.953125 14.007812 L 14 19.335938 L 14 19.337891 L 14 28 L 16 28 L 16 19.337891 C 16 18.899713 15.854354 18.473052 15.591797 18.126953 L 11.611328 12.884766 L 20.560547 6.828125 L 19.439453 5.171875 z M 10 6 C 10.416666 6 10.601893 6.1202444 10.751953 6.2890625 C 10.902014 6.4578806 11 6.7222221 11 7 C 11 7.2777779 10.902014 7.5421194 10.751953 7.7109375 C 10.601893 7.8797556 10.416666 8 10 8 C 9.5833337 8 9.3981073 7.8797556 9.2480469 7.7109375 C 9.0979864 7.5421194 9 7.2777779 9 7 C 9 6.7222221 9.0979864 6.4578806 9.2480469 6.2890625 C 9.3981073 6.1202444 9.5833337 6 10 6 z M 25.595703 9.5449219 L 18.091797 14.804688 L 15.84375 11.832031 L 14.183594 12.955078 L 16.507812 16.027344 C 16.900813 16.525344 17.486078 16.787109 18.080078 16.787109 C 18.472078 16.787109 18.868891 16.672547 19.212891 16.435547 L 26.730469 11.191406 L 25.595703 9.5449219 z"/></svg>