<svg xmlns="http://www.w3.org/2000/svg" width="14.621" height="24.145" viewBox="0 0 14.621 24.145">
  <path id="challenge" d="M6693.639,10462.311h-.9a5.882,5.882,0,0,0,1.306-3.787c0-1.385-1.353-4.236-3.232-5.986h0a15.617,15.617,0,0,0-1.46,1.558,20.3,20.3,0,0,0-2.58-2.889c-2.554,2.37-4.364,5.458-4.364,7.317a5.879,5.879,0,0,0,1.306,3.787h-1.064a1.814,1.814,0,0,0-1.812,1.814V10466a1.816,1.816,0,0,0,1.813,1.813h.453a3.307,3.307,0,0,0,.344,2.729l1.949,3.2a3.332,3.332,0,0,0,2.854,1.608h.012a3.328,3.328,0,0,0,2.851-1.588l1.973-3.186a3.308,3.308,0,0,0,.352-2.764h.207a1.816,1.816,0,0,0,1.813-1.812v-1.879A1.815,1.815,0,0,0,6693.639,10462.311Zm-6.85-6.945c.18.207,2.568,3.256,2.568,3.256l1.522-1.738c.108.18.206.352.293.52a3.1,3.1,0,0,1-.868,3.984,3.487,3.487,0,0,1-2.007.63,3.2,3.2,0,0,1-3.394-2.993c-.006-.088-.008-.176-.006-.264C6684.9,10457.758,6685.529,10456.875,6686.789,10455.365Zm-3.626,9.275h9.959v.844h-2.483a3.23,3.23,0,0,0-.4-.026l-3.92-.013a3.537,3.537,0,0,0-.528.039h-2.627Zm7.961,3.676a1,1,0,0,1-.025,1.035l-1.972,3.186a1.019,1.019,0,0,1-.875.486,1,1,0,0,1-.871-.492l-1.949-3.2a1,1,0,0,1-.018-1.035,1.015,1.015,0,0,1,.6-.482h4.447A1.011,1.011,0,0,1,6691.124,10468.316Z" transform="translate(-6680.839 -10451.206)" fill="#19191c"/>
</svg>
