<svg xmlns="http://www.w3.org/2000/svg" width="23.519" height="21.005" viewBox="0 0 23.519 21.005">
    <defs>
        <style>.a{fill:#fff;stroke:#fff;stroke-width:0.5px;}</style>
    </defs>
    <path class="a" d="M313.56,676.9H295.593a2.54,2.54,0,0,0-2.526,2.527v15.733c0,2.236,3.058,2.856,4.4,1.511l.9-.9a1.168,1.168,0,0,1,.826-.341H313.56a2.539,2.539,0,0,0,2.526-2.527V679.431A2.538,2.538,0,0,0,313.56,676.9Zm-.281,2.807v12.914H298.2a1.146,1.146,0,0,0-.812.336l-.916.915a.35.35,0,0,1-.6-.247V679.711Z" transform="translate(-292.817 -676.654)" />
</svg>