<svg xmlns="http://www.w3.org/2000/svg" width="31.888" height="31.888" viewBox="0 0 31.888 31.888">
  <path id="Tracé_31777" data-name="Tracé 31777" d="M11.274,22.549h0A1.834,1.834,0,0,1,9.44,20.714V14.941a1.834,1.834,0,0,0-1.835-1.834H1.834A1.834,1.834,0,0,1,0,11.274H0A1.834,1.834,0,0,1,1.834,9.44H7.606A1.834,1.834,0,0,0,9.44,7.606V1.834A1.834,1.834,0,0,1,11.274,0h0a1.834,1.834,0,0,1,1.834,1.834V7.606A1.834,1.834,0,0,0,14.942,9.44h5.772a1.834,1.834,0,0,1,1.834,1.834h0a1.834,1.834,0,0,1-1.834,1.834H14.942a1.834,1.834,0,0,0-1.835,1.834v5.773A1.834,1.834,0,0,1,11.274,22.549Z" transform="translate(0 15.944) rotate(-45)" fill="#2b2d2f"/>
</svg>
