<svg xmlns="http://www.w3.org/2000/svg" width="24" height="24" viewBox="0 0 24 24">
  <g id="Groupe_4031" data-name="Groupe 4031" transform="translate(-143 -748)">
    <circle id="Ellipse_267" data-name="Ellipse 267" cx="12" cy="12" r="12" transform="translate(143 748)" fill="#f43e6f"/>
    <path id="Tracé_31777" data-name="Tracé 31777" d="M7.131,14.262h0a1.16,1.16,0,0,1-1.16-1.16V9.45a1.16,1.16,0,0,0-1.16-1.16H1.16A1.16,1.16,0,0,1,0,7.131H0a1.16,1.16,0,0,1,1.16-1.16H4.811a1.16,1.16,0,0,0,1.16-1.16V1.16A1.16,1.16,0,0,1,7.131,0h0a1.16,1.16,0,0,1,1.16,1.16V4.811a1.16,1.16,0,0,0,1.16,1.16H13.1a1.16,1.16,0,0,1,1.16,1.16h0a1.16,1.16,0,0,1-1.16,1.16H9.451A1.16,1.16,0,0,0,8.29,9.45V13.1A1.16,1.16,0,0,1,7.131,14.262Z" transform="translate(155.082 770.002) rotate(-135)" fill="#fff"/>
  </g>
</svg>
