<svg xmlns="http://www.w3.org/2000/svg" width="16.574" height="12.193" viewBox="0 0 16.574 12.193">
    <defs>
        <style>.a{stroke:#000;}</style>
    </defs>
    <path class="a" d="M5.38,6.057A2.809,2.809,0,0,0,3.22,8.2a2.762,2.762,0,0,0,.93,2.716,3.957,3.957,0,0,0-2.062,2.841.557.557,0,0,0,.555.638h0a.56.56,0,0,0,.548-.474,2.8,2.8,0,0,1,2.756-2.323,2.579,2.579,0,0,1,1.888.752,2.18,2.18,0,0,0,.472,2.517,2.839,2.839,0,0,0-1.152,1.625.561.561,0,0,0,.543.7h0a.576.576,0,0,0,.546-.446,1.678,1.678,0,0,1,3.236,0,.576.576,0,0,0,.546.446h0a.561.561,0,0,0,.543-.7,2.839,2.839,0,0,0-1.152-1.625,2.18,2.18,0,0,0,.472-2.517,2.579,2.579,0,0,1,1.888-.752,2.8,2.8,0,0,1,2.756,2.323.56.56,0,0,0,.548.474h0a.557.557,0,0,0,.555-.638,3.957,3.957,0,0,0-2.062-2.841,2.762,2.762,0,0,0,.93-2.716,2.794,2.794,0,1,0-4.531,2.716,3.77,3.77,0,0,0-.786.577,2.168,2.168,0,0,0-2.657,0,3.77,3.77,0,0,0-.786-.577A2.783,2.783,0,0,0,5.38,6.057Zm.57,1.062A1.678,1.678,0,1,1,4.273,8.8,1.67,1.67,0,0,1,5.951,7.118Zm7.83,0A1.678,1.678,0,1,1,12.1,8.8,1.67,1.67,0,0,1,13.781,7.118ZM9.866,12.152a1.119,1.119,0,1,1-1.119,1.119A1.11,1.11,0,0,1,9.866,12.152Z" transform="translate(-1.578 -5.493)" />
</svg>