<svg xmlns="http://www.w3.org/2000/svg" width="24.16" height="27.355" viewBox="0 0 24.16 27.355">
    <defs>
        <style>.a{fill:#040405;}</style>
    </defs>
    <path class="a" d="M6929.776,10468.11a3.2,3.2,0,0,0-.506.039,3.01,3.01,0,0,0-.864-1.78,3.041,3.041,0,0,0-2.146-.894l-10.6-.036a3.046,3.046,0,0,0-2.153.877,3.011,3.011,0,0,0-.886,1.834,3.108,3.108,0,0,0-.508-.04,3.25,3.25,0,0,0-3.246,3.245v5.312a3.247,3.247,0,0,0,4.221,3.1,8.348,8.348,0,0,0,6.485,5.345v1.2h-4.2a3.245,3.245,0,0,0,0,6.49h11.154a3.245,3.245,0,0,0,0-6.49h-4.2v-1.2a8.349,8.349,0,0,0,6.452-5.351,3.244,3.244,0,0,0,4.254-3.084v-5.312A3.249,3.249,0,0,0,6929.776,10468.11Zm-2.76,21.439a.5.5,0,0,1-.5.5h-11.154a.5.5,0,0,1,0-.993h11.154A.5.5,0,0,1,6927.017,10489.55Zm-14.908-12.386a.5.5,0,0,1-.5-.5v-5.312a.5.5,0,0,1,.984-.088l0,5.509A.5.5,0,0,1,6912.108,10477.164Zm8.816,5.307h-.021a5.576,5.576,0,0,1-5.562-5.2v-.318c.008-.093.013-.186.013-.281v-5.312c0-.075,0-.151-.008-.226l0-2.658a.273.273,0,0,1,.084-.2.3.3,0,0,1,.212-.086h0l10.6.037a.3.3,0,0,1,.213.088.275.275,0,0,1,.083.2l-.041,8.8A5.574,5.574,0,0,1,6920.925,10482.471Zm9.349-5.8a.5.5,0,1,1-.993,0v-5.312a.5.5,0,0,1,.993,0Z" transform="translate(-6908.862 -10465.439)" />
</svg>