<svg xmlns="http://www.w3.org/2000/svg" width="13.632" height="13.632" viewBox="0 0 13.632 13.632"><path d="M6.816.563a6.816,6.816,0,1,0,6.816,6.816A6.815,6.815,0,0,0,6.816.563Zm.552,5.445A1.653,1.653,0,0,1,9.015,4.85a1.653,1.653,0,0,1,1.646,1.157.329.329,0,0,1-.544.3L9.856,6.07a1.427,1.427,0,0,0-1.677,0l-.264.236A.332.332,0,0,1,7.369,6.007ZM4.617,4.74a.88.88,0,1,1-.88.88A.879.879,0,0,1,4.617,4.74Zm6.346,4.013a3.961,3.961,0,0,1-3.928,3.463H6.6A3.961,3.961,0,0,1,2.669,8.753a.442.442,0,0,1,.437-.495h7.421A.44.44,0,0,1,10.964,8.753Z" transform="translate(0 -0.563)"/></svg>