<svg xmlns="http://www.w3.org/2000/svg" width="13.363" height="13.576" viewBox="0 0 13.363 13.576"><path d="M9.268,5.3a.647.647,0,1,0,.647.647A.645.645,0,0,0,9.268,5.3ZM6.682.563A6.678,6.678,0,0,0,4.338,13.495,2.578,2.578,0,0,1,4.1,12.417V11.191A2.7,2.7,0,0,1,2.807,9.472a.433.433,0,0,1,.558-.482,11.645,11.645,0,0,0,3.317.41A11.645,11.645,0,0,0,10,8.99a.432.432,0,0,1,.558.482,2.7,2.7,0,0,1-1.288,1.719v1.226a2.578,2.578,0,0,1-.242,1.078A6.678,6.678,0,0,0,6.682.563ZM5.173,6.624,4.917,6.4a1.4,1.4,0,0,0-1.643,0l-.256.229a.323.323,0,0,1-.533-.291A1.621,1.621,0,0,1,4.1,5.2,1.621,1.621,0,0,1,5.712,6.333.327.327,0,0,1,5.173,6.624Zm4.1,1.051a1.724,1.724,0,1,1,1.724-1.724A1.726,1.726,0,0,1,9.268,7.675ZM7.9,10.439a.677.677,0,0,0-.932.474l-.048.21a.239.239,0,0,1-.466,0l-.048-.21a.677.677,0,0,0-.932-.474c-.024.011.008-.005-.509.253v1.7a1.724,1.724,0,1,0,3.449.024V10.69c-.525-.259-.49-.24-.512-.251Z" transform="translate(0 -0.562)"/></svg>