<svg xmlns="http://www.w3.org/2000/svg" width="20.764" height="22.794" viewBox="0 0 20.764 22.794"><defs><style>.a{fill:none;stroke:#000;stroke-linecap:round;stroke-linejoin:round;stroke-width:2.5px;}</style></defs><g transform="translate(1.25 1.25)"><path class="a" d="M28.588,6.044A3.044,3.044,0,1,1,25.544,3a3.044,3.044,0,0,1,3.044,3.044Z" transform="translate(-10.324 -3)"/><path class="a" d="M10.588,16.544A3.044,3.044,0,1,1,7.544,13.5,3.044,3.044,0,0,1,10.588,16.544Z" transform="translate(-4.5 -6.397)"/><path class="a" d="M28.588,27.044A3.044,3.044,0,1,1,25.544,24,3.044,3.044,0,0,1,28.588,27.044Z" transform="translate(-10.324 -9.794)"/><path class="a" d="M12.885,20.265l6.93,4.038" transform="translate(-7.213 -8.586)"/><path class="a" d="M19.805,9.765,12.885,13.8" transform="translate(-7.213 -5.189)"/></g></svg>