<svg xmlns="http://www.w3.org/2000/svg" width="10.915" height="10.911" viewBox="0 0 10.915 10.911"><path d="M9.137,2a1.137,1.137,0,1,0,1.137,1.137A1.137,1.137,0,0,0,9.137,2ZM7.544,4.728a1.905,1.905,0,0,0-.616.107l-1.252.438a.455.455,0,0,0-.24.2L4.429,7.138a.455.455,0,1,0,.78.469l.242-.4.609-.978.949-.238L5.333,9.475l.011.007-.012.02a.455.455,0,0,0,.765.489L7.273,8.8l-.606,3.49,0,0a.455.455,0,1,0,.852.318L9.727,6.7,12.27,8.188l.01.007a.455.455,0,1,0,.535-.735L10.115,5.5a.455.455,0,0,0-.123-.064l-1.83-.61A1.912,1.912,0,0,0,7.544,4.728Zm-3.407,5.91a1.137,1.137,0,1,0,1.137,1.137,1.137,1.137,0,0,0-1.137-1.137Zm9.311.9a.455.455,0,0,0-.313.138,1.565,1.565,0,0,1-.215.17.883.883,0,0,1-.373.151,1.039,1.039,0,0,1-.4-.158,1.847,1.847,0,0,1-.24-.178.455.455,0,0,0-.644.03s-.379.305-.53.305a.883.883,0,0,1-.373-.151,1.565,1.565,0,0,1-.215-.17.455.455,0,0,0-.643,0,1.565,1.565,0,0,1-.215.17A.883.883,0,0,1,8.91,12a.455.455,0,1,0,0,.909,1.557,1.557,0,0,0,.877-.3c.019-.013.014-.013.032-.026.018.013.013.013.032.026a1.556,1.556,0,0,0,.877.3,1.458,1.458,0,0,0,.9-.318c.016.01.012.011.028.021a1.64,1.64,0,0,0,.888.3,1.556,1.556,0,0,0,.877-.3,2.54,2.54,0,0,0,.353-.284.455.455,0,0,0-.33-.78Z" transform="translate(-3 -2)"/></svg>