<svg xmlns="http://www.w3.org/2000/svg" width="9.843" height="11.25" viewBox="0 0 9.843 11.25">
    <defs>
        <style>.a{fill:none;}.b,.c{stroke:none;}.c{fill:#000;}</style>
    </defs>
    <g class="a" transform="translate(-5 -3)">
        <path class="b" d="M12.265,3a1.172,1.172,0,1,0,1.172,1.172A1.172,1.172,0,0,0,12.265,3Zm-.942,2.811-.051,0a1.172,1.172,0,0,0-.3.055l-2.3.418a.469.469,0,0,0-.2.086L6.594,7.781a.469.469,0,0,0,.542.764l0,0,0,0L8.941,7.4l1.008,0L9.533,8.646a2.614,2.614,0,0,0-.314-.021,2.82,2.82,0,0,0-2.812,2.812H5.469a.469.469,0,1,0,0,.938H6.837a.469.469,0,0,0,.17,0H8.281a.469.469,0,1,0,0-.938H7.344a1.875,1.875,0,1,1,1.875,1.875H6.875a.469.469,0,1,0,0,.938H9.218a.469.469,0,0,0,.053,0,2.818,2.818,0,0,0,2.759-2.81,2.788,2.788,0,0,0-.016-.289l.743.237,1.2,2.152v0a.469.469,0,0,0,.858-.37l-.937-2.812a.469.469,0,0,0-.271-.287L11.774,9.33l.163-.484A1.172,1.172,0,0,0,12,8.669l0-.007.444-1.315,0,0a1.166,1.166,0,0,0-1.056-1.53.469.469,0,0,0-.061,0Z" />
        <path class="c" d="M 12.26522445678711 2.999998092651367 C 12.91240406036377 2.999998092651367 13.43704414367676 3.524638175964355 13.43704414367676 4.171817779541016 C 13.43704414367676 4.818997383117676 12.91240406036377 5.343637466430664 12.26522445678711 5.343637466430664 C 11.61805438995361 5.343637466430664 11.09340381622314 4.818997383117676 11.09340381622314 4.171817779541016 C 11.09340381622314 3.524638175964355 11.61805438995361 2.999998092651367 12.26522445678711 2.999998092651367 Z M 11.33283138275146 5.811348915100098 C 11.3501033782959 5.811348915100098 11.36735916137695 5.812300682067871 11.38453388214111 5.814197540283203 C 12.00873374938965 5.844468116760254 12.49935340881348 6.359248161315918 12.49959373474121 6.984188079833984 C 12.49894332885742 7.106437683105469 12.4791841506958 7.227828025817871 12.44100379943848 7.343967437744141 L 12.44283390045166 7.346717834472656 L 11.99882411956787 8.661357879638672 C 11.99822425842285 8.663797378540039 11.99761390686035 8.666237831115723 11.99699401855469 8.66867733001709 C 11.9815845489502 8.729087829589844 11.96137428283691 8.788167953491211 11.93657398223877 8.845367431640625 L 11.77361392974854 9.329658508300781 L 13.61098384857178 10.06478786468506 C 13.73905372619629 10.11581802368164 13.83817386627197 10.22061729431152 13.88197326660156 10.35133743286133 L 14.81942367553711 13.1637077331543 C 14.89494323730469 13.39423751831055 14.78219413757324 13.64431762695312 14.55942344665527 13.7403678894043 C 14.33666324615479 13.83641815185547 14.07741355895996 13.74672698974609 13.96162414550781 13.5335578918457 L 13.96253395080566 13.53721809387207 L 12.75867462158203 11.38491821289062 L 12.01530456542969 11.14780807495117 C 12.02521324157715 11.24309730529785 12.03086376190186 11.33925819396973 12.03086376190186 11.43709754943848 C 12.03086376190186 12.96673774719238 10.79463386535645 14.21788787841797 9.271594047546387 14.24671745300293 C 9.253964424133301 14.24863815307617 9.236252784729004 14.24956035614014 9.218493461608887 14.24946784973145 L 6.87485408782959 14.24950790405273 C 6.615963935852051 14.24950790405273 6.406084060668945 14.03963756561279 6.406084060668945 13.78073787689209 C 6.406084060668945 13.52185344696045 6.615911483764648 13.31200790405273 6.87477970123291 13.31200790405273 C 6.874795913696289 13.31200790405273 6.874837875366211 13.31200790405273 6.87485408782959 13.31200790405273 L 9.218493461608887 13.31200790405273 C 10.25924396514893 13.31200790405273 11.09340381622314 12.47784805297852 11.09340381622314 11.43709754943848 C 11.09340381622314 10.39634799957275 10.25924396514893 9.562187194824219 9.218493461608887 9.562187194824219 C 8.177743911743164 9.562187194824219 7.343584060668945 10.39634799957275 7.343584060668945 11.43709754943848 L 8.281044006347656 11.43705749511719 C 8.539934158325195 11.43705749511719 8.749814033508301 11.64692783355713 8.749814033508301 11.90582847595215 C 8.749814033508301 12.16471195220947 8.539986610412598 12.37455749511719 8.281118392944336 12.37455749511719 C 8.281102180480957 12.37455749511719 8.281059265136719 12.37455749511719 8.281044006347656 12.37455749511719 L 7.007603645324707 12.37455749511719 C 6.951313972473145 12.38494682312012 6.893604278564453 12.38494682312012 6.837324142456055 12.37455749511719 L 5.468673706054688 12.37459754943848 C 5.209774017333984 12.37459754943848 4.999903678894043 12.16472816467285 4.999903678894043 11.90582847595215 C 4.999903678894043 11.64694404602051 5.209721565246582 11.43709754943848 5.468600273132324 11.43709754943848 C 5.468615531921387 11.43709754943848 5.468658447265625 11.43709754943848 5.468673706054688 11.43709754943848 L 6.406133651733398 11.43709754943848 C 6.406133651733398 9.889537811279297 7.670933723449707 8.624737739562988 9.218493461608887 8.624737739562988 C 9.32512378692627 8.624737739562988 9.429183959960938 8.633347511291504 9.532504081726074 8.645788192749023 L 9.949053764343262 7.408058166503906 L 8.941103935241699 7.403477668762207 L 7.142184257507324 8.540508270263672 C 7.141573905944824 8.541117668151855 7.140963554382324 8.541728019714355 7.14034366607666 8.542337417602539 L 7.135773658752441 8.545087814331055 C 6.9248046875 8.682217597961426 6.643213272094727 8.628398895263672 6.49769401550293 8.423137664794922 C 6.352164268493652 8.217877388000488 6.394574165344238 7.934348106384277 6.593804359436035 7.780657768249512 L 8.468713760375977 6.374477386474609 C 8.52678394317627 6.330937385559082 8.594154357910156 6.301477432250977 8.665543556213379 6.288417816162109 L 10.96707439422607 5.870038032531738 C 11.06581401824951 5.83831787109375 11.1683235168457 5.81984806060791 11.27192401885986 5.815117835998535 C 11.29212379455566 5.812552452087402 11.3124885559082 5.811347961425781 11.33283138275146 5.811348915100098 Z" />
    </g>
</svg>