<?xml version="1.0"?>
<svg fill="#000000" xmlns="http://www.w3.org/2000/svg" viewBox="0 0 30 30" width="30px" height="30px">
    <path d="M 4.7734375 2.6289062 A 1.0001 1.0001 0 0 0 3.9941406 3 L 3.5 3 A 0.50005 0.50005 0 1 0 3.5 4 L 3.84375 4 A 1.0001 1.0001 0 0 0 3.890625 4.1035156 L 8.0371094 12.029297 L 9.1464844 16.257812 L 8.3789062 20.164062 L 4.5761719 25.009766 L 4.2929688 25.292969 A 1.0001 1.0001 0 1 0 5.7070312 26.707031 L 9.7070312 22.707031 A 1.0001 1.0001 0 0 0 9.9316406 22.363281 L 12.496094 18.658203 L 14.691406 16.902344 L 15 20.548828 L 15 21 A 1.0001 1.0001 0 1 0 17 21 L 17 15 A 1.0001 1.0001 0 0 0 15.970703 14 A 1.0001 1.0001 0 0 0 15.804688 14.019531 L 13.488281 14.482422 L 14 11 L 15.373047 9.21875 L 16.109375 5.9433594 C 16.44001 6.1030367 16.769934 6.2722423 17.095703 6.4589844 C 21.827991 9.1716943 26 14.816728 26 27 A 0.50005 0.50005 0 1 0 27 27 C 27 14.585272 22.631463 8.479587 17.59375 5.5917969 C 17.14432 5.3341682 16.688629 5.1098108 16.232422 4.9003906 C 16.154482 4.6496091 15.981826 4.4299026 15.728516 4.3027344 C 15.433008 4.1555786 15.10739 4.1832696 14.833984 4.3222656 C 11.198665 3.0088028 7.7358463 2.9838041 5.546875 3 A 1.0001 1.0001 0 0 0 4.7734375 2.6289062 z M 6.09375 4.0019531 C 8.2308616 4.0059521 11.188212 4.1222104 14.263672 5.1835938 L 13.96875 6.2304688 C 13.96875 6.2304688 14 6.987 14 7.5 C 14 8.9227908 13.326035 10.175339 12.294922 11 L 9.7539062 11 L 9.2226562 9.984375 A 2.5 2.5 0 0 0 9.5 10 A 2.5 2.5 0 0 0 12 7.5 A 2.5 2.5 0 0 0 9.5 5 A 2.5 2.5 0 0 0 7.3027344 6.3105469 L 6.09375 4.0019531 z" />
</svg>