<?xml version="1.0"?><svg fill="#000000" xmlns="http://www.w3.org/2000/svg"  viewBox="0 0 30 30" width="30px" height="30px">    <path d="M 22.5 7 A 3.5 3.5 0 0 0 19 10.5 A 3.5 3.5 0 0 0 22.5 14 A 3.5 3.5 0 0 0 26 10.5 A 3.5 3.5 0 0 0 22.5 7 z M 11.017578 8 A 1.0001 1.0001 0 0 0 10.552734 8.1054688 L 4.5527344 11.105469 A 1.0001161 1.0001161 0 0 0 5.3496094 12.935547 L 5.3378906 12.945312 L 10.496094 11.40625 L 12.677734 14.853516 L 5.3476562 19.037109 C 5.8456562 19.375109 7.046 20.017578 9 20.017578 C 10.336 20.017578 11.679375 19.392922 13.234375 18.669922 C 15.105375 17.799922 17.222062 16.823484 19.789062 16.771484 L 17.082031 14.03125 A 1.0001 1.0001 0 0 0 17.052734 13.998047 L 11.730469 8.3164062 A 1.0001 1.0001 0 0 0 11.017578 8 z M 20 18.759766 C 17.728583 18.759766 15.828125 19.668172 14.078125 20.482422 C 12.328125 21.296672 10.728583 22.017578 9 22.017578 C 7.1680833 22.017578 5.8315146 21.559147 4.9511719 21.115234 C 4.0708291 20.671322 3.7109375 20.294922 3.7109375 20.294922 A 1.0012827 1.0012827 0 1 0 2.2890625 21.705078 C 2.2890625 21.705078 2.9291709 22.337757 4.0488281 22.902344 C 5.1684854 23.466931 6.8319167 24.017578 9 24.017578 C 11.271417 24.017578 13.171875 23.109172 14.921875 22.294922 C 16.671875 21.480672 18.271417 20.759766 20 20.759766 C 23.626667 20.759766 26.402344 22.800781 26.402344 22.800781 A 1.0001 1.0001 0 1 0 27.597656 21.199219 C 27.597656 21.199219 24.373333 18.759766 20 18.759766 z"/></svg>