<svg xmlns="http://www.w3.org/2000/svg" xmlns:xlink="http://www.w3.org/1999/xlink" width="22.125" height="25.913" viewBox="0 0 22.125 25.913">
  <defs>
    <clipPath id="clip-path">
      <rect id="Rectangle_469" data-name="Rectangle 469" width="22.125" height="25.913" transform="translate(0 0)" fill="none"/>
    </clipPath>
  </defs>
  <g id="Groupe_4237" data-name="Groupe 4237" transform="translate(0 0)">
    <g id="Groupe_4236" data-name="Groupe 4236" clip-path="url(#clip-path)">
      <path id="Tracé_32431" data-name="Tracé 32431" d="M19.939,7.76a9.269,9.269,0,0,0-5.47-5.829l.005-.015c-.259-.085-1.64-.464-1.989-.517L12.406.974a1.468,1.468,0,0,0-2.764,0s-.07.379-.075.448c-.287.049-1.546.395-1.813.483l0,.014A9.466,9.466,0,0,0,2.147,7.808l-.016,0S-.234,16.119.019,17.6l.005.036a4.323,4.323,0,0,0,2.935,3.585s2.486.52,3.01.595l.161.678a5.116,5.116,0,0,0,3.181,3.13l.972.234a5.326,5.326,0,0,0,1.492,0l.971-.234A5.084,5.084,0,0,0,15.9,22.49l.026.007.162-.676c.523-.076,2.973-.554,3-.558l.089-.022a4.15,4.15,0,0,0,2.916-4.293ZM11.644,22.919a2.294,2.294,0,0,1-2.4-.781,34.963,34.963,0,0,0,3.576,0,2.195,2.195,0,0,1-1.173.781m5.9-4.313v0a32.646,32.646,0,0,1-3.359.5v0a32.87,32.87,0,0,1-6.32,0v0a32.186,32.186,0,0,1-3.349-.5v0c-2.108-.1-1.149-3.654-1.149-3.654.309-1.488,1.011-4.458,1.442-5.9,1.542-6.493,11.518-6.233,12.571.417h0c.31,1.116.865,3.379,1.1,4.509,0,0,1.428,4.42-.934,4.633"/>
    </g>
  </g>
</svg>
