<svg version="1.1" id="Layer_1" xmlns="http://www.w3.org/2000/svg" x="0px" y="0px"
	 viewBox="0 0 32.8 35.3">
<style type="text/css">
	.st0{fill:#FFFFFF;}
</style>
<g>
	<path class="st0" d="M11.5,34.9C11.5,34.9,11.5,34.9,11.5,34.9c-6.3,0-11.3-5.1-11.3-11.3l0-11.9c0-2.1,0.6-4.1,1.7-5.9
		c1.6-2.6,4.1-4.4,7-5c2.9-0.7,6-0.2,8.5,1.4l9.7,6c1.5,0.9,2.8,2.2,3.7,3.7c1.6,2.6,2,5.6,1.3,8.5c-0.7,2.9-2.5,5.4-5.1,7l-9.7,5.9
		C15.6,34.3,13.6,34.9,11.5,34.9z M11.6,6.4c-0.4,0-0.8,0-1.2,0.1C9,6.8,7.8,7.7,7.1,8.9c-0.5,0.8-0.8,1.8-0.8,2.8l0,11.9
		c0,2.9,2.4,5.3,5.3,5.3c0.9,0,1.9-0.3,2.8-0.8l9.7-5.9c1.2-0.7,2.1-1.9,2.4-3.3c0.3-1.4,0.1-2.8-0.6-4c-0.4-0.7-1-1.3-1.7-1.7l0,0
		l-9.7-6C13.5,6.7,12.5,6.4,11.6,6.4z"/>
</g>
</svg>
