<svg xmlns="http://www.w3.org/2000/svg" width="37.145" height="37.145" viewBox="0 0 37.145 37.145"><defs><style>.a{fill:#fff;}</style></defs><path class="a" d="M13.133,26.266h0A2.137,2.137,0,0,1,11,24.129V17.4A2.137,2.137,0,0,0,8.86,15.268H2.136A2.136,2.136,0,0,1,0,13.133H0A2.136,2.136,0,0,1,2.136,11H8.86A2.136,2.136,0,0,0,11,8.86V2.136A2.136,2.136,0,0,1,13.133,0h0a2.136,2.136,0,0,1,2.136,2.136V8.86A2.136,2.136,0,0,0,17.405,11h6.724a2.136,2.136,0,0,1,2.136,2.136h0a2.136,2.136,0,0,1-2.136,2.136H17.405A2.137,2.137,0,0,0,15.268,17.4v6.725A2.137,2.137,0,0,1,13.133,26.266Z" transform="translate(18.572 37.145) rotate(-135)"/></svg>