<svg xmlns="http://www.w3.org/2000/svg" width="20.729" height="24.976" viewBox="0 0 20.729 24.976">
  <g id="Polygone_14" data-name="Polygone 14" transform="translate(20.729) rotate(90)" fill="none">
    <path d="M9.062,5.687a4,4,0,0,1,6.853,0l5.408,8.977A4,4,0,0,1,17.9,20.729H7.08a4,4,0,0,1-3.426-6.064Z" stroke="none"/>
    <path d="M 12.48810195922852 7.251335144042969 C 12.20560169219971 7.251335144042969 12.095871925354 7.433465957641602 12.05982208251953 7.493314743041992 L 6.651351928710938 16.47073554992676 C 6.614101409912109 16.53255462646484 6.500772476196289 16.72066497802734 6.644311904907227 16.97471618652344 C 6.787841796875 17.22875595092773 7.007461547851562 17.22875595092773 7.079631805419922 17.22875595092773 L 17.89657211303711 17.22875595092773 C 17.96874237060547 17.22875595092773 18.18836212158203 17.22875595092773 18.3318920135498 16.97471618652344 C 18.47543144226074 16.72066497802734 18.36210250854492 16.53255462646484 18.32485198974609 16.47073554992676 L 12.91639232635498 7.493324279785156 C 12.88033199310303 7.433475494384766 12.77060222625732 7.251335144042969 12.48810195922852 7.251335144042969 M 12.48810195922852 3.751335144042969 C 13.81247901916504 3.751335144042969 15.13685703277588 4.396615982055664 15.91436195373535 5.687175750732422 L 21.32283210754395 14.66459560394287 C 22.92895126342773 17.33056449890137 21.00897216796875 20.72875595092773 17.89657211303711 20.72875595092773 L 7.079631805419922 20.72875595092773 C 3.967231750488281 20.72875595092773 2.047252655029297 17.33056449890137 3.653371810913086 14.66459560394287 L 9.06184196472168 5.687175750732422 C 9.839346885681152 4.396615982055664 11.16372489929199 3.751335144042969 12.48810195922852 3.751335144042969 Z" stroke="none" fill="#fff"/>
  </g>
</svg>
