<svg xmlns="http://www.w3.org/2000/svg" width="62.329" height="74.498" viewBox="0 0 62.329 74.498">
  <path id="Tracé_31881" data-name="Tracé 31881" d="M258.361,394.824c-1.6-.48-3.109-.862-4.55-1.424-.3-.118-.528-.922-.471-1.369a13.16,13.16,0,0,1,.7-2.407c.372-1.114-.15-1.347-1.1-1.121-1.158.277-2.305.594-3.636.941l-1.575-5.289,4.842-1.356c-1.034-1.146-1.782-2.121-2.68-2.926-.714-.641-.632-.947.011-1.6,1.09-1.106,2.011-2.379,3.062-3.652l4.013,3.73c.4-1.346.745-2.43,1.028-3.531.255-.989,1.021-1.469,1.729-.918,1.151.9,3.863-.589,3.62,2.28a28.662,28.662,0,0,1-.907,3.86c1.429-.335,2.469-.556,3.5-.824,1.206-.314,2.123-.237,2.114,1.344a1.975,1.975,0,0,0,.109.618c1.172,3.546.961,2.846-2.45,3.9-1.18.366-1.547.62-.534,1.561.152.141.257.333.4.486,1.66,1.787,1.657,1.78,3.754.587,7.872-4.476,15.667-4.144,23.331.485.992.6,1.586.691,2.39-.221,1.074-1.216,2.309-2.287,3.44-3.454a21.255,21.255,0,0,0,1.367-1.812h-5.956l-.209-.467c1.122-1.164,2.312-2.271,3.347-3.509a4.691,4.691,0,0,1,4.26-1.7c2.459.147,4.934.078,7.4.018,1.042-.025,1.366.349,1.347,1.367-.051,2.781-.039,5.565,0,8.347a3.449,3.449,0,0,1-1.184,3.036A53.492,53.492,0,0,0,305,393.791l-.411-.193v-5.849l-.4-.233c-.706.6-1.44,1.176-2.111,1.816s-1.286,1.359-1.934,2.035c-1.881,1.963-1.849,1.941-.526,4.2a21.586,21.586,0,0,1,2.4,16.056,21.02,21.02,0,0,1-9.811,13.771c-2.246,1.4-4.955,2.094-7.509,2.941-.805.267-1.153.535-1.147,1.344.014,1.942.03,3.885-.011,5.827-.023,1.025.437,1.358,1.413,1.414,3.673.211,3.672.234,3.639,3.91-.017,1.967-.107,2.06-2.029,2.08-.472.005-.947.036-1.417,0-1.248-.1-1.615.493-1.62,1.69-.019,3.572-.059,3.568-3.587,3.566-2.885,0-2.363-.041-2.4-2.356-.005-.262,0-.525,0-.787,0-2.095,0-2.1-2.047-2.111-.42,0-.84,0-1.26-.005-.262-.005-.587.067-.775-.058-1.818-1.218-.609-3.057-.879-4.6-.155-.879.439-1.342,1.341-1.334.052,0,.105,0,.158,0,3.463-.209,3.465-.209,3.462-3.692q0-2.047-.023-4.095a2.9,2.9,0,0,0-.113-.519,24.539,24.539,0,0,1-9.573-3.968,22.07,22.07,0,0,1-5.547-30.3c.3-.452.505-1.381.256-1.7a12.673,12.673,0,0,0-2.411-2.116,2.876,2.876,0,0,0-.792.933C258.977,392.435,258.744,393.455,258.361,394.824ZM293.873,406.8c.361-7.469-6.242-13.4-12.922-13.562a13.44,13.44,0,1,0-.468,26.876C287.636,420.106,294.022,414.295,293.873,406.8Z" transform="translate(-247.727 -373.669)"/>
</svg>
