<svg xmlns="http://www.w3.org/2000/svg" viewBox="0 0 160 64.27"><defs><style>.cls-1{fill:#fff;}</style></defs><g id="Layer_2" data-name="Layer 2"><g id="Layer_1-2" data-name="Layer 1"><g id="Groupe_2871" data-name="Groupe 2871"><g id="Ellipse_1" data-name="Ellipse 1"><path class="cls-1" d="M128.58,63.76A31.42,31.42,0,1,1,160,32.34,31.46,31.46,0,0,1,128.58,63.76Zm0-40.84A9.42,9.42,0,1,0,138,32.34,9.43,9.43,0,0,0,128.58,22.92Z"/></g><g id="Tracé_19049" data-name="Tracé 19049"><path class="cls-1" d="M70.22,64.27h-.08a23.27,23.27,0,0,1-23.2-23.36L47,23.21A23.29,23.29,0,0,1,82.54,3.49L96.92,12.4a23.29,23.29,0,0,1-.14,39.68l-14.45,8.8A23.3,23.3,0,0,1,70.22,64.27ZM70.29,22A1.28,1.28,0,0,0,69,23.28L68.94,41a1.28,1.28,0,0,0,1.28,1.28,1.72,1.72,0,0,0,.67-.18l14.44-8.8a1.22,1.22,0,0,0,.58-.79,1.18,1.18,0,0,0-.15-1,1.21,1.21,0,0,0-.42-.42h0L71,22.2A1.26,1.26,0,0,0,70.29,22Z"/></g><g id="Groupe_1" data-name="Groupe 1"><g id="Tracé_19050" data-name="Tracé 19050"><path class="cls-1" d="M28.79,63.19c-.68,0-1.36,0-2.05-.08A28.87,28.87,0,0,1,0,36.2l0-.35L0,16.06A15.28,15.28,0,0,1,15.27.85h.1l27,.1a15.25,15.25,0,0,1,15.2,15.24v.06l-.12,20.16A28.78,28.78,0,0,1,28.79,63.19ZM22,35.09a6.78,6.78,0,0,0,13.49.06l.06-12.22L22,22.88ZM42.29,23h0Zm-27-.1h0Z"/></g></g></g></g></g></svg>