<svg xmlns="http://www.w3.org/2000/svg" width="213.206" height="80.614" viewBox="0 0 213.206 80.614">
  <g id="Groupe_3165" data-name="Groupe 3165" transform="translate(11 11)" opacity="0.18">
    <circle id="Ellipse_1" data-name="Ellipse 1" cx="28.291" cy="28.291" r="28.291" transform="translate(134.623 1.291)" fill="none" stroke="#6a6b72" stroke-width="22"/>
    <path id="Tracé_19049" data-name="Tracé 19049" d="M5223.739,9878.085l-19.932-12.34a17.015,17.015,0,0,0-25.969,14.41l-.088,24.531a17.014,17.014,0,0,0,25.866,14.589l20.018-12.194A17.012,17.012,0,0,0,5223.739,9878.085Z" transform="translate(-5112.707 -9863.172)" fill="none" stroke="#6a6b72" stroke-width="22"/>
    <g id="Groupe_1" data-name="Groupe 1" transform="translate(0 1.195)">
      <path id="Tracé_19050" data-name="Tracé 19050" d="M4847.916,9876.147l-.145,26.948a24.636,24.636,0,0,1-49.166-.179l.024-26.942a5.886,5.886,0,0,1,5.926-5.846l37.474.133A5.881,5.881,0,0,1,4847.916,9876.147Z" transform="translate(-4798.605 -9870.129)" fill="none" stroke="#6a6b72" stroke-width="22"/>
    </g>
  </g>
</svg>
