<svg fill="#000000" xmlns="http://www.w3.org/2000/svg"  viewBox="0 0 32 32" width="50px" height="50px"><path d="M 13.5 6 C 11.578125 6 10 7.578125 10 9.5 C 10 11.421875 11.578125 13 13.5 13 C 15.421875 13 17 11.421875 17 9.5 C 17 7.578125 15.421875 6 13.5 6 Z M 13.5 8 C 14.339844 8 15 8.660156 15 9.5 C 15 10.339844 14.339844 11 13.5 11 C 12.660156 11 12 10.339844 12 9.5 C 12 8.660156 12.660156 8 13.5 8 Z M 21.6875 10.34375 L 21.6875 10.375 L 16.53125 13.40625 L 18.59375 14.3125 L 21.1875 12.78125 L 20.40625 16.53125 L 14.1875 14 C 13.121094 13.566406 11.882813 14.125 11.53125 15.21875 L 10.03125 20 L 5 20 C 4.074219 20 3.5 19.804688 3.15625 19.625 C 2.8125 19.445313 2.78125 19.34375 2.78125 19.34375 L 1 17.25 L 1 20 C 1 22.625 1.839844 24.410156 2.90625 25.5 C 3.972656 26.589844 5.113281 27 6 27 L 15.3125 27 L 15.90625 25 L 6 25 C 5.878906 25 5.027344 24.824219 4.34375 24.125 C 3.867188 23.636719 3.488281 22.742188 3.25 21.59375 C 3.78125 21.761719 4.222656 22 5 22 L 17.5 22 L 17.9375 20 L 12.09375 20 L 13.4375 15.84375 L 19.96875 18.5 L 18.9375 23.4375 C 18.597656 23.5 18.269531 23.625 17.96875 23.8125 C 17.351563 24.199219 16.925781 24.789063 16.78125 25.4375 L 15.71875 29 L 17.8125 29 L 18.6875 25.96875 C 18.753906 25.675781 19.003906 25.457031 19.28125 25.40625 L 19.3125 25.40625 L 19.78125 25.5 C 19.800781 25.511719 19.828125 25.519531 19.84375 25.53125 C 20.074219 25.695313 20.1875 26 20.125 26.28125 L 19.4375 29 L 21.5 29 L 22 27 L 26 27 C 26.871094 27 28.023438 26.617188 29.09375 25.53125 C 30.164063 24.445313 31 22.644531 31 20 L 31 17.90625 L 29.375 19.21875 C 29.375 19.21875 28.417969 20 26.84375 20 L 21.6875 20 L 23.625 10.75 Z M 28.75 21.5625 C 28.515625 22.742188 28.140625 23.636719 27.65625 24.125 C 26.972656 24.820313 26.113281 25 26 25 L 21.875 25 C 21.660156 24.527344 21.316406 24.132813 20.875 23.84375 L 21.28125 22 L 26.84375 22 C 27.628906 22 28.175781 21.753906 28.75 21.5625 Z"/></svg>