<svg fill="#000000" xmlns="http://www.w3.org/2000/svg"  viewBox="0 0 50 50" width="50px" height="50px">
<path d="M32,13.6c-1.7,0-3.2,0.7-4.1,1.7s-1.4,2.4-1.4,3.7c0,1.3,0.4,2.7,1.4,3.7c0.1,0.1,0.2,0.1,0.3,0.2h-7.6l-5.3-7.2l-2.5,1.8
	l6.2,8.5h5.7l-1.2,6.2h0c0,1.1-0.4,1.7-1.1,2.3s-1.7,0.9-2.8,0.9s-2.1-0.3-2.8-0.9s-1.1-1.2-1.1-2.3h-3.1c0,1.1-0.4,1.7-1.1,2.3
	c-0.7,0.5-1.7,0.9-2.8,0.9s-2.1-0.3-2.8-0.9c-0.7-0.5-1.1-1.2-1.1-2.3H1.6c0,2,1,3.7,2.3,4.8s3,1.5,4.7,1.5s3.3-0.5,4.7-1.5
	c0.3-0.2,0.5-0.6,0.8-0.9c0.3,0.3,0.5,0.7,0.8,0.9c1.4,1,3,1.5,4.7,1.5s3.3-0.5,4.7-1.5c0.3-0.2,0.5-0.6,0.8-0.9
	c0.3,0.3,0.5,0.7,0.8,0.9c1.4,1,3,1.5,4.7,1.5s3.3-0.5,4.7-1.5c0.3-0.2,0.5-0.6,0.8-0.9c0.3,0.3,0.5,0.7,0.8,0.9
	c1.4,1,3,1.5,4.7,1.5s3.3-0.5,4.7-1.5s2.3-2.7,2.3-4.8h-3.1c0,1.1-0.4,1.7-1.1,2.3s-1.7,0.9-2.8,0.9s-2.1-0.3-2.8-0.9
	c-0.6-0.5-1-1-1.1-1.9l1.3-6.6h4.7l6.2-8.5l-2.5-1.8L41.9,23h-6c0.1-0.1,0.2-0.1,0.3-0.2c0.9-1.1,1.4-2.4,1.4-3.7
	c0-1.3-0.4-2.7-1.4-3.7S33.7,13.6,32,13.6z M32,16.7c0.9,0,1.4,0.3,1.8,0.7s0.6,1,0.6,1.6c0,0.6-0.2,1.2-0.6,1.6s-0.8,0.7-1.8,0.7
	s-1.4-0.3-1.8-0.7s-0.6-1-0.6-1.6c0-0.6,0.2-1.2,0.6-1.6S31.1,16.7,32,16.7z M27.9,26.1h3.4h4.4l-1.2,6.2h-0.1
	c0,1.1-0.4,1.7-1.1,2.3s-1.7,0.9-2.8,0.9s-2.1-0.3-2.8-0.9c-0.6-0.5-1-1.1-1.1-2L27.9,26.1z"/>
<path d="M18.7,6.4c-2.4,0-4.3,1.9-4.3,4.3s1.9,4.3,4.3,4.3s4.3-1.9,4.3-4.3S21,6.4,18.7,6.4z M18.7,12.6c-1,0-1.8-0.8-1.8-1.8
	c0-1,0.8-1.8,1.8-1.8c1,0,1.8,0.8,1.8,1.8C20.5,11.8,19.7,12.6,18.7,12.6z"/>
</svg>
