<svg fill="#000000" xmlns="http://www.w3.org/2000/svg"  viewBox="0 0 32 32" width="50px" height="50px"><path d="M 16 4 C 15.083334 4 14.268559 4.3797556 13.751953 4.9609375 C 13.235347 5.5421194 13 6.2777779 13 7 C 13 7.7222221 13.235347 8.4578806 13.751953 9.0390625 C 14.268559 9.6202444 15.083334 10 16 10 C 16.916666 10 17.731441 9.6202444 18.248047 9.0390625 C 18.764653 8.4578806 19 7.7222221 19 7 C 19 6.2777779 18.764653 5.5421194 18.248047 4.9609375 C 17.731441 4.3797556 16.916666 4 16 4 z M 25 5 A 2 2 0 0 0 25 9 A 2 2 0 0 0 25 5 z M 16 6 C 16.416666 6 16.601893 6.1202444 16.751953 6.2890625 C 16.902014 6.4578806 17 6.7222221 17 7 C 17 7.2777779 16.902014 7.5421194 16.751953 7.7109375 C 16.601893 7.8797556 16.416666 8 16 8 C 15.583334 8 15.398107 7.8797556 15.248047 7.7109375 C 15.097986 7.5421194 15 7.2777779 15 7 C 15 6.7222221 15.097986 6.4578806 15.248047 6.2890625 C 15.398107 6.1202444 15.583334 6 16 6 z M 8.9804688 7.8046875 L 7.0195312 8.1953125 L 7.8398438 12.296875 C 8.041716 13.304257 9.0002262 14.005392 10.021484 13.892578 L 10.025391 13.892578 L 12.894531 13.554688 L 12.0625 18.539062 C 12.04584 18.637442 12.0143 18.732605 11.96875 18.824219 L 10.445312 21.873047 C 10.335496 22.092681 10.149124 22.264569 9.921875 22.355469 L 9.921875 22.353516 L 5.6289062 24.072266 L 6.3710938 25.927734 L 10.666016 24.210938 C 11.348766 23.937836 11.906192 23.423944 12.234375 22.767578 L 13.759766 19.714844 C 13.891933 19.449024 13.985748 19.164096 14.035156 18.869141 L 14.035156 18.867188 L 14.962891 13.310547 L 26.117188 11.992188 L 25.882812 10.007812 L 9.8007812 11.904297 L 8.9804688 7.8046875 z M 18.669922 14.943359 L 16.595703 15.173828 L 16.121094 17.835938 C 16.016094 18.464938 16.112578 19.100109 16.392578 19.662109 L 18.011719 22.9375 L 15.154297 27.466797 L 16.845703 28.533203 L 19.714844 23.984375 C 20.068844 23.395375 20.096922 22.677312 19.794922 22.070312 L 18.185547 18.775391 C 18.090547 18.585391 18.058797 18.373781 18.091797 18.175781 L 18.669922 14.943359 z"/></svg>