<svg fill="#000000" xmlns="http://www.w3.org/2000/svg"  viewBox="0 0 32 32" width="50px" height="50px"><path d="M 12 4 C 10.261719 4 9.320313 5.316406 9.0625 5.71875 L 8.625 5.28125 L 8.21875 5.6875 C 7.984375 5.921875 8.234375 6.484375 7.875 6.84375 C 7.515625 7.207031 6.503906 7.402344 5.53125 8.375 C 4.894531 9.015625 4.894531 10.050781 5.53125 10.6875 C 6.167969 11.324219 7.203125 11.324219 7.84375 10.6875 C 8.824219 9.707031 9.007813 8.742188 9.375 8.375 C 9.742188 8.007813 10.332031 8.199219 10.53125 8 L 10.9375 7.59375 L 10.5 7.15625 L 10.5 7.125 C 10.535156 7.074219 10.566406 7.023438 10.59375 6.96875 C 10.59375 6.96875 11.402344 6 12 6 C 12.375 6 12.582031 6.117188 12.75 6.3125 C 12.917969 6.507813 13 6.816406 13 7 C 13 8.1875 12.5625 9.078125 11.8125 10 C 11.0625 10.921875 9.980469 11.820313 8.84375 12.78125 C 6.574219 14.699219 4 17.074219 4 21 C 4 23.273438 5.164063 25.089844 6.71875 26.25 C 8.273438 27.410156 10.214844 28 12 28 C 13.109375 28 14.464844 27.738281 15.84375 27.34375 C 17.1875 27.746094 18.515625 28 19.65625 28 C 21.957031 28 24.042969 27.324219 25.5625 26.03125 C 27.082031 24.738281 28 22.800781 28 20.5625 C 28 16.539063 25.402344 14.257813 23.125 12.46875 C 21.988281 11.574219 20.898438 10.769531 20.15625 9.90625 C 19.414063 9.042969 19 8.1875 19 7 C 19 6.882813 19.109375 6.566406 19.3125 6.34375 C 19.515625 6.121094 19.753906 6 20 6 C 20.160156 6 20.578125 6.1875 20.90625 6.46875 C 21.234375 6.75 21.4375 7.03125 21.4375 7.03125 C 21.464844 7.066406 21.496094 7.097656 21.53125 7.125 L 21.0625 7.59375 L 21.46875 8 C 21.667969 8.199219 22.257813 8.007813 22.625 8.375 C 22.992188 8.742188 23.175781 9.707031 24.15625 10.6875 C 24.796875 11.324219 25.832031 11.324219 26.46875 10.6875 C 27.105469 10.050781 27.105469 9.015625 26.46875 8.375 C 25.496094 7.402344 24.484375 7.207031 24.125 6.84375 C 23.765625 6.484375 24.015625 5.921875 23.78125 5.6875 L 23.375 5.28125 L 22.9375 5.71875 C 22.839844 5.597656 22.597656 5.289063 22.1875 4.9375 C 21.683594 4.507813 20.988281 4 20 4 C 19.101563 4 18.355469 4.441406 17.84375 5 C 17.332031 5.558594 17 6.238281 17 7 C 17 8.707031 17.710938 10.085938 18.65625 11.1875 C 19.601563 12.289063 20.761719 13.15625 21.875 14.03125 C 24.097656 15.78125 26 17.371094 26 20.5625 C 26 22.273438 25.34375 23.570313 24.25 24.5 C 23.15625 25.429688 21.566406 26 19.65625 26 C 19.445313 26 19.171875 25.921875 18.9375 25.90625 C 20.59375 24.8125 22 23.265625 22 21 C 22 17.699219 19.300781 15 16 15 C 12.699219 15 10 17.699219 10 21 C 10 23.234375 11.304688 24.804688 12.875 25.90625 C 12.589844 25.929688 12.242188 26 12 26 C 10.667969 26 9.101563 25.523438 7.9375 24.65625 C 6.773438 23.789063 6 22.609375 6 21 C 6 17.933594 7.925781 16.199219 10.15625 14.3125 C 11.269531 13.371094 12.4375 12.433594 13.375 11.28125 C 14.3125 10.128906 15 8.707031 15 7 C 15 6.300781 14.75 5.613281 14.25 5.03125 C 13.75 4.449219 12.941406 4 12 4 Z M 16 17 C 18.21875 17 20 18.78125 20 21 C 20 22.78125 18.886719 23.933594 17.21875 24.78125 C 16.804688 24.992188 16.328125 25.097656 15.875 25.25 C 15.445313 25.097656 14.980469 24.988281 14.59375 24.78125 C 13.027344 23.941406 12 22.8125 12 21 C 12 18.78125 13.78125 17 16 17 Z"/></svg>