<svg fill="#000000" xmlns="http://www.w3.org/2000/svg"  viewBox="0 0 32 32" width="50px" height="50px"><path d="M 16 4 C 14.355469 4 13 5.355469 13 7 C 13 8.644531 14.355469 10 16 10 C 17.644531 10 19 8.644531 19 7 C 19 5.355469 17.644531 4 16 4 Z M 16 6 C 16.5625 6 17 6.4375 17 7 C 17 7.5625 16.5625 8 16 8 C 15.4375 8 15 7.5625 15 7 C 15 6.4375 15.4375 6 16 6 Z M 12.46875 9.46875 C 12.183594 9.484375 11.910156 9.554688 11.65625 9.6875 L 9.5 10.78125 C 9.140625 10.96875 8.847656 11.265625 8.65625 11.625 L 7.125 14.53125 L 8.875 15.46875 L 10.4375 12.5625 L 12.59375 11.4375 L 12.90625 11.5625 L 11.34375 15.09375 C 10.957031 15.980469 11.28125 17.066406 12.09375 17.59375 L 14.625 19.25 L 13.46875 23.0625 L 4.875 24 L 4.84375 24 C 4.382813 24.066406 3.953125 24.246094 3.59375 24.59375 C 3.234375 24.941406 3 25.480469 3 26 C 3 27.09375 3.90625 28 5 28 L 23 28 C 24.644531 28 26 26.644531 26 25 C 26 24.167969 25.640625 23.375 25.0625 22.8125 L 26.75 13.6875 L 28.71875 11.71875 L 27.28125 10.28125 L 22.28125 15.28125 L 23.71875 16.71875 L 24.28125 16.15625 L 23.1875 22.03125 C 23.085938 22.03125 22.980469 22.019531 22.875 22.03125 L 15.65625 22.8125 L 16.5625 19.8125 C 16.820313 18.96875 16.457031 18.046875 15.71875 17.5625 L 13.1875 15.90625 L 14.75 12.28125 L 15.625 12.625 L 16.625 14.125 C 16.996094 14.675781 17.617188 15 18.28125 15 L 21 15 L 21 13 L 18.28125 13 L 17.28125 11.5 C 17.054688 11.160156 16.722656 10.929688 16.34375 10.78125 L 13.3125 9.59375 C 13.046875 9.488281 12.753906 9.453125 12.46875 9.46875 Z M 10.84375 17.96875 L 10.15625 18.9375 L 6 18.9375 L 6 20.9375 L 10.15625 20.9375 C 10.8125 20.9375 11.441406 20.601563 11.8125 20.0625 L 12.46875 19.09375 Z M 23.125 24 C 23.609375 23.945313 24 24.421875 24 25 C 24 25.566406 23.566406 26 23 26 L 5.15625 26 Z"/></svg>