<svg fill="#000000" xmlns="http://www.w3.org/2000/svg"  viewBox="0 0 32 32" width="50px" height="50px"><path d="M 13 4 C 11.355469 4 10 5.355469 10 7 C 10 8.644531 11.355469 10 13 10 C 14.644531 10 16 8.644531 16 7 C 16 5.355469 14.644531 4 13 4 Z M 13 6 C 13.5625 6 14 6.4375 14 7 C 14 7.5625 13.5625 8 13 8 C 12.4375 8 12 7.5625 12 7 C 12 6.4375 12.4375 6 13 6 Z M 12.53125 11 C 11.765625 10.984375 11.015625 11.535156 10.875 12.34375 L 10 17.21875 L 9.96875 17.40625 L 10.03125 17.59375 L 11 22.0625 L 11 26 L 10 26 L 10 28 L 22 28 C 23.644531 28 25 26.644531 25 25 C 25 23.707031 24.15625 22.605469 23 22.1875 L 23 19.40625 C 23 18.878906 22.777344 18.371094 22.40625 18 L 20 15.59375 L 20 14.34375 L 18 15.375 L 18 15.59375 C 18 16.121094 18.222656 16.628906 18.59375 17 L 21 19.40625 L 21 22.1875 C 20.210938 22.472656 19.578125 23.078125 19.25 23.84375 L 18.40625 23 L 16 23 L 16 19.6875 C 16 18.875 15.503906 18.117188 14.75 17.8125 L 12.15625 16.75 L 12.75 13.25 L 15.03125 14.59375 C 15.617188 14.941406 16.328125 14.960938 16.9375 14.65625 L 17.09375 14.5625 L 20.4375 12.90625 L 19.5625 11.09375 L 16.03125 12.875 L 13.28125 11.21875 C 13.046875 11.078125 12.785156 11.003906 12.53125 11 Z M 12.375 19.03125 L 14 19.6875 L 14 25 L 17.59375 25 L 18.625 26 L 13 26 L 13 21.96875 L 12.96875 21.875 Z M 22 24 C 22.5625 24 23 24.4375 23 25 C 23 25.5625 22.5625 26 22 26 C 21.4375 26 21 25.5625 21 25 C 21 24.4375 21.4375 24 22 24 Z"/></svg>