<svg fill="#000000" xmlns="http://www.w3.org/2000/svg"  viewBox="0 0 32 32" width="50px" height="50px"><path d="M 24.5 5.5 C 22.855469 5.5 21.5 6.855469 21.5 8.5 C 21.5 10.144531 22.855469 11.5 24.5 11.5 C 26.144531 11.5 27.5 10.144531 27.5 8.5 C 27.5 6.855469 26.144531 5.5 24.5 5.5 Z M 15.71875 6.09375 C 15.585938 6.105469 15.445313 6.121094 15.3125 6.15625 L 11.53125 7.21875 L 12.0625 9.15625 L 15.875 8.0625 L 17.8125 9.1875 L 14.09375 12.34375 C 13.132813 13.15625 12.757813 14.460938 13.15625 15.65625 L 14.625 20 L 10 20 L 10 22 L 14.625 22 C 15.960938 22 16.921875 20.640625 16.5 19.375 L 15.0625 15.03125 C 14.921875 14.609375 15.066406 14.164063 15.40625 13.875 L 19.3125 10.53125 L 20.28125 12 L 17.0625 15.125 C 16.433594 15.742188 16.304688 16.71875 16.71875 17.5 L 18.6875 21.1875 L 16.59375 26 L 18.75 26 L 20.5 22 C 20.746094 21.4375 20.726563 20.792969 20.4375 20.25 L 18.46875 16.5625 L 21 14.09375 L 21 15 C 21 16.09375 21.90625 17 23 17 L 27 17 L 27 15 L 23 15 L 23 13.03125 C 23 12.632813 22.871094 12.234375 22.65625 11.90625 L 20.5 8.6875 C 20.332031 8.441406 20.097656 8.242188 19.84375 8.09375 L 16.875 6.34375 C 16.523438 6.136719 16.121094 6.0625 15.71875 6.09375 Z M 24.5 7.5 C 25.0625 7.5 25.5 7.9375 25.5 8.5 C 25.5 9.0625 25.0625 9.5 24.5 9.5 C 23.9375 9.5 23.5 9.0625 23.5 8.5 C 23.5 7.9375 23.9375 7.5 24.5 7.5 Z M 3 11 L 3 13 L 11.3125 13 C 11.578125 12.253906 12.023438 11.566406 12.625 11 Z M 3 15 L 3 17 L 11.5 17 L 11.28125 16.3125 C 11.136719 15.882813 11.058594 15.433594 11.03125 15 Z"/></svg>