<svg fill="#000000" xmlns="http://www.w3.org/2000/svg"  viewBox="0 0 32 32" width="50px" height="50px"><path d="M 5.5 9 C 3.578125 9 2 10.578125 2 12.5 C 2 14.421875 3.578125 16 5.5 16 C 7.421875 16 9 14.421875 9 12.5 C 9 10.578125 7.421875 9 5.5 9 Z M 5.5 11 C 6.339844 11 7 11.660156 7 12.5 C 7 13.339844 6.339844 14 5.5 14 C 4.660156 14 4 13.339844 4 12.5 C 4 11.660156 4.660156 11 5.5 11 Z M 11.6875 12.8125 C 10.515625 12.824219 9.382813 13.410156 8.71875 14.46875 C 8.207031 15.285156 8.046875 16.28125 8.28125 17.21875 L 8.90625 19.75 L 6.25 22.90625 L 7.53125 24 L 2 24 L 2 26 L 30 26 L 30 24 L 28.25 24 L 28.96875 22.21875 L 23.375 20 L 19.3125 16.65625 L 19.25 16.59375 L 19.1875 16.5625 L 13.5 13.28125 C 13.089844 13.042969 12.632813 12.902344 12.1875 12.84375 C 12.019531 12.820313 11.855469 12.8125 11.6875 12.8125 Z M 11.625 14.78125 C 11.917969 14.765625 12.226563 14.839844 12.5 15 L 18.03125 18.1875 L 22.1875 21.625 L 22.3125 21.71875 L 22.46875 21.78125 L 28.0625 24 L 7.90625 24 L 10.4375 21.0625 C 10.855469 20.574219 11 19.90625 10.84375 19.28125 L 10.21875 16.75 C 10.117188 16.339844 10.183594 15.890625 10.40625 15.53125 C 10.6875 15.082031 11.140625 14.808594 11.625 14.78125 Z"/></svg>