<svg fill="#000000" xmlns="http://www.w3.org/2000/svg"  viewBox="0 0 32 32" width="50px" height="50px"><path d="M 8.5 6 C 6.578125 6 5 7.578125 5 9.5 C 5 11.421875 6.578125 13 8.5 13 C 10.421875 13 12 11.421875 12 9.5 C 12 7.578125 10.421875 6 8.5 6 Z M 17.15625 7.5 L 14.375 12.125 L 10.1875 13.0625 C 8.210938 13.511719 7.363281 15.972656 8.625 17.5625 L 12.90625 22.96875 C 13.433594 23.632813 14.210938 23.988281 15 24 C 15.789063 24.011719 16.582031 23.683594 17.125 23.03125 L 20.59375 18.875 L 26.3125 16.9375 L 25.6875 15.0625 L 19.96875 16.96875 L 19.9375 16.96875 L 19.9375 17 C 19.597656 17.121094 19.292969 17.316406 19.0625 17.59375 L 17.3125 19.65625 L 13.15625 14.4375 L 14.8125 14.0625 C 15.332031 13.941406 15.78125 13.613281 16.0625 13.15625 L 18.84375 8.5 Z M 15 24 L 4 24 L 4 26 L 28 26 L 28 24 Z M 8.5 8 C 9.339844 8 10 8.660156 10 9.5 C 10 10.339844 9.339844 11 8.5 11 C 7.660156 11 7 10.339844 7 9.5 C 7 8.660156 7.660156 8 8.5 8 Z M 11 14.9375 L 16 21.21875 L 15.5625 21.75 C 15.261719 22.109375 14.761719 22.117188 14.46875 21.75 L 10.1875 16.3125 C 9.792969 15.8125 10.003906 15.171875 10.625 15.03125 Z"/></svg>