<svg fill="#000000" xmlns="http://www.w3.org/2000/svg"  viewBox="0 0 32 32" width="50px" height="50px"><path d="M 11.5 5 C 9.578125 5 8 6.578125 8 8.5 C 8 10.421875 9.578125 12 11.5 12 C 13.421875 12 15 10.421875 15 8.5 C 15 6.578125 13.421875 5 11.5 5 Z M 11.5 7 C 12.339844 7 13 7.660156 13 8.5 C 13 9.339844 12.339844 10 11.5 10 C 10.660156 10 10 9.339844 10 8.5 C 10 7.660156 10.660156 7 11.5 7 Z M 7.625 12.03125 C 6.574219 12.113281 5.578125 12.761719 5.15625 13.8125 L 3.25 18.59375 C 2.386719 20.738281 4.117188 23.007813 6.25 23 C 6.554688 23 6.875 22.945313 7.1875 22.84375 L 9.53125 22.09375 L 9.5625 22.09375 L 14.34375 24.875 L 15.34375 23.125 L 10.5625 20.34375 C 10.074219 20.0625 9.476563 20.015625 8.9375 20.1875 L 6.5625 20.9375 C 5.527344 21.269531 4.6875 20.351563 5.09375 19.34375 L 7.03125 14.5625 C 7.234375 14.050781 7.773438 13.855469 8.25 14.125 L 8.28125 14.125 L 11.34375 15.875 L 11.5 15.9375 L 11.65625 15.96875 L 16.59375 16.96875 L 17 15.03125 L 12.25 14.0625 L 9.25 12.375 C 8.875 12.164063 8.464844 12.0625 8.0625 12.03125 C 7.910156 12.019531 7.773438 12.019531 7.625 12.03125 Z M 6.25 23 L 1 23 L 1 25 L 7.75 25 L 11.75 27 L 24.6875 27 L 24.9375 26.34375 L 27.6875 18.96875 C 27.792969 18.980469 27.890625 19 28 19 C 29.644531 19 31 17.644531 31 16 C 31 14.355469 29.644531 13 28 13 C 26.707031 13 25.605469 13.84375 25.1875 15 L 19 15 L 19 17 L 25.1875 17 C 25.339844 17.421875 25.5625 17.8125 25.875 18.125 L 23.3125 25 L 12.25 25 L 8.25 23 Z M 28 15 C 28.5625 15 29 15.4375 29 16 C 29 16.5625 28.5625 17 28 17 C 27.4375 17 27 16.5625 27 16 C 27 15.4375 27.4375 15 28 15 Z"/></svg>