<svg fill="#000000" xmlns="http://www.w3.org/2000/svg"  viewBox="0 0 32 32" width="50px" height="50px"><path d="M 12.5 3 C 11.416667 3 10.476892 3.4422556 9.8769531 4.1171875 C 9.2770139 4.7921194 9 5.6527779 9 6.5 C 9 7.3472221 9.2770139 8.2078806 9.8769531 8.8828125 C 10.476892 9.5577444 11.416667 10 12.5 10 C 13.583333 10 14.523108 9.5577444 15.123047 8.8828125 C 15.722986 8.2078806 16 7.3472221 16 6.5 C 16 5.6527779 15.722986 4.7921194 15.123047 4.1171875 C 14.523108 3.4422556 13.583333 3 12.5 3 z M 12.5 5 C 13.083333 5 13.393559 5.1827444 13.626953 5.4453125 C 13.860347 5.7078806 14 6.0972221 14 6.5 C 14 6.9027779 13.860347 7.2921194 13.626953 7.5546875 C 13.393559 7.8172556 13.083333 8 12.5 8 C 11.916667 8 11.606441 7.8172556 11.373047 7.5546875 C 11.139653 7.2921194 11 6.9027779 11 6.5 C 11 6.0972221 11.139653 5.7078806 11.373047 5.4453125 C 11.606441 5.1827444 11.916667 5 12.5 5 z M 14.978516 11 A 1.0001 1.0001 0 0 0 14.023438 12.216797 L 16.023438 21.216797 A 1.0001 1.0001 0 0 0 16.105469 21.447266 L 19.105469 27.447266 A 1.0001 1.0001 0 0 0 19.859375 27.990234 L 26.859375 28.990234 L 27.140625 27.009766 L 20.660156 26.083984 L 17.949219 20.662109 L 16.339844 13.421875 L 20.328125 14.5625 L 18.199219 17.400391 L 19.800781 18.599609 L 22.800781 14.599609 A 1.0001 1.0001 0 0 0 22.275391 13.039062 L 15.275391 11.039062 A 1.0001 1.0001 0 0 0 14.978516 11 z M 11 20 C 10.45 20 10 20.45 10 21 L 10 29 L 12 29 L 12 22 L 14.169922 22 C 14.129922 21.89 14.100313 21.770391 14.070312 21.650391 L 13.699219 20 L 11 20 z"/></svg>