<svg fill="#000000" xmlns="http://www.w3.org/2000/svg"  viewBox="0 0 32 32" width="50px" height="50px"><path d="M 13.5 3 C 11.578125 3 10 4.578125 10 6.5 C 10 8.421875 11.578125 10 13.5 10 C 15.421875 10 17 8.421875 17 6.5 C 17 4.578125 15.421875 3 13.5 3 Z M 13.5 5 C 14.339844 5 15 5.660156 15 6.5 C 15 7.339844 14.339844 8 13.5 8 C 12.660156 8 12 7.339844 12 6.5 C 12 5.660156 12.660156 5 13.5 5 Z M 13 11 C 11.359375 11 10 12.359375 10 14 L 10 19.40625 L 10.28125 19.71875 L 14 23.4375 L 14 29 L 16 29 L 16 22.59375 L 15.71875 22.28125 L 12 18.5625 L 12 14 C 12 13.441406 12.441406 13 13 13 C 13.5625 13 14 13.429688 14 14 L 14 16.40625 L 14.28125 16.71875 L 16.75 19.1875 L 17.375 18.9375 L 19.75 17.96875 C 20.300781 18.597656 21.105469 19 22 19 C 23.644531 19 25 17.644531 25 16 C 25 14.355469 23.644531 13 22 13 C 20.355469 13 19 14.355469 19 16 C 19 16.03125 19 16.0625 19 16.09375 L 17.25 16.8125 L 16 15.5625 C 15.996094 15.164063 16 14.449219 16 14 C 16 12.359375 14.644531 11 13 11 Z M 22 15 C 22.5625 15 23 15.4375 23 16 C 23 16.5625 22.5625 17 22 17 C 21.4375 17 21 16.5625 21 16 C 21 15.4375 21.4375 15 22 15 Z M 10 21 L 10 29 L 12 29 L 12 23 Z"/></svg>