<svg fill="#000000" xmlns="http://www.w3.org/2000/svg"  viewBox="0 0 50 50" width="50px" height="50px">
<g>
	<path d="M34.5,20.5l-1.8-5.2c-0.4-1.1-1.3-1.9-2.4-2.2l-2.6-0.7c-0.7-0.2-1.5-0.1-2.2,0.2L15.6,17c-1.2,0.5-2,1.8-2,3.1v1.1
		c0,0.8,0.3,1.5,0.8,2.1l5.2,6.4c0.1,0.1,0.1,0.2,0.1,0.2v0.5c-1.4,0.8-2.6,2-3.2,3.4l-2.7-5.7l1.8,0.2l0.3-3l-7.3-0.8l-0.3,3
		l1.9,0.2l6.5,13.6h-5.3v3H35v-3h-5.5L35.7,28l1-0.2c0.7-0.1,1.3-0.4,1.7-0.9l1.8-1.7l-5.6-4.5C34.5,20.6,34.5,20.5,34.5,20.5z
		 M19.6,34.4V38h3v-5.3c0.2,0,0.3,0,0.5,0c0.4,0,0.7,0.1,1,0.1l-0.4,5.1l3,0.2L27,35c0.4,0.6,0.6,1.4,0.6,2.1c0,2.4-2,4.4-4.4,4.4
		s-4.4-2-4.4-4.4C18.7,36.1,19.1,35.1,19.6,34.4z M26.9,26.5l-2.1-3.2c-0.1-0.1-0.1-0.3,0-0.3c0-0.1,0.1-0.2,0.2-0.2l1.9-0.7
		c0.2-0.1,0.4,0,0.5,0.2l1.3,2.6c0.3,0.6,0.7,1,1.3,1.4l2.5,1.5l-2.8,6.1c-0.6-1.1-1.4-2.1-2.4-2.8l0.2-2.3
		C27.5,27.9,27.3,27.2,26.9,26.5z M34.3,25.1c-0.1,0-0.2,0-0.3-0.1l-2.5-1.5c-0.1,0-0.1-0.1-0.1-0.2l-1.3-2.6
		c-0.8-1.6-2.6-2.3-4.3-1.6L23.9,20c-0.9,0.4-1.7,1.2-2,2.1s-0.2,2,0.4,2.9l2.1,3.2c0,0.1,0.1,0.2,0.1,0.2l-0.1,1.4
		c-0.4-0.1-0.8-0.1-1.3-0.1c-0.2,0-0.3,0-0.5,0c-0.1-0.6-0.3-1.2-0.7-1.7l-5.2-6.4c-0.1-0.1-0.1-0.2-0.1-0.2v-1.1
		c0-0.2,0.1-0.3,0.2-0.4l9.9-4.4c0.1,0,0.2,0,0.3,0l2.6,0.7c0.1,0,0.2,0.1,0.3,0.3l1.8,5.2c0.2,0.6,0.6,1.1,1.1,1.5l2.5,2L34.3,25.1
		z"/>
	<path d="M36.9,7c-2.6,0-4.7,2.1-4.7,4.7s2.1,4.7,4.7,4.7s4.7-2.1,4.7-4.7S39.5,7,36.9,7z M36.9,13.2c-0.9,0-1.6-0.7-1.6-1.6
		S36,10,36.9,10s1.6,0.7,1.6,1.6S37.8,13.2,36.9,13.2z"/>
</g>
</svg>
