<svg fill="#000000" xmlns="http://www.w3.org/2000/svg"  viewBox="0 0 32 32" width="50px" height="50px"><path d="M 22.96875 2 C 21.164063 2 19.339844 2.691406 17.96875 4.0625 L 16.0625 5.96875 C 13.320313 8.710938 13.320313 13.195313 16.0625 15.9375 C 18.804688 18.679688 23.289063 18.679688 26.03125 15.9375 L 27.9375 14.03125 C 30.679688 11.289063 30.679688 6.804688 27.9375 4.0625 C 26.566406 2.691406 24.773438 2 22.96875 2 Z M 9.5 3 C 9.117188 3 8.730469 3.144531 8.4375 3.4375 C 8.363281 3.515625 8.171875 3.6875 7.90625 3.90625 L 3 6.375 L 3 7 C 3 8.609375 4.066406 11 7 11 L 7.625 11 L 10.09375 6.09375 C 10.289063 5.851563 10.460938 5.667969 10.5625 5.5625 C 11.148438 4.976563 11.148438 4.023438 10.5625 3.4375 C 10.269531 3.144531 9.882813 3 9.5 3 Z M 22.96875 4 C 23.074219 4 23.175781 4.023438 23.28125 4.03125 L 23 4.3125 L 22.71875 4.03125 C 22.800781 4.027344 22.886719 4 22.96875 4 Z M 21.53125 4.21875 L 22.3125 5 L 21 6.3125 L 19.78125 5.09375 C 20.308594 4.675781 20.914063 4.398438 21.53125 4.21875 Z M 24.4375 4.25 C 25.046875 4.433594 25.636719 4.703125 26.15625 5.125 L 25 6.3125 L 23.6875 5 Z M 23 5.6875 L 24.3125 7 L 23 8.3125 L 21.6875 7 Z M 19.09375 5.78125 L 20.3125 7 L 19 8.3125 L 17.78125 7.09375 Z M 26.875 5.84375 C 27.296875 6.359375 27.5625 6.953125 27.75 7.5625 L 27 8.3125 L 25.6875 7 Z M 7.75 6.25 L 6.40625 8.9375 C 5.535156 8.738281 5.191406 8.109375 5.0625 7.59375 Z M 21 7.6875 L 22.3125 9 L 21 10.3125 L 19.6875 9 Z M 25 7.6875 L 26.3125 9 L 25 10.3125 L 23.6875 9 Z M 17.09375 7.78125 L 18.3125 9 L 17 10.3125 L 16.21875 9.53125 C 16.402344 8.921875 16.675781 8.300781 17.09375 7.78125 Z M 27.96875 8.71875 C 27.980469 8.90625 27.976563 9.09375 27.96875 9.28125 L 27.6875 9 Z M 19 9.6875 L 20.3125 11 L 19 12.3125 L 17.6875 11 Z M 23 9.6875 L 24.3125 11 L 23 12.3125 L 21.6875 11 Z M 27 9.6875 L 27.78125 10.46875 C 27.597656 11.085938 27.328125 11.691406 26.90625 12.21875 L 25.6875 11 Z M 16 10.6875 L 16.3125 11 L 16 11.3125 C 15.984375 11.109375 15.988281 10.890625 16 10.6875 Z M 17 11.6875 L 18.3125 13 L 17.125 14.1875 C 16.703125 13.675781 16.40625 13.074219 16.21875 12.46875 Z M 21 11.6875 L 22.3125 13 L 21 14.3125 L 19.6875 13 Z M 25 11.6875 L 26.25 12.9375 L 24.9375 14.25 L 23.6875 13 Z M 19 13.6875 L 20.3125 15 L 19.53125 15.78125 C 18.925781 15.59375 18.324219 15.296875 17.8125 14.875 Z M 23 13.6875 L 24.21875 14.90625 C 23.699219 15.324219 23.078125 15.597656 22.46875 15.78125 L 21.6875 15 Z M 21 15.6875 L 21.3125 16 C 21.109375 16.011719 20.890625 16.015625 20.6875 16 Z M 14.6875 15.875 L 8.5625 22 L 6.59375 22 L 6.28125 22.28125 L 2.75 25.84375 L 2.03125 26.53125 L 5.46875 29.96875 L 6.15625 29.25 L 9.71875 25.71875 L 10 25.40625 L 10 23.4375 L 16.125 17.3125 C 15.863281 17.109375 15.582031 16.894531 15.34375 16.65625 C 15.105469 16.417969 14.890625 16.136719 14.6875 15.875 Z M 7.4375 24 L 8 24 L 8 24.5625 L 5.4375 27.125 L 4.875 26.5625 Z"/></svg>