<svg fill="#000000" xmlns="http://www.w3.org/2000/svg"  viewBox="0 0 32 32" width="50px" height="50px"><path d="M 13 4 C 12.083334 4 11.268559 4.3797556 10.751953 4.9609375 C 10.235347 5.5421194 10 6.2777779 10 7 C 10 7.7222221 10.235347 8.4578806 10.751953 9.0390625 C 11.268559 9.6202444 12.083334 10 13 10 C 13.916666 10 14.731441 9.6202444 15.248047 9.0390625 C 15.764653 8.4578806 16 7.7222221 16 7 C 16 6.2777779 15.764653 5.5421194 15.248047 4.9609375 C 14.731441 4.3797556 13.916666 4 13 4 z M 13 6 C 13.416666 6 13.601893 6.1202444 13.751953 6.2890625 C 13.902014 6.4578806 14 6.7222221 14 7 C 14 7.2777779 13.902014 7.5421194 13.751953 7.7109375 C 13.601893 7.8797556 13.416666 8 13 8 C 12.583334 8 12.398107 7.8797556 12.248047 7.7109375 C 12.097986 7.5421194 12 7.2777779 12 7 C 12 6.7222221 12.097986 6.4578806 12.248047 6.2890625 C 12.398107 6.1202444 12.583334 6 13 6 z M 25.023438 7.0117188 C 24.773846 6.9882524 24.520295 6.9910505 24.265625 7.0175781 C 23.246945 7.1236889 22.217458 7.6198148 21.417969 8.4199219 C 20.084908 9.7538412 19.617551 11.719227 20.371094 13.214844 L 17.585938 16 L 14.677734 16 L 13.494141 13.039062 C 13.002208 11.809954 11.804424 11 10.480469 11 C 9.1852896 11 8.0075 11.776659 7.4980469 12.96875 L 7.5253906 12.910156 L 5.2558594 17.396484 L 5.2441406 17.425781 C 5.0042047 17.983632 4.9384847 18.601225 5.0585938 19.197266 L 5.0625 19.214844 L 5.9511719 22.912109 L 4.0800781 27.275391 L 5.9199219 28.064453 L 7.7890625 23.699219 C 7.9597968 23.301508 7.9960669 22.861569 7.8964844 22.445312 L 7.8945312 22.445312 L 7.0195312 18.802734 L 7.0195312 18.798828 C 6.9812069 18.604691 7.003112 18.40557 7.0800781 18.222656 L 9.3242188 13.783203 L 9.3359375 13.753906 C 9.5324841 13.294001 9.9796474 13 10.480469 13 C 10.992514 13 11.446651 13.308312 11.636719 13.783203 L 12.820312 16.742188 C 13.122227 17.500205 13.863394 18 14.677734 18 L 18.414062 18 L 21.785156 14.628906 C 23.280574 15.38241 25.246047 14.915621 26.580078 13.582031 L 26.582031 13.580078 C 28.180534 11.981048 28.563043 9.4624634 27.048828 7.9511719 C 26.48162 7.3839644 25.772213 7.0821178 25.023438 7.0117188 z M 24.763672 9.0078125 C 25.118504 9.0308369 25.425723 9.156192 25.634766 9.3652344 C 26.191926 9.9213191 26.155754 11.178993 25.167969 12.166016 A 1.0001 1.0001 0 0 0 25.166016 12.167969 C 24.178993 13.155755 22.922681 13.192212 22.365234 12.634766 C 21.808015 12.077547 21.846869 10.8211 22.833984 9.8339844 A 1.0001 1.0001 0 0 0 22.833984 9.8320312 C 23.327496 9.3381385 23.887212 9.0826705 24.394531 9.0195312 C 24.521361 9.0037465 24.645395 9.0001377 24.763672 9.0078125 z M 10.300781 15.828125 L 9.1894531 17.892578 C 8.8844531 18.603578 9.0205312 19.435141 9.5195312 19.994141 L 11.746094 22.617188 C 11.909094 22.799187 12 23.03525 12 23.28125 L 12 28 L 14 28 L 14 23.28125 C 14 22.54325 13.728906 21.834734 13.253906 21.302734 L 10.988281 18.761719 L 11.267578 18.244141 L 10.300781 15.828125 z M 25.5 17 A 1.5 1.5 0 0 0 25.5 20 A 1.5 1.5 0 0 0 25.5 17 z"/></svg>