<svg xmlns="http://www.w3.org/2000/svg" viewBox="0 0 16.16 15.66">
    <g id="Layer_2" data-name="Layer 2">
        <g id="Layer_1-2" data-name="Layer 1">
            <path d="M15.5,2.69A2.16,2.16,0,0,0,13.9,2h-.23A2.39,2.39,0,0,0,13.08.72,2,2,0,0,0,11.58,0l-7,0h0A2.19,2.19,0,0,0,2.49,2H2.26A2.39,2.39,0,0,0,0,4.46V6.64A2.41,2.41,0,0,0,2.26,9.15h0a2.16,2.16,0,0,0,.56-.08,5.81,5.81,0,0,0,4.22,3.86v.66H5.26C4.47,13.59,4,14,4,14.66s.42,1,1.25,1H10.9c.82,0,1.24-.34,1.24-1s-.45-1.07-1.24-1.07H9.11v-.67a5.8,5.8,0,0,0,4.2-3.86,2,2,0,0,0,.59.09,2.41,2.41,0,0,0,2.26-2.51V4.46A2.67,2.67,0,0,0,15.5,2.69ZM14.1,4.46V6.64a.21.21,0,1,1-.41,0V4.46a.21.21,0,1,1,.41,0Zm-6,6.31h0A3.73,3.73,0,0,1,4.52,7.08V2.35a.11.11,0,0,1,0-.06.05.05,0,0,1,0,0l7,0s0,0,0,0a.08.08,0,0,1,0,.06l0,4.73A3.75,3.75,0,0,1,8.07,10.77ZM2.46,4.39V6.71a.22.22,0,0,1-.2.17h0a.22.22,0,0,1-.2-.24V4.46a.22.22,0,0,1,.2-.24h0A.21.21,0,0,1,2.46,4.39Z" />
        </g>
    </g>
</svg>