<svg xmlns="http://www.w3.org/2000/svg" viewBox="0 0 17.71 14.95">
    <g id="Layer_2" data-name="Layer 2">
        <g id="Layer_1-2" data-name="Layer 1">
            <g id="Icon_feather-users" data-name="Icon feather-users">
                <g id="Tracé_31927" data-name="Tracé 31927">
                    <path d="M12.31,15a1.25,1.25,0,0,1-1.25-1.25V12.32A1.52,1.52,0,0,0,9.55,10.8H4A1.52,1.52,0,0,0,2.5,12.32V13.7a1.25,1.25,0,0,1-2.5,0V12.32a4,4,0,0,1,4-4H9.55a4,4,0,0,1,4,4V13.7A1.25,1.25,0,0,1,12.31,15Z" />
                </g>
                <g id="Tracé_31928" data-name="Tracé 31928">
                    <path d="M6.78,8a4,4,0,1,1,4-4h0A4,4,0,0,1,6.78,8Zm0-5.53A1.52,1.52,0,1,0,8.3,4h0A1.5,1.5,0,0,0,6.78,2.5Z" />
                </g>
                <g id="Tracé_31929" data-name="Tracé 31929">
                    <path d="M16.46,15a1.25,1.25,0,0,1-1.25-1.25V12.31a1.52,1.52,0,0,0-1.13-1.46,1.25,1.25,0,0,1,.62-2.42,4,4,0,0,1,3,3.88V13.7A1.25,1.25,0,0,1,16.46,15Z" />
                </g>
                <g id="Tracé_31930" data-name="Tracé 31930">
                    <path d="M11.62,8a1.25,1.25,0,0,1-.31-2.46,1.5,1.5,0,0,0,1.1-1.09,1.52,1.52,0,0,0-1.1-1.84A1.25,1.25,0,0,1,11.93.13a4,4,0,0,1,0,7.79A1.63,1.63,0,0,1,11.62,8Z" />
                </g>
            </g>
        </g>
    </g>
</svg>