<svg xmlns="http://www.w3.org/2000/svg" viewBox="0 0 14.37 16.42">
    <g id="Layer_2" data-name="Layer 2">
        <g id="Layer_1-2" data-name="Layer 1">
            <path d="M8.7,3.54l-.1.12-.1-.13A25.08,25.08,0,0,0,5.36,0C2.25,2.92,0,6.69,0,9a7.31,7.31,0,0,0,7.19,7.4A7.31,7.31,0,0,0,14.37,9c0-1.72-1.67-5.2-3.93-7.35A18.09,18.09,0,0,0,8.7,3.54Zm1.93,3.35c.14.23.26.45.37.66a4,4,0,0,1-1.13,5.17h0a4.48,4.48,0,0,1-2.58.81H7A4.15,4.15,0,0,1,2.89,9.66c0-.12,0-.23,0-.34C2.88,8.06,3.59,7,5.29,5l.09-.11.1.11c.2.24,2.62,3.32,3.14,4l1.92-2.2Z" />
        </g>
    </g>
</svg>