<svg xmlns="http://www.w3.org/2000/svg" viewBox="0 0 360 360"><defs><style>.cls-1{fill:#0069d3;}.cls-2{fill:none;stroke:#154acc;stroke-miterlimit:10;stroke-width:22px;}</style></defs><g id="Layer_2" data-name="Layer 2"><g id="Layer_1-2" data-name="Layer 1"><path class="cls-1" d="M.94,0H359.06A1,1,0,0,1,360,1V359a1,1,0,0,1-.94,1H.94A1,1,0,0,1,0,359V1A1,1,0,0,1,.94,0Z"/><g id="Groupe_3318" data-name="Groupe 3318"><circle id="Ellipse_163" data-name="Ellipse 163" class="cls-2" cx="240.8" cy="180.25" r="25.56"/><path id="Tracé_32007" data-name="Tracé 32007" class="cls-2" d="M193.94,167l-18-11.15a15.37,15.37,0,0,0-23.46,13L152.39,191a15.38,15.38,0,0,0,23.37,13.18l18.08-11a15.37,15.37,0,0,0,.1-26.19Z"/><g id="Groupe_3317" data-name="Groupe 3317"><path id="Tracé_32008" data-name="Tracé 32008" class="cls-2" d="M138.18,160l-.13,24.35a22.25,22.25,0,0,1-44.41-.17l0-24.34A5.32,5.32,0,0,1,99,154.6l33.86.13A5.31,5.31,0,0,1,138.18,160Z"/></g></g></g></g></svg>