<svg xmlns="http://www.w3.org/2000/svg" xmlns:xlink="http://www.w3.org/1999/xlink" width="391.095" height="421.433" viewBox="0 0 391.095 421.433">
  <defs>
    <filter id="Tracé_32035" x="203.113" y="85.491" width="67.92" height="131.329" filterUnits="userSpaceOnUse">
      <feOffset dy="3" input="SourceAlpha"/>
      <feGaussianBlur stdDeviation="3" result="blur"/>
      <feFlood flood-opacity="0.161"/>
      <feComposite operator="in" in2="blur"/>
      <feComposite in="SourceGraphic"/>
    </filter>
    <linearGradient id="linear-gradient" x1="0.911" y1="0.208" x2="0.108" y2="1.05" gradientUnits="objectBoundingBox">
      <stop offset="0" stop-color="#4f7dee"/>
      <stop offset="1" stop-color="#3e44ed"/>
    </linearGradient>
    <filter id="Rectangle_148-2" x="36.989" y="75.01" width="324.871" height="324.872" filterUnits="userSpaceOnUse">
      <feOffset dy="21" input="SourceAlpha"/>
      <feGaussianBlur stdDeviation="40" result="blur-2"/>
      <feFlood flood-color="#081848" flood-opacity="0.867"/>
      <feComposite operator="in" in2="blur-2"/>
      <feComposite in="SourceGraphic"/>
    </filter>
  </defs>
  <g id="Groupe_3744" data-name="Groupe 3744" transform="translate(-434.619 206.161)">
    <g id="Groupe_3704" data-name="Groupe 3704" transform="translate(693.79 -138.86)">
      <rect id="Rectangle_294" data-name="Rectangle 294" width="48.894" height="49.726" rx="24.447" transform="translate(0 0)" fill="#e4f844"/>
      <g id="af4ECF.tif" transform="translate(13.812 14.084)">
        <g id="Groupe_3702" data-name="Groupe 3702">
          <path id="Tracé_32036" data-name="Tracé 32036" d="M1127.759,231V220.333c.939,0,1.855-.013,2.771.017.109,0,.263.225.308.372.345,1.142.667,2.29,1,3.438a.907.907,0,0,0,.257.459v-4.262h2.763v10.675c-.728,0-1.44.017-2.151-.017-.118-.006-.273-.22-.331-.369-.529-1.347-1.041-2.7-1.559-4.053a1.278,1.278,0,0,0-.3-.487V231Z" transform="translate(-1127.376 -209.617)" fill="#17171d"/>
          <path id="Tracé_32037" data-name="Tracé 32037" d="M1148.346,226.8c.614,1.275,1.305,2.71,2.038,4.233-1.03,0-1.994.013-2.956-.018-.113,0-.26-.235-.318-.389-.464-1.223-.91-2.455-1.43-3.678V231h-2.867V220.383a2.042,2.042,0,0,1,.327-.045c1.243.025,2.493-.021,3.727.1a3.261,3.261,0,0,1,2.77,4.708A8.412,8.412,0,0,1,1148.346,226.8Zm-2.651-1.567a.95.95,0,0,0,1.1-.487,1.543,1.543,0,0,0,.02-1.6,1.021,1.021,0,0,0-1.123-.459Z" transform="translate(-1134.832 -209.621)" fill="#17171d"/>
          <path id="Tracé_32038" data-name="Tracé 32038" d="M1129.791,199.138a18.051,18.051,0,0,0-.5,1.838,1.8,1.8,0,0,0,1.9,2.254,19.109,19.109,0,0,0,3.5-.658c4.336-1.126,8.66-2.3,12.989-3.449a.313.313,0,0,1,.273.027c-.7.3-1.4.6-2.1.9q-6.6,2.811-13.2,5.618a8.057,8.057,0,0,1-3.1.778,2.3,2.3,0,0,1-2.432-3.143A10.431,10.431,0,0,1,1129.791,199.138Z" transform="translate(-1127 -199.104)" fill="#17171d"/>
          <path id="Tracé_32039" data-name="Tracé 32039" d="M1163.163,227.8c0,.929.02,1.763-.018,2.595-.007.152-.221.361-.386.431a3.9,3.9,0,0,1-4.332-1.057,6.884,6.884,0,0,1-.049-8.1,4.3,4.3,0,0,1,4.444-1.333c.133.042.329.186.332.287.027.9.015,1.794.015,2.768-.136-.089-.2-.13-.267-.175a1.608,1.608,0,0,0-2.644.844,4.764,4.764,0,0,0-.048,2.969,1.652,1.652,0,0,0,2.662.961Z" transform="translate(-1141.901 -209.539)" fill="#17171d"/>
        </g>
      </g>
    </g>
    <g id="Groupe_3706" data-name="Groupe 3706" transform="translate(461.131 -59.379)">
      <rect id="Rectangle_296" data-name="Rectangle 296" width="43.109" height="43.941" rx="21.554" fill="#eaeaf4"/>
      <g id="jc5kAQ" transform="translate(21.554 8.483)">
        <g id="Groupe_3705" data-name="Groupe 3705">
          <path id="Tracé_32040" data-name="Tracé 32040" d="M688.95,358.973h-.309c-1.15-.846-2.343-1.639-3.442-2.547-2.222-1.836-3.948-3.958-3.838-7.089a4.059,4.059,0,0,1,3.793-3.831,4.2,4.2,0,0,1,3.642,1.736,1.282,1.282,0,0,0,.213-.17,3.813,3.813,0,0,1,3.954-1.5,3.869,3.869,0,0,1,3.159,2.908c.09.3.168.6.252.907v.464c-.076.382-.149.764-.229,1.146a9.649,9.649,0,0,1-3.759,5.449C691.287,357.341,690.1,358.133,688.95,358.973Z" transform="translate(-681.356 -345.486)" fill="#dc385a"/>
        </g>
      </g>
    </g>
    <g id="Groupe_3708" data-name="Groupe 3708" transform="translate(547.95 -153.501)">
      <rect id="Rectangle_297" data-name="Rectangle 297" width="50.822" height="51.654" rx="25" transform="translate(0 0)" fill="#25e1f0"/>
      <g id="gA4K2d.tif" transform="translate(10.028 12.375)">
        <g id="Groupe_3707" data-name="Groupe 3707">
          <path id="Tracé_32041" data-name="Tracé 32041" d="M830.542,199.308a6.6,6.6,0,0,1,.24-.787,2.693,2.693,0,0,1,3.822-1.234l.152.085c.01-.134.019-.248.027-.373h1.282v5.191h-1.282l-.022-.279a8.263,8.263,0,0,1-1,.341,2.669,2.669,0,0,1-3.16-2.064c-.009-.041-.017-.083-.023-.125a.629.629,0,0,0-.042-.115Zm2.761-1.173a1.482,1.482,0,1,0,1.482,1.482v-.007a1.482,1.482,0,0,0-1.482-1.474Z" transform="translate(-830.54 -181.67)"/>
          <path id="Tracé_32042" data-name="Tracé 32042" d="M870.426,180.248c-.091,0-.147.009-.2.009q-2.837,0-5.672,0a.282.282,0,0,1-.285-.162q-3.049-5.308-6.106-10.613c-.027-.048-.055-.1-.092-.167l4.531-2.612C865.2,171.215,867.8,175.715,870.426,180.248Z" transform="translate(-844.174 -166.706)"/>
          <path id="Tracé_32043" data-name="Tracé 32043" d="M857.3,184.908c-.084.006-.169.018-.253.018q-2.111,0-4.221,0h-.275V186.2h-1.313c0-.365.01-.719,0-1.071a.9.9,0,0,0-.106-.4q-1.653-2.892-3.318-5.778c-.039-.067-.075-.135-.124-.223l4.541-2.6c.28.482.553.953.825,1.424l4.187,7.243c.021.036.037.076.056.114Z" transform="translate(-839.035 -171.375)"/>
          <path id="Tracé_32044" data-name="Tracé 32044" d="M846.777,193.516h1.291V200.5h-1.292c-.005-.1-.01-.2-.017-.324a2.752,2.752,0,0,1-2.377.311A2.592,2.592,0,0,1,843,199.435a2.711,2.711,0,0,1,.223-3.3,2.753,2.753,0,0,1,3.561-.446v-2.183Zm0,4.4A1.478,1.478,0,1,0,845.3,199.4,1.478,1.478,0,0,0,846.775,197.918Z" transform="translate(-836.485 -179.981)"/>
          <path id="Tracé_32045" data-name="Tracé 32045" d="M862.577,193.526h1.294V200.5H862.58c0-.1-.01-.2-.016-.324a2.756,2.756,0,0,1-2.394.307,2.588,2.588,0,0,1-1.353-1.021,2.711,2.711,0,0,1,.109-3.2,2.641,2.641,0,0,1,1.708-.99,2.755,2.755,0,0,1,1.948.435V193.52Zm0,4.42a1.478,1.478,0,1,0-1.484,1.471A1.478,1.478,0,0,0,862.577,197.946Z" transform="translate(-844.313 -179.987)"/>
          <path id="Tracé_32046" data-name="Tracé 32046" d="M874.572,197.378V197h1.28V202.2h-1.269c-.008-.106-.016-.207-.026-.335a2.748,2.748,0,0,1-2.3.344,2.586,2.586,0,0,1-1.415-1,2.715,2.715,0,0,1,.111-3.3A2.752,2.752,0,0,1,874.572,197.378Zm-2.953,2.244a1.478,1.478,0,1,0,1.477-1.48h0a1.478,1.478,0,0,0-1.474,1.48Z" transform="translate(-850.253 -181.676)"/>
          <path id="Tracé_32047" data-name="Tracé 32047" d="M844.138,189.46c-.077.008-.153.022-.231.022-1.868,0-3.736,0-5.6.005a.32.32,0,0,1-.329-.193c-.242-.449-.5-.889-.767-1.356l4.536-2.605c.8,1.387,1.6,2.761,2.389,4.134Z" transform="translate(-833.842 -175.931)"/>
          <path id="Tracé_32048" data-name="Tracé 32048" d="M882.238,200.5h1.308a1.194,1.194,0,0,0,1.5.775,1.23,1.23,0,0,0,.233-.1.423.423,0,0,0,.228-.4.362.362,0,0,0-.269-.349c-.382-.1-.773-.176-1.16-.263-.242-.054-.488-.1-.723-.175a1.438,1.438,0,0,1-.682-2.319,2.007,2.007,0,0,1,1.424-.719,2.684,2.684,0,0,1,1.9.382,1.619,1.619,0,0,1,.716,1.286h-1.281a1.02,1.02,0,0,0-1.271-.681,1.052,1.052,0,0,0-.139.053.451.451,0,0,0-.349.409.385.385,0,0,0,.339.385c.46.117.928.206,1.391.312a4.747,4.747,0,0,1,.552.153,1.285,1.285,0,0,1,.944,1.12,1.5,1.5,0,0,1-.687,1.543,3.039,3.039,0,0,1-2.015.358,2.363,2.363,0,0,1-1.46-.623A1.6,1.6,0,0,1,882.238,200.5Z" transform="translate(-856.146 -181.662)"/>
          <path id="Tracé_32049" data-name="Tracé 32049" d="M856.047,202.273h-1.282v-5.186h1.282Z" transform="translate(-842.538 -181.754)"/>
          <path id="Tracé_32050" data-name="Tracé 32050" d="M861.168,213.975v-1.238h.73v2.576c-.263,0-.529.006-.8-.006-.044,0-.1-.076-.126-.127-.194-.314-.382-.632-.575-.947a.437.437,0,0,0-.149-.16v1.23h-.72v-2.581c.255,0,.51-.007.764.006.052,0,.115.069.147.121.229.376.451.756.676,1.134Z" transform="translate(-844.899 -189.497)"/>
          <path id="Tracé_32051" data-name="Tracé 32051" d="M871.4,213.97v-1.233h.732v2.576c-.261,0-.528.006-.793-.006-.045,0-.1-.075-.127-.126-.193-.314-.382-.631-.573-.947-.034-.057-.075-.112-.148-.221V215.3h-.714v-2.583c.251,0,.5-.009.744.006a.271.271,0,0,1,.165.131c.194.314.377.634.565.951.034.058.073.114.109.17Z" transform="translate(-849.976 -189.496)"/>
          <path id="Tracé_32052" data-name="Tracé 32052" d="M855.161,215.315c-.26,0-.5.01-.741-.007a.3.3,0,0,1-.185-.136c-.233-.372-.456-.751-.716-1.181V215.3H852.8v-2.578c.256,0,.509-.009.761.007.057,0,.125.08.161.138.228.375.449.754.712,1.126v-1.26h.731Z" transform="translate(-841.563 -189.496)"/>
          <path id="Tracé_32053" data-name="Tracé 32053" d="M878.928,213.176l-.578.413c-.4-.356-.791-.386-1.051-.084a.709.709,0,0,0,.066.979.6.6,0,0,0,.846-.067.443.443,0,0,0,.031-.039H877.7v-.6h1.384a1.3,1.3,0,0,1-.878,1.467,1.411,1.411,0,0,1-1.74-.766,1.349,1.349,0,0,1,.6-1.7A1.438,1.438,0,0,1,878.928,213.176Z" transform="translate(-853.234 -189.432)"/>
          <path id="Tracé_32054" data-name="Tracé 32054" d="M840.285,212.724c.445,0,.87-.013,1.294,0a.784.784,0,0,1,.755.609.875.875,0,0,1-.328.982c-.05.035-.1.068-.171.112l.718.884c-.33,0-.61.007-.889-.006-.055,0-.119-.067-.159-.118a5.955,5.955,0,0,0-.475-.58v.693h-.746Zm.757.662v.519c.189-.008.388.062.513-.124a.291.291,0,0,0,.006-.255c-.115-.2-.32-.129-.519-.14Z" transform="translate(-835.366 -189.496)"/>
          <path id="Tracé_32055" data-name="Tracé 32055" d="M846.255,212.744h.735c0,.42,0,.83,0,1.24a2.629,2.629,0,0,0,.033.4.379.379,0,0,0,.734.027,1.363,1.363,0,0,0,.033-.294c0-.454,0-.907,0-1.372h.743a1.037,1.037,0,0,1,.017.143c-.008.532.008,1.067-.033,1.6a.886.886,0,0,1-.816.85,2.075,2.075,0,0,1-.775-.042.894.894,0,0,1-.672-.863C846.244,213.877,846.255,213.322,846.255,212.744Z" transform="translate(-838.322 -189.509)"/>
          <path id="Tracé_32056" data-name="Tracé 32056" d="M866.261,212.746h.73v2.566h-.73Z" transform="translate(-848.233 -189.51)"/>
        </g>
      </g>
    </g>
    <g transform="matrix(1, 0, 0, 1, 434.62, -206.16)" filter="url(#Tracé_32035)">
      <path id="Tracé_32035-2" data-name="Tracé 32035" d="M1057.787,222.1h-41.035a7.385,7.385,0,0,0-7.385,7.385V333.927" transform="translate(-795.75 -129.11)" fill="none" stroke="#e4f844" stroke-width="3"/>
    </g>
    <path id="Tracé_32036-2" data-name="Tracé 32036" d="M1149.47,528.7l.224-24.344a7.385,7.385,0,0,0-7.385-7.385H1031.365" transform="translate(-382.507 -471.414)" fill="none" stroke="#fbbc05" stroke-width="3"/>
    <path id="Tracé_32037-2" data-name="Tracé 32037" d="M882.669,644.109h27.05a7.385,7.385,0,0,0,7.385-7.385V511.395" transform="translate(-298.381 -491.526)" fill="none" stroke="#eb7541" stroke-width="3"/>
    <path id="Tracé_32038-2" data-name="Tracé 32038" d="M1038.792,634.944h-24.671a10.07,10.07,0,0,1-10.071-10.07V503.463" transform="translate(-358.501 -491.256)" fill="none" stroke="#b5c8fc" stroke-width="3"/>
    <path id="Tracé_32039-2" data-name="Tracé 32039" d="M681.88,415.969v5.692a7.4,7.4,0,0,0,7.4,7.4H824.211" transform="translate(-198.931 -431.292)" fill="none" stroke="#de3d5f" stroke-width="3"/>
    <path id="Tracé_32040-2" data-name="Tracé 32040" d="M903.619,190.9h21.538a6.994,6.994,0,0,1,6.994,6.994V313.583" transform="translate(-308.757 -319.813)" fill="none" stroke="#25e1f0" stroke-width="3"/>
    <g id="Groupe_3700" data-name="Groupe 3700" transform="translate(757.562 -55.228)">
      <rect id="Rectangle_295" data-name="Rectangle 295" width="35.105" height="35.64" rx="17.553" transform="translate(0 0)" fill="#01c293"/>
      <g id="ZWcm88" transform="translate(6.777 6.627)">
        <g id="Groupe_3699" data-name="Groupe 3699">
          <path id="Tracé_32045-2" data-name="Tracé 32045" d="M1249.783,332.216v16.727c-.265.421-.377.916-.685,1.32a4.061,4.061,0,0,1-2.185,1.352h-16.727c-.073-.159-.239-.147-.37-.2a3.379,3.379,0,0,1-2.115-2.1c-.048-.13-.035-.3-.187-.376V332.116a13.1,13.1,0,0,1,.678-1.332,4.072,4.072,0,0,1,2.093-1.34h16.826a10.207,10.207,0,0,1,1.332.674A4.151,4.151,0,0,1,1249.783,332.216Zm-18.734,9.622c.012.236.005.6.052.96a8.942,8.942,0,0,0,12.963,6.829c.993-.513.984-.5.234-1.276a.539.539,0,0,0-.749-.141,1.762,1.762,0,0,1-2.247-.383c-.358-.386-.757-.735-1.138-1.1q-2.341-2.24-4.685-4.477c-.19-.181-.381-.375-.2-.633.249-.348.5-.174.737.055q2.32,2.226,4.647,4.445c.2.2.415.369.677.115s.141-.5-.087-.717c-.69-.663-1.372-1.333-2.063-1.994-.881-.844-1.769-1.681-2.652-2.523-.133-.126-.276-.258-.189-.467a.469.469,0,0,1,.338-.327c.234-.048.365.1.508.238q2.147,2.048,4.3,4.1a7.089,7.089,0,0,0,.548.5.411.411,0,0,0,.568-.581,2.438,2.438,0,0,0-.278-.281q-2.274-2.166-4.551-4.331c-.219-.208-.408-.428-.125-.707.267-.264.493-.12.719.1.925.894,1.858,1.779,2.788,2.667.644.615,1.285,1.233,1.931,1.846a.407.407,0,0,0,.649.014.4.4,0,0,0-.06-.608c-.059-.057-.117-.116-.177-.173-1.383-1.322-2.771-2.638-4.147-3.966a4.631,4.631,0,0,1-1.641-3.663c.033-.6.159-1.206.252-1.807.058-.377-.015-.493-.439-.373A8.94,8.94,0,0,0,1231.05,341.837Zm6.892-10.965a1.033,1.033,0,0,0,.533,1.279,5.763,5.763,0,0,1,.93.733,5.008,5.008,0,0,1,1.8,5.474,1.721,1.721,0,0,0,.554,1.936c1.228,1.125,2.426,2.283,3.649,3.412a1.535,1.535,0,0,1,.5,1.864,1.042,1.042,0,0,0,.425,1.5.62.62,0,0,1,.141.138c.2.274.35.224.543-.03a8.865,8.865,0,0,0-6.212-14.277,1.079,1.079,0,0,1-.691-.32A16.026,16.026,0,0,0,1237.942,330.872Zm-7.311.056a1.683,1.683,0,1,0,1.712,1.677A1.71,1.71,0,0,0,1230.631,330.928Z" transform="translate(-1227.514 -329.444)" fill="#01c293"/>
          <path id="Tracé_32046-2" data-name="Tracé 32046" d="M1238.425,349.528a8.94,8.94,0,0,1,6.48-8.661c.424-.12.5,0,.439.373-.093.6-.219,1.2-.252,1.807a4.63,4.63,0,0,0,1.641,3.663c1.377,1.328,2.764,2.644,4.147,3.966.06.057.117.116.177.173a.4.4,0,0,1,.06.608.407.407,0,0,1-.649-.014c-.646-.613-1.287-1.231-1.931-1.846-.93-.889-1.864-1.773-2.788-2.667-.226-.219-.452-.363-.719-.1-.283.279-.094.5.125.707q2.277,2.164,4.55,4.331a2.44,2.44,0,0,1,.278.281.411.411,0,0,1-.568.581,7.111,7.111,0,0,1-.548-.5q-2.149-2.047-4.3-4.1c-.143-.136-.275-.287-.508-.238a.47.47,0,0,0-.338.327c-.086.209.057.341.189.467.884.841,1.771,1.679,2.652,2.523.691.661,1.373,1.331,2.063,1.994.228.22.358.455.087.717s-.473.08-.677-.115q-2.323-2.224-4.647-4.445c-.239-.229-.487-.4-.736-.055-.185.258.007.452.2.633q2.346,2.235,4.685,4.477c.381.365.78.714,1.138,1.1a1.762,1.762,0,0,0,2.247.383.539.539,0,0,1,.75.141c.75.771.759.762-.234,1.276a8.942,8.942,0,0,1-12.963-6.829C1238.431,350.129,1238.437,349.764,1238.425,349.528Zm6.818-3.236a5.474,5.474,0,0,1-.928-3.185c.01-.275-.179-.286-.354-.3a3.785,3.785,0,0,0-2.119.534,6.3,6.3,0,0,1,1.474,1.628A3.884,3.884,0,0,0,1245.243,346.292Z" transform="translate(-1234.89 -337.135)" fill="#fcfdfd"/>
          <path id="Tracé_32047-2" data-name="Tracé 32047" d="M1259.6,333.852a16.022,16.022,0,0,1,2.173,1.708,1.079,1.079,0,0,0,.691.319,8.864,8.864,0,0,1,6.212,14.277c-.193.254-.344.3-.543.03a.62.62,0,0,0-.141-.138,1.042,1.042,0,0,1-.426-1.5,1.535,1.535,0,0,0-.5-1.864c-1.223-1.13-2.421-2.287-3.649-3.412a1.72,1.72,0,0,1-.554-1.936,5.008,5.008,0,0,0-1.8-5.474,5.759,5.759,0,0,0-.93-.733A1.033,1.033,0,0,1,1259.6,333.852Z" transform="translate(-1249.177 -332.424)" fill="#fcfdfd"/>
          <path id="Tracé_32048-2" data-name="Tracé 32048" d="M1233.56,334.025a1.683,1.683,0,1,1,0,3.365,1.683,1.683,0,1,1,0-3.365Z" transform="translate(-1230.443 -332.541)" fill="#fcfdfd"/>
          <path id="Tracé_32049-2" data-name="Tracé 32049" d="M1252.372,350.41a3.884,3.884,0,0,1-1.926-1.324,6.3,6.3,0,0,0-1.474-1.628,3.787,3.787,0,0,1,2.119-.534c.174.015.364.026.354.3A5.475,5.475,0,0,0,1252.372,350.41Z" transform="translate(-1242.018 -341.253)" fill="#01c293"/>
        </g>
      </g>
    </g>
    <path id="Tracé_32050-2" data-name="Tracé 32050" d="M708.478,519.474V496.157a10.543,10.543,0,0,1,10.543-10.543H827.879" transform="translate(-212.104 -465.787)" fill="none" stroke="#f49956" stroke-width="3"/>
    <path id="Tracé_32051-2" data-name="Tracé 32051" d="M1157.325,407.578v13.628a7.631,7.631,0,0,1-7.631,7.631H1028.262" transform="translate(-382.21 -427.136)" fill="none" stroke="#21c293" stroke-width="3"/>
    <path id="Tracé_32052-2" data-name="Tracé 32052" d="M437.729,71.2l.921-156.39c0-20.385,8.329-23.125,21.277-23.125l74.7.288c8.778,0,19.5,2.474,19.5-17.911v-8.722" transform="translate(199.426 -71.501)" fill="none" stroke="#fbfbfc" stroke-width="3" stroke-dasharray="4" opacity="0.221"/>
    <path id="Tracé_32053-2" data-name="Tracé 32053" d="M978.441,539.486v127.84a32.9,32.9,0,0,0,32.9,32.9l67.464-1.289a32.993,32.993,0,0,1,32.261,26.4,32.348,32.348,0,0,1,.642,6.5" transform="translate(-345.817 -516.572)" fill="none" stroke="#fff" stroke-width="3" stroke-dasharray="4" opacity="0.29"/>
    <path id="Tracé_32054-2" data-name="Tracé 32054" d="M1054.26,399.434h154.824" transform="translate(-383.37 -388.67)" fill="none" stroke="#fff" stroke-width="3" stroke-dasharray="4" opacity="0.29"/>
    <path id="Tracé_32055-2" data-name="Tracé 32055" d="M697.344,461.671H581.9c-10.264,0-20.108,3.21-27.366,8.925l-17.509,13.786" transform="translate(-101.476 -453.928)" fill="none" stroke="#fff" stroke-width="3" stroke-dasharray="4" opacity="0.269"/>
    <g id="Groupe_3698" data-name="Groupe 3698" transform="translate(477.661 51.506)">
      <rect id="Rectangle_295-2" data-name="Rectangle 295" width="36.215" height="36.766" rx="18.107" transform="translate(0 0)" fill="#ededf4"/>
      <g id="Groupe_3697" data-name="Groupe 3697" transform="translate(10.059 10.083)">
        <path id="Tracé_32041-2" data-name="Tracé 32041" d="M697.967,582.194a1.05,1.05,0,0,1-.579.965c-.626.4-1.27.777-1.911,1.157q-1.362.806-2.732,1.6c-.434.25-.588.227-.944-.115-.4-.387-.792-.789-1.192-1.18a1.754,1.754,0,0,0-.333-.262.615.615,0,0,0-.714.087.589.589,0,0,0-.029.734,9.768,9.768,0,0,0,.987,1.043c.54.556.53.7-.138,1.092q-2.577,1.521-5.161,3.03a2.143,2.143,0,0,1-.859.341,1,1,0,0,1-1.148-1.2,3.034,3.034,0,0,1,.351-1.027q.532-.968,1.071-1.933a2.388,2.388,0,0,1,.154-.248.336.336,0,0,1,.563-.076c.239.2.453.424.685.63a.6.6,0,0,0,.533.179.559.559,0,0,0,.343-.911,3.5,3.5,0,0,0-.686-.738c-.522-.449-.57-.68-.231-1.285q1.048-1.868,2.1-3.734c.23-.409.455-.446.8-.127.52.484.989,1.019,1.529,1.481a.607.607,0,0,0,.817.076.614.614,0,0,0,.04-.84,4.607,4.607,0,0,0-.434-.467c-.482-.485-.97-.963-1.449-1.45a.6.6,0,0,1-.119-.777c.322-.592.641-1.187.995-1.76a1.168,1.168,0,0,1,1.766-.357,6.563,6.563,0,0,1,.786.676q2.148,2.027,4.287,4.062a4.939,4.939,0,0,1,.654.7A1.013,1.013,0,0,1,697.967,582.194Zm-6.269-.844a.784.784,0,0,1-.8.825.982.982,0,0,1-.757-.37c-.447-.428-.869-.882-1.34-1.286-.234-.2-.32-.2-.5.064a14.5,14.5,0,0,0-.748,1.28c-.449.811-.911,1.615-1.358,2.427-.191.348-.158.506.134.791a4.935,4.935,0,0,1,.832.88.851.851,0,0,1-.076,1.115.827.827,0,0,1-1.207-.047,6.284,6.284,0,0,0-.53-.482c-.18-.141-.325-.132-.443.053a6.637,6.637,0,0,0-.338.6,12.373,12.373,0,0,0-1.066,2.161.814.814,0,0,0,.24.912.962.962,0,0,0,.981.049c.878-.509,1.753-1.024,2.636-1.525.408-.232.8-.487,1.2-.731.585-.358,1.213-.644,1.782-1.031.284-.193.272-.282.069-.547-.3-.4-.724-.671-1.028-1.066a.852.852,0,0,1,.386-1.422.909.909,0,0,1,.872.279c.4.4.8.8,1.206,1.2.345.343.462.378.88.139q1.521-.868,3.021-1.773a12.121,12.121,0,0,0,1.6-.985.789.789,0,0,0,.274-1.027,4.2,4.2,0,0,0-.516-.638c-.633-.6-1.246-1.225-1.9-1.8-.892-.783-1.744-1.609-2.572-2.46a8.2,8.2,0,0,0-.738-.6.857.857,0,0,0-.486-.191,1,1,0,0,0-.994.616c-.278.512-.54,1.033-.84,1.533a.415.415,0,0,0,.034.573c.476.476.936.967,1.44,1.418A1.5,1.5,0,0,1,691.7,581.35Z" transform="translate(-683.2 -574.385)" fill="#e69b3f"/>
        <path id="Tracé_32042-2" data-name="Tracé 32042" d="M723.1,574.545a7.553,7.553,0,0,0,1.518-.354c.052-.012.1-.038.152-.047.135-.024.281-.044.333.125a.241.241,0,0,1-.181.309c-.273.1-.547.208-.824.3-.53.173-1.064.337-1.6.5a.846.846,0,0,1-.206.048c-.174.009-.364.055-.489-.121a.474.474,0,0,1,.015-.528q.786-1.527,1.575-3.051a.915.915,0,0,1,.154-.215.217.217,0,0,1,.291-.034.2.2,0,0,1,.052.262c-.225.561-.533,1.082-.793,1.627a2.429,2.429,0,0,0-.305.844C722.763,574.536,722.748,574.539,723.1,574.545Zm-.87.723a2.351,2.351,0,0,0,.632-.224c.144-.08.17-.187.037-.319a1.448,1.448,0,0,1-.351-.4c-.073-.16-.177-.142-.258-.024a3.652,3.652,0,0,0-.347.592A.288.288,0,0,0,722.226,575.268Z" transform="translate(-708.848 -571.438)" fill="#79e46f"/>
        <path id="Tracé_32043-2" data-name="Tracé 32043" d="M692.194,581.892a1.5,1.5,0,0,0-.66-1.07c-.5-.45-.964-.941-1.44-1.418a.415.415,0,0,1-.034-.573c.3-.5.562-1.021.84-1.533a1,1,0,0,1,.994-.616.856.856,0,0,1,.486.191,8.218,8.218,0,0,1,.738.6c.827.851,1.68,1.678,2.572,2.46.658.578,1.271,1.2,1.9,1.8a4.189,4.189,0,0,1,.516.638.789.789,0,0,1-.274,1.026,12.115,12.115,0,0,1-1.6.985q-1.5.909-3.021,1.773c-.418.238-.535.2-.88-.139-.4-.4-.8-.806-1.206-1.2a.908.908,0,0,0-.872-.279.852.852,0,0,0-.386,1.422c.3.4.725.67,1.028,1.066.2.265.215.354-.068.547-.569.386-1.2.673-1.782,1.031-.4.245-.792.5-1.2.731-.883.5-1.758,1.017-2.636,1.525a.962.962,0,0,1-.981-.049.814.814,0,0,1-.24-.912,12.374,12.374,0,0,1,1.066-2.161,6.628,6.628,0,0,1,.338-.6c.118-.185.263-.194.443-.053a6.3,6.3,0,0,1,.53.482.828.828,0,0,0,1.207.047.851.851,0,0,0,.076-1.115,4.929,4.929,0,0,0-.832-.88c-.292-.285-.325-.444-.134-.791.447-.812.909-1.616,1.358-2.427a14.514,14.514,0,0,1,.748-1.28c.181-.26.267-.265.5-.064.471.4.893.858,1.34,1.286a.982.982,0,0,0,.757.37A.783.783,0,0,0,692.194,581.892Z" transform="translate(-683.697 -574.928)" fill="#e38131"/>
        <path id="Tracé_32044-2" data-name="Tracé 32044" d="M722.615,580.8a.288.288,0,0,1-.286-.37,3.674,3.674,0,0,1,.347-.592c.081-.118.185-.136.258.024a1.451,1.451,0,0,0,.351.4c.133.131.107.239-.037.319A2.353,2.353,0,0,1,722.615,580.8Z" transform="translate(-709.236 -576.966)" fill="#6edd54"/>
      </g>
    </g>
    <g id="Groupe_3700-2" data-name="Groupe 3700" transform="translate(535.096 123.178)">
      <path id="Rectangle_293" data-name="Rectangle 293" d="M814.364,702.61h20.981a17.134,17.134,0,0,1,17.134,17.134v22.048a16.977,16.977,0,0,1-17.134,16.949H814.364a16.977,16.977,0,0,1-17.134-16.949V719.744A17.135,17.135,0,0,1,814.364,702.61Z" transform="translate(-797.23 -702.61)" fill="#eb7541"/>
      <g id="Groupe_3699-2" data-name="Groupe 3699" transform="translate(17.876 13.81)">
        <g id="HDOO2k">
          <g id="Groupe_3697-2" data-name="Groupe 3697">
            <path id="Tracé_32034" data-name="Tracé 32034" d="M833.03,723.959l8.235,16.191c-.093,0-.154.01-.216.01-1.469,0-2.934,0-4.4,0a.286.286,0,0,1-.3-.179q-1.562-3-3.136-6c-.041-.079-.086-.157-.144-.263-.045.077-.08.129-.108.184q-1.562,3.045-3.122,6.091c-.05.1-.1.166-.229.165-1.539-.006-3.077,0-4.616,0-.032,0-.063-.006-.131-.013C827.587,734.752,830.3,729.375,833.03,723.959Z" transform="translate(-824.865 -723.959)" fill="#e4e4e4"/>
          </g>
        </g>
        <g id="HDOO2k-2" transform="translate(7.472 16.174)">
          <g id="Groupe_3698-2" data-name="Groupe 3698">
            <path id="Tracé_32035-3" data-name="Tracé 32035" d="M843,761.922l-6.584-12.945c.074,0,.123-.008.175-.008q1.759,0,3.518,0a.229.229,0,0,1,.239.144q1.25,2.4,2.508,4.795c.033.064.07.126.115.21.034-.062.063-.1.086-.148q1.249-2.434,2.5-4.87c.04-.078.076-.133.183-.132,1.23,0,2.459,0,3.689,0,.025,0,.051,0,.1.01C847.353,753.291,845.185,757.592,843,761.922Z" transform="translate(-836.417 -748.964)" fill="#e4e4e4" opacity="0.65" style="mix-blend-mode: normal;isolation: isolate"/>
          </g>
        </g>
      </g>
    </g>
    <g id="Groupe_3703" data-name="Groupe 3703" transform="translate(742.315 53.615)">
      <rect id="Rectangle_295-3" data-name="Rectangle 295" width="50.352" height="51.324" rx="25.176" fill="#ededf4"/>
      <g id="Groupe_3696" data-name="Groupe 3696" transform="translate(9.832 13.311)">
        <path id="Tracé_32031" data-name="Tracé 32031" d="M1224.224,598c-.017-.013-.035-.025-.05-.04-.811-.812-1.636-1.612-2.43-2.439a7.436,7.436,0,0,1-1.957-3.852c-.047-.249-.08-.5-.1-.753,0-.034.028-.093-.047-.1v-1.162c.074,0,.044-.063.047-.1.021-.227.049-.453.089-.677a7.559,7.559,0,0,1,1.509-3.4,7.715,7.715,0,0,1,5.541-3.005,7.384,7.384,0,0,1,2.006.094,7.7,7.7,0,0,1,4.014,2.037c.822.779,1.619,1.582,2.423,2.379a.554.554,0,0,1-.1.113l-3.29,3.268a.476.476,0,0,1-.115-.1c-.739-.74-1.46-1.5-2.23-2.207a2.912,2.912,0,0,0-2.709-.754,2.984,2.984,0,0,0-1.445,5.06q1.114,1.114,2.222,2.235c-.01.056-.059.083-.094.119l-3.16,3.154C1224.3,597.921,1224.262,597.963,1224.224,598Z" transform="translate(-1219.635 -582.455)" fill="#ea4335"/>
        <path id="Tracé_32032" data-name="Tracé 32032" d="M1243.783,587c.041-.038.085-.073.124-.113l2.143-2.129a7.779,7.779,0,0,1,4.385-2.2,7.633,7.633,0,0,1,1.711-.064,7.8,7.8,0,0,1,4.922,2.152,7.274,7.274,0,0,1,2.193,4.062,8.071,8.071,0,0,1,.1,1.555c0,.069,0,.137,0,.206a7.608,7.608,0,0,1-.263,1.716,7.869,7.869,0,0,1-2.035,3.581q-1.078,1.085-2.158,2.168c-.027.027-.057.051-.086.077-.017-.019-.034-.038-.052-.057l-3.316-3.289c-.009-.01-.019-.017-.029-.026a.39.39,0,0,1,.094-.1c.731-.736,1.471-1.462,2.192-2.208a2.891,2.891,0,0,0,.806-2.657,2.972,2.972,0,0,0-3.218-2.4,2.931,2.931,0,0,0-1.844.862q-.671.661-1.338,1.328l-4.2,4.181c-.046.046-.093.09-.139.134-.023-.019-.047-.038-.068-.059l-3.26-3.258c-.024-.024-.054-.044-.064-.08h0l3.291-3.268A.554.554,0,0,0,1243.783,587Z" transform="translate(-1228.154 -582.462)" fill="#4285f4"/>
        <path id="Tracé_32033" data-name="Tracé 32033" d="M1248.464,603.111c.009.009.02.016.029.026l3.316,3.289c.018.018.035.038.052.057-.044.047-.086.1-.131.141L1244.345,614c-.78.779-1.6,1.519-2.393,2.28-.351.336-.706.668-1.06,1-.08.075-.081.075-.162,0q-1.617-1.523-3.235-3.045c-.075-.071-.131-.157-.2-.23q-2.012-2.006-4.02-4.016a.494.494,0,0,1-.1-.114l.1-.1,3.18-3.169a.332.332,0,0,1,.117-.1l4.132,4.118c.132.131.093.133.231,0q3.682-3.673,7.363-7.348A1.2,1.2,0,0,1,1248.464,603.111Z" transform="translate(-1225.191 -590.934)" fill="#34a853"/>
        <path id="Tracé_32034-2" data-name="Tracé 32034" d="M1234.208,603.541a.332.332,0,0,0-.117.1q-1.591,1.584-3.18,3.169l-.1.1c-.026-.022-.054-.042-.078-.066q-1.637-1.609-3.245-3.244c-.024-.024-.044-.052-.067-.078.038-.041.075-.083.115-.122l3.16-3.154c.035-.035.084-.063.094-.118.049,0,.071-.044.1-.073.142-.138.281-.279.421-.418l3.754-3.742c.01.036.04.055.064.08l3.26,3.258c.021.021.045.04.068.059a.566.566,0,0,1-.12.135l-4.017,4A.505.505,0,0,0,1234.208,603.541Z" transform="translate(-1222.831 -587.97)" fill="#fbbc05"/>
      </g>
    </g>
    <g id="Groupe_3701" data-name="Groupe 3701" transform="translate(674.838 116.005)">
      <rect id="Rectangle_292" data-name="Rectangle 292" width="53.395" height="54.426" rx="26.698" fill="#23232c"/>
      <g id="MeJXzb.tif" transform="translate(14.136 14.617)">
        <g id="Groupe_3696-2" data-name="Groupe 3696">
          <path id="Tracé_32032-2" data-name="Tracé 32032" d="M1123.374,725.99v.1c-.07.057-.145.108-.209.171q-4.473,4.369-8.94,8.743a.389.389,0,0,1-.44.115q-4.833-1.361-9.67-2.7c-.174-.049-.241-.112-.241-.3q.008-9.2.011-18.4a.542.542,0,0,1,.148-.344c1.118-1.1,2.245-2.2,3.365-3.3a.316.316,0,0,1,.351-.095q6.083,1.705,12.166,3.4a.352.352,0,0,1,.275.3q1.367,5.352,2.739,10.7C1123.068,724.913,1123.225,725.449,1123.374,725.99Z" transform="translate(-1098.255 -709.949)" fill="#e4e4e4"/>
          <path id="Tracé_32033-2" data-name="Tracé 32033" d="M1099.472,717.277V734.8c-.443-.124-.877-.236-1.3-.374-.064-.021-.106-.157-.129-.246q-.792-3.058-1.575-6.117-.775-3.01-1.555-6.018a.386.386,0,0,1,.115-.437q2.129-2.061,4.24-4.136C1099.322,717.416,1099.378,717.366,1099.472,717.277Z" transform="translate(-1094.885 -712.696)" fill="#e4e4e4"/>
        </g>
      </g>
    </g>
    <g id="Groupe_3017" data-name="Groupe 3017" transform="translate(591.608 -32.151)">
      <g id="Groupe_3701-2" data-name="Groupe 3701" transform="translate(0)">
        <g transform="matrix(1, 0, 0, 1, -156.99, -174.01)" filter="url(#Rectangle_148-2)">
          <rect id="Rectangle_148-2-2" data-name="Rectangle 148-2" width="84.871" height="84.872" rx="23" transform="translate(156.99 174.01)" fill="url(#linear-gradient)"/>
        </g>
      </g>
      <g id="Groupe_2689" data-name="Groupe 2689" transform="translate(15.825 34.081)">
        <ellipse id="Ellipse_1" data-name="Ellipse 1" cx="8.072" cy="8.072" rx="8.072" ry="8.072" transform="translate(40.258 0.362)" fill="#fff" stroke="#fff" stroke-width="4"/>
        <path id="Tracé_19049" data-name="Tracé 19049" d="M980.844,456.6l-5.686-3.52a4.855,4.855,0,0,0-7.41,4.111l-.025,7a4.855,4.855,0,0,0,7.38,4.162l5.711-3.477a4.856,4.856,0,0,0,.029-8.274Z" transform="translate(-948.117 -452.351)" fill="#fff" stroke="#fff" stroke-width="4"/>
        <g id="Groupe_1" data-name="Groupe 1" transform="translate(0 0.334)">
          <path id="Tracé_19050" data-name="Tracé 19050" d="M949.654,454.644l-.041,7.688a7.029,7.029,0,0,1-14.028-.051l.007-7.688a1.682,1.682,0,0,1,1.693-1.667l10.69.038a1.679,1.679,0,0,1,1.68,1.679Z" transform="translate(-935.585 -452.926)" fill="#fff" stroke="#fff" stroke-width="4"/>
        </g>
      </g>
    </g>
  </g>
</svg>
